<?xml version="1.0" encoding="UTF-8" standalone="no"?>
<svg
   xmlns:dc="http://purl.org/dc/elements/1.1/"
   xmlns:cc="http://creativecommons.org/ns#"
   xmlns:rdf="http://www.w3.org/1999/02/22-rdf-syntax-ns#"
   xmlns:svg="http://www.w3.org/2000/svg"
   xmlns="http://www.w3.org/2000/svg"
   xmlns:sodipodi="http://sodipodi.sourceforge.net/DTD/sodipodi-0.dtd"
   xmlns:inkscape="http://www.inkscape.org/namespaces/inkscape"
   version="1.1"
   x="0px"
   y="0px"
   viewBox="0 0 465.90912 646.67291"
   xml:space="preserve"
   id="svg243"
   sodipodi:docname="Potted Plant.svg"
   width="465.90912"
   height="646.67291"
   inkscape:version="1.0.1 (c497b03c, 2020-09-10)"><metadata
   id="metadata249"><rdf:RDF><cc:Work
       rdf:about=""><dc:format>image/svg+xml</dc:format><dc:type
         rdf:resource="http://purl.org/dc/dcmitype/StillImage" /><dc:title></dc:title></cc:Work></rdf:RDF></metadata><defs
   id="defs247" /><sodipodi:namedview
   pagecolor="#ffffff"
   bordercolor="#666666"
   borderopacity="1"
   objecttolerance="10"
   gridtolerance="10"
   guidetolerance="10"
   inkscape:pageopacity="0"
   inkscape:pageshadow="2"
   inkscape:window-width="1680"
   inkscape:window-height="1028"
   id="namedview245"
   showgrid="false"
   inkscape:zoom="0.39932871"
   inkscape:cx="-324.65092"
   inkscape:cy="-137.37277"
   inkscape:window-x="0"
   inkscape:window-y="0"
   inkscape:window-maximized="0"
   inkscape:current-layer="Background" />
<style
   type="text/css"
   id="style10">
	.st0{fill:#C4F5DF;}
	.st1{fill:#A7D8C0;}
	.st2{fill:#1E3320;}
	.st3{fill:#32592A;}
	.st4{fill:#264823;}
	.st5{fill:#253F27;}
	.st6{fill:#2F5131;}
	.st7{fill:#2C5125;}
	.st8{fill:#3B622D;}
	.st9{fill:#2B5027;}
	.st10{fill:#456D35;}
	.st11{fill:#2C5128;}
	.st12{fill:#1B6375;}
	.st13{fill:#144854;}
	.st14{fill:#426D30;}
	.st15{fill:#3D662C;}
	.st16{fill:#3D632C;}
</style>
<g
   id="Background"
   transform="translate(-465.84074,-108.96507)">
	
	<ellipse
   class="st1"
   cx="666.44031"
   cy="748.23798"
   rx="200.59956"
   ry="7.4000001"
   id="ellipse14"
   style="fill:#cf6d49;fill-opacity:1;stroke-width:0.626732" />
</g>
<g
   id="Object"
   transform="translate(-465.84074,-108.96507)">
	<g
   id="g63">
		<g
   id="g53">
			<path
   class="st2"
   d="m 701.2,254.9 c 0,0 -20.1,39.9 -22.8,85.6 -2.7,45.7 6.1,240.9 6.1,240.9 l 0.7,23.5 c 0,0 3.6,-2.1 3,-3.8 -0.6,-1.7 -5,-223.1 -3.7,-259.1 1.2,-31.9 16.7,-87.1 16.7,-87.1 z"
   id="path17" />
			<path
   class="st3"
   d="m 810.3,417.1 c 0,0 -40.7,-23.4 -76.5,11.2 -25.2,24.3 -39.6,198 -39.6,198 h -11.8 c 0,0 16.1,-147.3 31.6,-178.3 15.4,-30.9 48.4,-68.9 96.3,-30.9 z"
   id="path19" />
			<path
   class="st4"
   d="m 787.2,223.7 c 0,0 -59.5,29.8 -79.2,57.8 -19.7,28 -36.8,344.9 -36.8,344.9 h 11.1 c 0,0 14.4,-306 31.6,-335.1 17.2,-29.1 73.3,-67.6 73.3,-67.6 z"
   id="path21" />
			<path
   class="st4"
   d="m 733.8,206.3 c 0,0 -39.2,28.5 -59.5,80.3 -20.4,51.8 -19.7,266.6 -19.7,266.6 v 28.2 h 5.7 c 0,0 3.3,-248.5 19.5,-286.4 16.3,-37.9 54,-88.7 54,-88.7 z"
   id="path23" />
			<path
   class="st5"
   d="m 630.6,216 c 0,0 7.5,97.3 5.9,145.8 -1.6,48.5 10.7,149.5 10.7,149.5 l 1,-13.3 c 0,0 -3.4,-257.6 -8.8,-280.1 -5.4,-22.5 -8.8,-1.9 -8.8,-1.9 z"
   id="path25" />
			<path
   class="st5"
   d="m 623.6,354.9 c 0,0 13.6,85.8 15.5,130.7 1.7,39 0,140.8 0,140.8 h 10.3 c 0,0 5,-142 -4.3,-195.1 -8.8,-50.5 -21.5,-76.4 -21.5,-76.4 z"
   id="path27" />
			<path
   class="st6"
   d="m 583.9,418 c 0,0 17.6,-11.3 29.8,-2.2 12.2,9.1 33.5,98.8 33.5,161.8 0,23.3 0,48.8 0,48.8 h 10.4 c 0,0 2.4,-68.1 -6.8,-116 -9.2,-47.9 -28.3,-102.7 -35.1,-107 -6.9,-4.2 -31.8,14.6 -31.8,14.6 z"
   id="path29" />
			<path
   class="st5"
   d="m 691.2,389.9 c 0,0 -18.6,37.5 -22.9,68.3 -4.3,30.8 -13.7,168.2 -13.7,168.2 h 14.1 c 0,0 3.4,-147.2 9.4,-174.2 6,-27 23.1,-57.8 23.1,-57.8 z"
   id="path31" />
			<path
   class="st7"
   d="m 740.5,209.6 c -10.8,-2.8 -25.9,5.4 -41.3,-16.3 -15.4,-21.8 -5.7,-27.9 3.4,-24.7 9.1,3.2 18.4,21.2 20.8,14.4 2.4,-6.8 -24.3,-16.6 -19.6,-24.1 4.7,-7.5 28.1,-17.8 40.3,-16.9 12.2,0.9 15.4,25.4 20.7,22.9 5.3,-2.5 -5.7,-14.8 -1.4,-19.1 4.3,-4.3 39.7,-4.3 44.7,0.2 5,4.5 0.7,20.7 5.4,19.1 4.8,-1.6 5.7,-15.7 12.7,-17.2 7,-1.6 19.1,1.4 20,10.4 0.9,9.1 -2.5,23.4 -12.3,26.8 -9.8,3.4 -22.9,4.3 -24.1,8.2 -1.1,3.9 12.6,-0.2 12.5,5.3 -0.1,5.5 -5.9,19 -16.6,22 -10.7,3 -10.4,-6.8 -18.8,-6.1 -8.4,0.7 -7.5,4.8 -2.5,7.9 5,3.2 11.1,10.7 3.4,15.7 -7.7,5 -16,12.3 -21.6,4.8 -5.6,-7.5 -7.2,-16.4 -12.5,-14.3 -5.3,2.1 5.2,12 2.7,16.3 -2.5,4.3 -15.4,21.3 -26.6,10.7 -11.1,-10.7 -11.8,-20.4 -8.2,-26.8 3.6,-6.4 27.7,-16.9 18.9,-19.2 z"
   id="path33" />
			<path
   class="st8"
   d="m 637.5,221.4 c 0,0 8.8,13.3 0.3,30.8 -8.5,17.6 -19,24.3 -32.3,25.2 -13.3,0.9 -28.1,-3.4 -30.2,-14.3 -2,-10.9 25.3,-14.8 30.6,-24.9 5.3,-10.1 -2,-14.5 -8.9,-9.4 -6.9,5.1 -23.4,21.8 -33.9,18.6 -10.5,-3.1 -20.6,-18 -13.1,-30.5 7.5,-12.6 30,-12.2 27.8,-20.9 -2.2,-8.6 -16.2,-7.9 -23.9,-3.6 -7.7,4.3 -12.1,5.1 -14.3,-4.9 -2.2,-10 -7,-18.8 0.5,-21.8 7.5,-3.1 15.6,-6 10.9,-8.3 -4.8,-2.3 -10.3,15.3 -19.4,0.3 -9.1,-15 -19.2,-31.1 -9.5,-38.3 9.7,-7.2 23.1,-12.3 28.3,-0.5 5.1,11.9 10.2,20.7 17,21.2 6.8,0.4 -0.3,-16.1 -2.7,-23.5 -2.4,-7.4 10.7,-10.6 18.2,-4.2 7.5,6.5 14.4,16.4 12,27.7 -2.3,11.3 6,15.6 10.2,12.6 4.2,-3.1 -12,-26 -4.2,-31 7.9,-4.9 37.3,-1.6 33.5,12.4 -3.8,14 -9.1,27 -0.7,29 8.4,2 1.9,-12.7 11.3,-23.2 9.4,-10.5 36.9,3.6 33,13.3 -3.9,9.7 -32.8,26.1 -24.7,35.9 8.1,9.9 18.8,-20.1 25.2,-25.3 6.3,-5.3 28.8,25.9 14.5,44.6 -14.3,18.7 -29.4,15.6 -36.9,14.1 -7.7,-1.4 -17.1,-9.9 -18.6,-1.1 z"
   id="path35" />
			<path
   class="st3"
   d="m 591.2,193.4 c 0,0 33.8,42.3 46,77 12.2,34.7 17.4,282.9 17.4,282.9 v 44.5 c 0,0 3.6,-2.7 3.3,-8.1 -0.3,-5.4 0.2,-163 -3.3,-238.4 -3.9,-81.4 -13.8,-129.7 -63.4,-157.9 z"
   id="path37" />
			<path
   class="st2"
   d="m 574.3,411.4 c 9.6,-5.6 14.4,-22.1 40.8,-17.7 26.3,4.5 23.8,15.7 15.1,19.9 -8.7,4.2 -28,-1.9 -24.9,4.5 3.1,6.4 28.9,-5.5 30.9,3.2 2,8.7 -7.3,32.4 -16.6,40.4 -9.3,8 -28.9,-7.1 -30.8,-1.6 -1.9,5.5 14.4,6.4 14.4,12.5 0,6.1 -25,31.1 -31.8,31.5 -6.7,0.3 -15.1,-14.1 -17.3,-9.6 -2.2,4.5 7.1,15.1 3.2,21.2 -3.9,6.1 -14.4,12.5 -21.5,6.7 -7.1,-5.8 -14.8,-18.3 -10.3,-27.6 4.5,-9.3 13.2,-19.3 11.2,-22.8 -2,-3.5 -8.8,9 -12.6,5.1 -3.8,-3.9 -9.3,-17.7 -3.8,-27.3 5.5,-9.6 12.2,-2.6 17.7,-9 5.5,-6.4 1.9,-8.7 -3.9,-7.4 -5.8,1.3 -15.4,0.3 -13.5,-8.7 1.9,-9 2.6,-20 11.9,-18.7 9.3,1.3 16.7,6.5 18.9,1.3 2.2,-5.1 -12.2,-4.8 -13.5,-9.6 -1.3,-4.8 -4.2,-26 11.2,-26.3 15.4,-0.3 22.8,6.1 24.7,13.2 1.9,7.1 -7.2,31.4 0.5,26.8 z"
   id="path39" />
			<path
   class="st9"
   d="m 623.6,354.9 c 0,0 3,-22.3 -8.9,-33.8 -11.8,-11.5 -32.7,-14.5 -33.3,-6.6 -0.6,7.9 13.5,22.8 5,25.5 -8.5,2.7 -17.2,-24.8 -26,-22.8 -8.8,2 -44.4,17.6 -36.5,27.8 7.9,10.2 26,11 21.3,17.2 -4.7,6.2 -22.6,-11 -30.6,-3.4 -8,7.5 -13.8,15.6 -9.1,20 4.6,4.3 9.3,13.9 5.9,15.8 -3.4,1.9 -11.4,-8.3 -15.5,-4.2 -4.1,4.1 -15.9,19.8 -11.6,25.7 4.3,5.9 4.5,11.1 0.8,12.6 -3.7,1.5 -18.2,23.6 -16.5,30.1 1.7,6.5 27.3,7.1 31.8,5.3 4.5,-1.8 5.2,-25.1 9.1,-21.4 3.9,3.7 -3.1,16.1 4.5,15.9 7.6,-0.2 37.1,-6.4 38.8,-12.8 1.7,-6.4 -3.2,-37.5 3,-32.8 6.2,4.7 7.6,23.7 7.5,27.6 -0.1,3.9 29.5,-12.9 34.5,-17.3 4.9,-4.4 -10.3,-36 -3.8,-37.7 6.5,-1.7 12.2,14.7 14.6,19.5 2.4,4.8 7.6,16.5 22.8,3.2 15.1,-13.4 29.4,-38.5 -7.8,-53.4 z"
   id="path41" />
			<path
   class="st7"
   d="m 592.1,188.3 c 0,0 7.4,-23.4 4.8,-31.5 -2.6,-8.1 -34.4,-29.8 -39.4,-21.9 -5,7.9 10.4,28.5 3.9,28.6 -6.5,0.1 -7.3,-19.8 -19.6,-19.3 -12.3,0.5 -34,16.7 -32.3,23.2 1.7,6.5 20.7,10 23.4,13 2.8,3 -11.5,-6.4 -22.2,-4.6 -10.7,1.8 -27.7,12.8 -24.4,20.2 3.3,7.4 13.1,13.5 23.5,11.2 10.4,-2.3 27.1,-2.2 21.8,3.7 -5.3,5.9 -40.9,3.7 -46.3,14.3 -5.3,10.6 -13.6,27.7 5,19.7 18.6,-8 55.5,-17.3 44.5,-6.5 -11,10.8 -47.7,8 -51.1,19.4 -3.4,11.4 -6.8,36.2 0.4,35.4 7.2,-0.8 40.7,-27.7 40.4,-20.2 -0.3,7.5 -34.6,17.8 -36.7,28.5 -2.1,10.6 -3,24.4 2.7,22.8 5.7,-1.6 23.3,-15.4 19.7,-7.4 -3.6,8 -13.8,13.7 -8.5,23.2 5.3,9.6 4.6,15 11.8,14.3 7.2,-0.8 18.9,-0.5 22.2,-14.1 3.3,-13.6 6.2,-39.9 10.2,-34.7 3.9,5.1 -8.3,33.6 -3.2,36 5.1,2.5 20.5,5.5 24.4,-7.4 3.9,-12.9 -11.8,-42.9 -6.1,-48.5 5.8,-5.6 10.3,2.8 9.9,12.5 -0.4,9.7 -6,38.9 4.1,35.7 10,-3.2 20.1,-13.4 18.7,-25.2 -1.4,-11.8 -13.7,-31.1 -10.9,-36.5 2.7,-5.5 9,-7.1 11.2,10.6 2.2,17.8 -0.9,32.9 7.6,31.4 8.5,-1.5 19.7,-7.8 22.9,-16.3 3.2,-8.5 -24.7,-43.1 -22.3,-49.5 2.4,-6.4 10.2,-13.1 14.8,2 4.6,15 5.9,40.3 16.4,27.8 10.5,-12.5 21.8,-20.6 21.3,-34.4 -0.5,-13.8 -36.2,-21.6 -37.3,-27.7 -1,-6.1 16.7,-5.8 23.6,-0.5 6.8,5.2 12.2,11.5 16.1,3.4 3.9,-8.1 5.4,-28.9 -2.8,-32.7 -8.2,-3.8 -25.5,-9.8 -35.9,-3.8 -10.4,6 -25.3,16.2 -26.3,5.8 z"
   id="path43"
   style="fill:#2b5f2d;fill-opacity:1" />
			<path
   class="st4"
   d="m 794.6,393.2 c -9.6,-5.6 -14.4,-22.1 -40.8,-17.7 -26.4,4.4 -23.8,15.7 -15.1,19.9 8.7,4.2 28,-1.9 24.9,4.5 -3.1,6.4 -28.9,-5.5 -30.9,3.2 -2,8.7 7.3,32.4 16.6,40.4 9.3,8 28.9,-7.1 30.8,-1.6 1.9,5.5 -14.4,6.4 -14.4,12.5 0,6.1 25,31.1 31.8,31.5 6.7,0.3 15.1,-14.1 17.3,-9.6 2.2,4.5 -7.1,15.1 -3.2,21.2 3.9,6.1 14.4,12.5 21.5,6.7 7.1,-5.8 14.8,-18.3 10.3,-27.6 -4.5,-9.3 -13.2,-19.3 -11.2,-22.8 1.9,-3.5 8.8,9 12.6,5.1 3.8,-3.9 9.3,-17.7 3.8,-27.3 -5.5,-9.6 -12.2,-2.6 -17.7,-9 -5.5,-6.4 -1.9,-8.7 3.9,-7.4 5.8,1.3 15.4,0.3 13.5,-8.7 -1.9,-9 -2.6,-20 -11.9,-18.7 -9.3,1.3 -16.7,6.5 -18.9,1.3 -2.2,-5.1 12.2,-4.8 13.5,-9.6 1.3,-4.8 4.2,-26 -11.2,-26.3 -15.4,-0.3 -22.8,6.1 -24.7,13.2 -2.1,7.2 7.2,31.3 -0.5,26.8 z"
   id="path45"
   style="fill:#234826;fill-opacity:1" />
			<path
   class="st8"
   d="m 821.9,214.5 c 0,0 -12.6,-21.2 -20.7,-24.5 -8.1,-3.4 -48.1,6.3 -45.6,15.3 2.4,9 29.6,11.1 24.8,16 -4.7,5 -20.6,-7.6 -29.2,2 -8.6,9.7 -12,36.9 -5.8,39.9 6.2,3 22.8,-9 27.1,-9.1 4.3,-0.1 -13.3,4.5 -19.8,13.8 -6.5,9.3 -10.4,29.6 -2.3,31.9 8.1,2.4 20,-1 25.8,-10.4 5.8,-9.4 18.1,-22 18.8,-14.1 0.6,7.9 -27.1,33.5 -22.8,44.6 4.3,11.1 11.4,28.7 18.8,9.3 7.4,-19.4 27.3,-53.5 27.6,-38 0.3,15.5 -28.7,41.5 -22.4,51.6 6.3,10.1 22.9,29.2 27.6,23.2 4.7,-6 8.4,-49.2 14,-44 5.5,5.2 -11.6,38.1 -4.9,46.7 6.7,8.6 16.7,18.4 19.5,13.1 2.8,-5.3 5.2,-27.8 8.7,-19.9 3.5,8 0.5,19.5 11.7,21.8 11.2,2.3 15,6.5 19.6,0.5 4.7,-6 13.4,-14.7 5.4,-26.2 -8,-11.5 -26.2,-31.2 -19.3,-30.7 6.8,0.4 19.8,28.6 25.4,26.3 5.6,-2.2 19.2,-11.9 12.2,-23.4 -7.1,-11.5 -41.7,-19.5 -41.8,-27.6 -0.1,-8.1 9.6,-5.9 16.8,0.8 7.2,6.7 25.6,30.3 30.4,20.6 4.8,-9.8 4.4,-24.2 -5.8,-30.9 -10.2,-6.7 -33.9,-10.3 -36.1,-16 -2.2,-5.7 1.1,-11.5 16.4,-1.4 15.3,10.1 24.7,22.5 29.7,15.1 5,-7.4 8.3,-20.1 4.2,-28.2 -4.2,-8.1 -51.2,-9.9 -54.4,-15.9 -3.2,-6 -2.6,-16.4 12.3,-9.9 15,6.5 35.4,22.3 33.4,6 -2,-16.3 0.1,-30.2 -10.9,-39 -11,-8.8 -43.1,13.1 -48.5,9.9 -5.4,-3.2 7.8,-16.5 16.8,-18.2 9,-1.7 17.8,-1.6 14.4,-9.9 -3.4,-8.3 -18.3,-23.3 -27.2,-19.6 -8.9,3.7 -26.2,12.9 -29.1,24.7 -3.2,11.8 -6.1,30 -14.8,23.8 z"
   id="path47"
   style="fill:#32622d;fill-opacity:1" />
			<path
   class="st10"
   d="m 704.8,246.3 c 0,0 -3.2,-15.6 11.3,-28.7 14.5,-13.1 26.7,-15.4 39.4,-11.3 12.7,4.1 24.8,13.7 22.6,24.6 -2.2,10.9 -29,4.3 -37.7,11.6 -8.7,7.3 -3.6,14.2 4.8,12 8.4,-2.2 29.9,-11.4 38.4,-4.6 8.6,6.8 12.4,24.3 0.7,33.2 -11.6,8.9 -32.4,0.1 -33.6,8.9 -1.2,8.8 12.1,13.4 20.9,12.3 8.8,-1.1 13.1,-0.2 11.5,9.9 -1.6,10.1 -0.6,20 -8.7,20.1 -8.1,0 -16.7,-0.3 -13.2,3.6 3.6,3.9 15.3,-10.3 18.1,7 2.8,17.3 6.2,36 -5.5,39.1 -11.7,3.1 -26.1,2.8 -26.4,-10.1 -0.3,-12.9 -1.7,-23.1 -7.8,-26 -6.2,-2.9 -5.7,15.1 -6.2,22.8 -0.5,7.8 -13.9,5.8 -18.4,-3 -4.6,-8.8 -7.2,-20.5 -0.8,-30.2 6.4,-9.6 0.3,-16.7 -4.8,-15.5 -5.1,1.3 1.4,28.7 -7.7,30.3 -9.2,1.6 -35.2,-12.5 -26.4,-24 8.8,-11.5 18.5,-21.6 11.5,-26.7 -7.1,-5 -6.5,11.1 -19.2,17.3 -12.7,6.2 -32.9,-17.2 -25.6,-24.7 7.3,-7.5 40.2,-11.9 36.3,-24.1 -3.9,-12.2 -25,11.6 -32.8,14.1 -7.8,2.5 -17,-34.7 3.2,-46.7 20.2,-12 33.1,-3.5 39.5,0.7 6.3,4.4 11.9,15.8 16.6,8.1 z"
   id="path49"
   style="fill:#3e6d35;fill-opacity:1" />
			<path
   class="st11"
   d="m 691.2,389.9 c 0,0 -5.2,-24.1 -11.8,-29.8 -6.6,-5.7 -47.6,-9.3 -48.1,0 -0.6,9.3 24.5,19.9 18.4,23.1 -6.1,3.2 -17.1,-13.8 -28.3,-7.4 -11.3,6.4 -23.1,31.1 -18.2,35.9 4.9,4.8 24.5,-1.3 28.6,0 4.1,1.3 -14,0 -23.1,6.7 -9.1,6.7 -19.3,24.7 -12.4,29.5 6.9,4.8 19.3,5.5 27.8,-1.6 8.5,-7.1 24.2,-15.1 22.3,-7.4 -1.9,7.7 -36.3,23.1 -35.8,35 0.6,11.9 1.7,30.8 14.9,14.8 13.2,-16 42.9,-42 38.2,-27.3 -4.7,14.8 -40.4,30.2 -37.7,41.7 2.8,11.6 12.4,35 18.7,30.8 6.3,-4.2 23.7,-44 27.2,-37.2 3.6,6.7 -23.1,32.4 -19.5,42.7 3.6,10.3 9.9,22.8 14.3,18.6 4.4,-4.2 13.8,-24.7 14.6,-16 0.8,8.7 -5.8,18.6 4.1,24.4 9.9,5.8 12.1,10.9 18.4,6.7 6.3,-4.2 17.3,-9.6 13.5,-23.1 -3.9,-13.5 -14.9,-37.9 -8.5,-35.3 6.3,2.6 9.6,33.4 15.7,33.1 6.1,-0.3 22,-5.1 19,-18.3 -3,-13.2 -33.3,-31.8 -30.8,-39.5 2.5,-7.7 11,-2.6 15.7,6.1 4.7,8.7 14.6,36.9 22.3,29.2 7.7,-7.7 11.8,-21.5 4.4,-31.1 -7.4,-9.6 -28.9,-20.5 -29.2,-26.6 -0.3,-6.1 4.7,-10.6 16,3.9 11.3,14.4 16.2,29.2 23.4,23.8 7.2,-5.4 14.3,-16.4 12.9,-25.4 -1.4,-9 -45.4,-25.7 -46.5,-32.4 -1.1,-6.7 2.8,-16.4 14.9,-5.5 12.1,10.9 26.4,32.4 29.7,16.4 3.3,-16 9.7,-28.6 2.1,-40.4 -7.6,-11.9 -45,-1.3 -49.1,-6.1 -4.1,-4.8 12.7,-13.2 21.7,-11.9 9,1.3 17.3,4.2 16.8,-4.8 -0.5,-9 -9.9,-27.9 -19.5,-27.3 -9.6,0.6 -28.9,3.9 -35.5,14.1 -6.8,10.2 -15.3,26.6 -21.6,17.9 z"
   id="path51"
   style="fill:#285135;fill-opacity:1" />
		</g>
		<g
   id="g61">
			<polygon
   class="st12"
   points="665.4,738.2 699.2,738.2 727,614.5 738.6,614.5 738.6,597 665.4,597 592.2,597 592.2,614.5 603.7,614.5 631.6,738.2 "
   id="polygon55"
   style="fill:#aa4e23;fill-opacity:1" />
			<polygon
   class="st13"
   points="665.4,748.9 699.6,748.9 699.6,738.2 665.4,738.2 631.1,738.2 631.1,748.9 "
   id="polygon57"
   style="fill:#aa4e23;fill-opacity:1" />
			<polygon
   class="st13"
   points="724.2,627 727,614.5 648.3,614.5 620.3,614.5 603.7,614.5 631.6,738.2 665.4,738.2 666.5,738.2 650.1,627 "
   id="polygon59"
   style="fill:#7b3819;fill-opacity:1" />
		</g>
	</g>
	
	
</g>
<g
   id="text"
   transform="translate(-465.84074,-108.96507)">
</g>
</svg>
