<?xml version="1.0" encoding="UTF-8" standalone="no"?>
<!-- Created with Inkscape (http://www.inkscape.org/) -->

<svg
   width="122mm"
   height="210mm"
   viewBox="0 0 122 210"
   version="1.1"
   id="svg1"
   xml:space="preserve"
   inkscape:version="1.3.1 (91b66b0783, 2023-11-16)"
   sodipodi:docname="redwood.svg"
   inkscape:export-filename="..\..\paularmer-com\src\media\redwood_bg2.svg"
   inkscape:export-xdpi="100"
   inkscape:export-ydpi="100"
   xmlns:inkscape="http://www.inkscape.org/namespaces/inkscape"
   xmlns:sodipodi="http://sodipodi.sourceforge.net/DTD/sodipodi-0.dtd"
   xmlns="http://www.w3.org/2000/svg"
   xmlns:svg="http://www.w3.org/2000/svg"><sodipodi:namedview
     id="namedview1"
     pagecolor="#ffffff"
     bordercolor="#000000"
     borderopacity="0.25"
     inkscape:showpageshadow="2"
     inkscape:pageopacity="0.0"
     inkscape:pagecheckerboard="0"
     inkscape:deskcolor="#d1d1d1"
     inkscape:document-units="mm"
     inkscape:zoom="0.95119156"
     inkscape:cx="279.64924"
     inkscape:cy="444.17972"
     inkscape:current-layer="layer3" /><defs
     id="defs1" /><g
     inkscape:groupmode="layer"
     id="layer3"
     inkscape:label="WEB"><path
       d="m 0,49.00011 v 18.999874 h 27.712518 c -0.35832,-0.180059 -0.72043,-0.352888 -1.07332,-0.54312 -0.38108,-0.260945 3.30913,-5.65028 3.69022,-5.389335 2.22183,0.756389 4.4168,1.488112 6.797,1.456242 1.68445,-0.05177 3.36218,-0.236559 4.97024,-0.732255 -0.25808,-0.01961 -0.50939,-0.04018 -0.77515,-0.05788 -2.35715,-0.486894 -4.58491,-1.399446 -6.48487,-2.893881 -0.99378,-0.781623 -1.32864,-1.204025 -2.17662,-2.107881 -0.76608,-0.941418 -1.54972,-1.928307 -1.95285,-3.093868 -0.1457,-0.421258 -0.21151,-0.866132 -0.31729,-1.299146 -0.0373,-0.136986 0.64163,-0.414016 1.52032,-0.695048 -1.17205,-0.959364 -2.04574,-2.150644 -2.31097,-3.643705 z m 70.850458,0 c 0.46504,0.05827 0.92544,0.122004 1.40198,0.168465 0.0429,-0.06384 0.0803,-0.105535 0.12351,-0.168465 z m 12.67158,0 c -0.54447,0.620672 -0.38548,0.38967 -2.19832,0.650606 -0.0758,0.05516 -0.0744,0.08855 -0.0258,0.109037 0.31729,0.02127 0.18964,0.01325 0.39429,0.02687 0.30563,-0.0069 0.69602,-0.03429 0.90227,-0.0026 0.075,0.01154 0.11623,0.03828 0.13643,0.07338 0.22008,0.01439 0.5953,0.03713 1.88981,0.129191 0.20285,-0.345197 0.42099,-0.662489 0.63613,-0.986503 z m 2.67218,0 c 0.55638,0.502688 1.13168,0.982655 1.78387,1.367875 0.99247,0.588318 2.01731,1.131739 3.08457,1.564246 0.0483,1.353878 -0.38169,2.534567 -1.30741,3.554305 0.008,0.193132 0.0105,0.386115 -0.0155,0.577225 -0.18997,1.396484 -1.077,2.243642 -2.18643,2.987415 -0.41881,0.196072 -0.80308,0.493119 -1.25573,0.588078 -2.70574,0.567582 -5.4174,0.300438 -7.999,-0.5302 -0.137,7.84e-4 -0.32449,-6.29e-4 -0.46819,-5.17e-4 1.40434,0.679018 2.83559,1.297504 4.32429,1.7663 0.36061,0.113557 0.72736,0.205625 1.0945,0.296623 0.4313,0.02271 0.86181,0.04483 1.29243,0.04703 1.21906,0.0063 1.39759,-0.03624 2.62671,-0.13901 -0.18249,-0.03782 -0.72353,-0.05176 -0.54777,-0.113688 0.36868,-0.129892 0.78022,-0.05489 1.16789,-0.104903 0.4815,-0.06212 1.19138,-0.264322 1.70222,-0.221692 0.14818,0.01237 0.34908,0.02355 0.41858,0.155029 0.0992,0.187931 -5e-5,0.425143 0,0.637687 0.0517,-0.191707 1.60578,0.143479 2.92902,0.52865 -0.0399,-0.339079 -0.0568,-0.681863 0.0186,-0.986503 0.0151,-0.06107 0.0671,-0.105353 0.10852,-0.154513 0.26221,0.179429 0.51655,0.371344 0.79013,0.532784 1.66497,0.982523 3.57127,1.377796 5.4622,1.648479 0.28408,0.04365 0.57024,0.07314 0.854732,0.114721 0.051,0.759183 0.0677,1.469585 -0.0894,2.475818 -0.13384,0.856945 -0.40533,1.648501 -0.73536,2.408639 h 22.7521 V 49.00011 Z m -31.86058,3.846277 c -0.36933,0.24167 -0.73943,0.482255 -1.10898,0.72347 -0.75706,0.432378 -1.53897,0.832286 -2.33888,1.191658 0.16184,-0.03205 0.32361,-0.06431 0.48576,-0.09457 0.97778,-0.247114 1.57899,-0.357347 2.50063,-0.744657 0.41967,-0.176369 0.81866,-0.393735 1.20871,-0.626318 -0.25528,-0.147301 -0.5027,-0.296287 -0.74724,-0.449585 z m 8.64081,6.293672 -0.0935,1.773536 c 0.0623,-0.0038 0.15548,-0.01936 0.2098,-0.02067 0.16575,-0.004 0.32353,-0.0048 0.4868,-0.0083 -0.0724,-0.168948 -0.15398,-0.33509 -0.21498,-0.507463 -0.095,-0.268626 -0.12803,-0.554908 -0.19223,-0.832507 -0.0199,-0.02603 0.007,-0.08295 0.0553,-0.152962 -0.0851,-0.07977 -0.16614,-0.169809 -0.25115,-0.251665 z m -5.59811,0.710551 c -0.0962,0.05854 -0.18787,0.123473 -0.28525,0.180351 -0.2643,0.154381 -0.5364,0.295116 -0.80977,0.433049 -0.16071,0.212773 -0.32554,0.422454 -0.49506,0.628385 0.55046,-0.214813 1.11778,-0.377425 1.6955,-0.503845 z m 0.7829,8.034135 c -0.0149,0.01029 -0.0298,0.01992 -0.0444,0.02946 -0.0144,0.0094 -0.0291,0.01926 -0.0434,0.02842 -0.006,0.0042 -0.0131,0.0087 -0.0196,0.01292 -0.0224,0.01439 -0.0451,0.02866 -0.0682,0.04444 h 0.1695 5.2e-4 c 10e-4,-0.01929 0.002,-0.03858 0.003,-0.05788 3.9e-4,-0.0065 6.8e-4,-0.01266 10e-4,-0.01912 1.7e-4,-0.0031 3.7e-4,-0.0062 5.2e-4,-0.0093 2.4e-4,-0.0048 3.3e-4,-0.0097 5.2e-4,-0.01447 1.8e-4,-0.0048 9e-4,-0.0096 10e-4,-0.01447 z"
       id="path106"
       inkscape:label="bg3" /></g></svg>
