<?xml version="1.0" encoding="UTF-8" standalone="no"?>
<!-- Created with Inkscape (http://www.inkscape.org/) -->

<svg
   width="122mm"
   height="210mm"
   viewBox="0 0 122 210"
   version="1.1"
   id="svg1"
   xml:space="preserve"
   inkscape:version="1.3.1 (91b66b0783, 2023-11-16)"
   sodipodi:docname="redwood.svg"
   inkscape:export-filename="..\..\paularmer-com\src\media\redwood_greenery.svg"
   inkscape:export-xdpi="100"
   inkscape:export-ydpi="100"
   xmlns:inkscape="http://www.inkscape.org/namespaces/inkscape"
   xmlns:sodipodi="http://sodipodi.sourceforge.net/DTD/sodipodi-0.dtd"
   xmlns="http://www.w3.org/2000/svg"
   xmlns:svg="http://www.w3.org/2000/svg"><sodipodi:namedview
     id="namedview1"
     pagecolor="#ffffff"
     bordercolor="#000000"
     borderopacity="0.25"
     inkscape:showpageshadow="2"
     inkscape:pageopacity="0.0"
     inkscape:pagecheckerboard="0"
     inkscape:deskcolor="#d1d1d1"
     inkscape:document-units="mm"
     inkscape:zoom="0.95119156"
     inkscape:cx="279.64924"
     inkscape:cy="444.17972"
     inkscape:current-layer="layer3" /><defs
     id="defs1" /><g
     inkscape:groupmode="layer"
     id="layer3"
     inkscape:label="WEB"><path
       d="m 0,0 v 25.000024 h 45.267518 c 0.80471,-1.826409 1.84325,-3.814505 2.10375,-3.693831 0.32523,-0.04719 0.7002,0.03765 0.97565,-0.141593 0.18969,-0.12344 -0.89261,0.01595 -0.67696,-0.05271 0.48704,-0.155074 1.0157,-0.122084 1.51825,-0.214974 1.42963,-0.264215 1.87443,-0.427321 3.11248,-0.813387 -0.0807,-0.02823 -0.16137,-0.05668 -0.24237,-0.08372 -0.40186,-0.24995 3.07048,-5.847816 3.56929,-5.782076 h 5.2e-4 c 0.008,0.0012 0.0152,0.0044 0.0212,0.0083 0.29681,0.137554 0.58615,0.292135 0.89038,0.412378 0.25634,0.101313 0.75072,0.245433 1.19993,0.381889 -0.007,-0.234098 0.002,-0.468497 0.0346,-0.701249 0.0263,-0.189958 0.10763,-0.368299 0.16123,-0.552421 -0.0692,-0.279146 3.37627,-1.170006 4.29173,-1.174606 v -5.17e-4 c 0.13073,-6.7e-4 0.20963,0.01696 0.21963,0.05685 1.32317,0.824627 2.40971,1.966824 3.44681,3.116605 0.42643,0.494392 0.80786,1.024209 1.1281,1.589567 0.86261,0.135784 1.67778,0.560695 2.43758,0.98392 0.67064,0.345568 1.56885,1.32889 2.36626,1.28881 0.13597,-0.0068 0.26048,-0.0796 0.39068,-0.119373 0.28678,0.139068 -1.11665,3.216313 -1.9973,4.666899 0.006,0.0058 0.0126,0.01177 0.0186,0.01757 0.29652,0.27873 0.58077,0.552188 0.87798,0.807702 H 121.99977 V 0 Z"
       id="path100"
       inkscape:label="bg1" /></g></svg>
