<?xml version="1.0" encoding="UTF-8" standalone="no"?>
<!-- Created with Inkscape (http://www.inkscape.org/) -->

<svg
   width="122mm"
   height="210mm"
   viewBox="0 0 122 210"
   version="1.1"
   id="svg1"
   xml:space="preserve"
   inkscape:version="1.3.1 (91b66b0783, 2023-11-16)"
   sodipodi:docname="redwood.svg"
   inkscape:export-filename="..\..\paularmer-com\src\media\redwood_bg5.svg"
   inkscape:export-xdpi="100"
   inkscape:export-ydpi="100"
   xmlns:inkscape="http://www.inkscape.org/namespaces/inkscape"
   xmlns:sodipodi="http://sodipodi.sourceforge.net/DTD/sodipodi-0.dtd"
   xmlns="http://www.w3.org/2000/svg"
   xmlns:svg="http://www.w3.org/2000/svg"><sodipodi:namedview
     id="namedview1"
     pagecolor="#ffffff"
     bordercolor="#000000"
     borderopacity="0.25"
     inkscape:showpageshadow="2"
     inkscape:pageopacity="0.0"
     inkscape:pagecheckerboard="0"
     inkscape:deskcolor="#d1d1d1"
     inkscape:document-units="mm"
     inkscape:zoom="0.95119156"
     inkscape:cx="279.64924"
     inkscape:cy="444.17972"
     inkscape:current-layer="layer3" /><defs
     id="defs1" /><g
     inkscape:groupmode="layer"
     id="layer3"
     inkscape:label="WEB"><path
       d="M 0,100.0001 V 110 h 21.283968 c 0.61786,-1.2949 3.86456,-5.3239 4.41421,-5.36246 0.0205,-0.001 0.0374,0.002 0.0501,0.0124 0.44096,0.006 0.88195,0.011 1.32292,0.017 0.80654,0.0765 1.60966,0.17829 2.4138,0.27079 -0.24708,-0.35796 -0.39919,-0.63025 -0.33899,-0.67955 0.21864,-0.16936 0.39431,-0.41788 0.65577,-0.50798 0.24094,-0.0831 0.49574,-0.10729 0.75189,-0.12609 -0.59577,-0.15111 -1.18619,-0.32351 -1.76268,-0.54364 -0.61075,-0.23311 -1.17845,-0.56568 -1.76785,-0.84852 -0.47705,-0.40322 -1.03101,-0.73035 -1.43144,-1.20975 -0.26224,-0.31394 -0.46134,-0.66706 -0.65164,-1.02216 z m 51.443888,0 c 0.14584,0.25705 0.23347,0.45278 0.18087,0.49248 -0.0753,0.11347 -0.15085,0.2268 -0.22583,0.34054 l 1.66295,-0.7705 0.0863,-0.0625 z m 4.69119,0 -1.64745,0.89866 -2.31097,1.76991 -1.6154,0.46354 c 0.27519,0.75506 0.58744,1.83959 0.7462,2.63033 0.1864,-0.0119 0.37627,0.003 0.56173,0.0212 l 4.29017,-2.81998 0.93431,-1.22939 0.0739,-1.73426 z m 8.65063,0 0.12661,0.60307 8.01501,5.1139 -0.2098,0.7338 c 0.43181,-0.5497 0.81499,-0.98976 0.90537,-0.92604 0.10229,-0.008 0.20389,-0.009 0.30592,-0.0145 -0.0712,-0.3992 -0.16716,-0.81215 -0.0553,-1.19579 0.0572,-0.19611 0.13771,-0.38285 0.22841,-0.56534 -0.29394,-0.134 -0.58723,-0.27026 -0.88212,-0.40204 -1.46696,-0.81177 -3.614,-1.84688 -4.68085,-3.34709 z m 26.26507,0 c 0.7079,0.44422 1.46189,0.82179 2.34559,1.06505 0.85551,0.1785 1.51708,0.2604 2.24792,0.27751 0.13361,0.0878 0.2717,0.16747 0.40411,0.25734 1.05794,0.71814 1.78529,1.31265 2.77761,2.09032 1.188652,0.78422 2.500462,2.37921 3.922762,2.74195 -0.22728,-0.0228 -0.45434,-0.0459 -0.68161,-0.0687 0.0985,-0.0276 0.27317,0.31937 0.47025,0.84025 0.77702,0.21908 1.54967,0.45503 2.31201,0.72708 0.35531,0.12683 0.70175,0.27701 1.05006,0.42221 -1.0677,-0.0472 -2.10557,-0.0252 -2.11356,0.12609 -0.0938,0.55042 -0.20793,0.9721 -0.14108,1.52083 h 18.35495 v -9.99991 z m -26.04028,2.71715 0.73794,4.47518 4.91702,2.80241 0.0129,0.005 h 0.64078 c -0.15097,-0.20803 -0.25049,-0.4496 -0.37568,-0.67438 -0.0312,-0.022 -0.0214,-0.0934 0.0202,-0.20206 0.0416,-0.10865 0.1149,-0.25458 0.21136,-0.4253 0.1929,-0.34144 0.4777,-0.7824 0.78289,-1.22472 l -4.09535,-3.33003 z m -7.62175,1.13171 -3.56929,2.59571 c 0.34594,0.45597 0.78594,1.13305 1.18235,1.80195 0.19821,0.33446 0.38555,0.66662 0.54467,0.96842 0.15912,0.30179 0.29013,0.57308 0.37569,0.78496 h 0.97617 z m 45.360542,2.58331 c 0.1492,0.015 0.29831,0.03 0.44751,0.045 -0.14045,-0.0124 -0.28417,-0.004 -0.42116,-0.0372 -0.009,-0.002 -0.0174,-0.006 -0.0263,-0.008 z m -37.295922,2.18591 -0.0486,1.38183 h 2.9471 l -0.68626,-0.44752 z"
       id="path102"
       inkscape:label="bg6" /></g></svg>
