<?xml version="1.0" encoding="UTF-8" standalone="no"?>
<!-- Created with Inkscape (http://www.inkscape.org/) -->

<svg
   width="122mm"
   height="210mm"
   viewBox="0 0 122 210"
   version="1.1"
   id="svg1"
   xml:space="preserve"
   inkscape:version="1.3.1 (91b66b0783, 2023-11-16)"
   sodipodi:docname="redwood.svg"
   inkscape:export-filename="..\..\paularmer-com\src\media\redwood_bg7.svg"
   inkscape:export-xdpi="100"
   inkscape:export-ydpi="100"
   xmlns:inkscape="http://www.inkscape.org/namespaces/inkscape"
   xmlns:sodipodi="http://sodipodi.sourceforge.net/DTD/sodipodi-0.dtd"
   xmlns="http://www.w3.org/2000/svg"
   xmlns:svg="http://www.w3.org/2000/svg"><sodipodi:namedview
     id="namedview1"
     pagecolor="#ffffff"
     bordercolor="#000000"
     borderopacity="0.25"
     inkscape:showpageshadow="2"
     inkscape:pageopacity="0.0"
     inkscape:pagecheckerboard="0"
     inkscape:deskcolor="#d1d1d1"
     inkscape:document-units="mm"
     inkscape:zoom="0.95119156"
     inkscape:cx="279.64924"
     inkscape:cy="444.17972"
     inkscape:current-layer="layer3" /><defs
     id="defs1" /><g
     inkscape:groupmode="layer"
     id="layer3"
     inkscape:label="WEB"><path
       d="m 0,118.99998 v 4.00027 h 24.195938 c -0.15683,-0.0945 -0.32512,-0.16961 -0.47387,-0.2775 -0.43186,-0.31326 -0.7734,-0.73528 -1.16014,-1.10278 -0.27438,-0.56256 -0.67659,-1.07926 -0.8232,-1.68775 -0.0799,-0.33181 -0.12119,-0.63612 -0.1447,-0.93224 z m 26.313638,0 c 0.0973,0.20156 0.23676,0.45369 0.25012,0.55087 0.03,-0.16687 0.0432,-0.34065 0.077,-0.55087 z m 29.93926,0 c 0.0966,0.17114 0.18477,0.33467 0.18242,0.40307 l 0.18448,-0.40307 z m 9.67383,0 0.10387,4.00027 h 9.59734 c 0.0245,-0.12146 0.0553,-0.25571 0.10387,-0.42169 -0.90301,-0.0336 -1.82167,-0.19414 -2.54661,-0.33383 -1.62615,-0.34389 -2.99211,-1.24526 -4.30361,-2.21744 -0.36841,-0.26969 -0.77335,-0.47846 -1.17823,-0.68574 -0.25729,-0.13172 -0.41174,-0.21394 -0.56327,-0.34158 z m 38.752152,0 c 0.0247,0.104 0.0334,0.14506 0.10077,0.43511 0.13159,0.2368 0.22701,0.49788 0.39481,0.71055 0.19891,0.25209 0.4594,0.4489 0.6935,0.6687 0.82928,0.77859 1.72001,1.47136 2.76675,1.93786 0.19513,0.0866 0.39432,0.165 0.59118,0.24805 h 12.7739 v -4.00027 z m -48.293172,0.51056 c -0.46029,0.26419 -0.85801,0.45062 -1.40198,0.48472 -0.063,-0.0247 -0.0841,-0.0317 -0.10077,-0.0367 0.0337,0.009 0.0795,0.013 0.007,-0.0558 -0.0383,-0.0362 -0.0368,0.0987 -0.0548,0.14832 -0.0865,0.23775 -0.20394,0.45752 -0.31574,0.68419 -0.58434,0.95597 -1.28187,1.65348 -2.16731,2.21434 0.007,0.0198 0.009,0.0312 0.016,0.0506 h 1.7353 l 1.12189,-0.95808 z"
       id="path101"
       inkscape:label="bg8" /></g></svg>
