<?xml version="1.0" encoding="UTF-8" standalone="no"?>
<!-- Created with Inkscape (http://www.inkscape.org/) -->

<svg
   width="122mm"
   height="210mm"
   viewBox="0 0 122 210"
   version="1.1"
   id="svg1"
   xml:space="preserve"
   inkscape:version="1.3.1 (91b66b0783, 2023-11-16)"
   sodipodi:docname="redwood.svg"
   inkscape:export-filename="..\..\paularmer-com\src\media\redwood_bg6.svg"
   inkscape:export-xdpi="100"
   inkscape:export-ydpi="100"
   xmlns:inkscape="http://www.inkscape.org/namespaces/inkscape"
   xmlns:sodipodi="http://sodipodi.sourceforge.net/DTD/sodipodi-0.dtd"
   xmlns="http://www.w3.org/2000/svg"
   xmlns:svg="http://www.w3.org/2000/svg"><sodipodi:namedview
     id="namedview1"
     pagecolor="#ffffff"
     bordercolor="#000000"
     borderopacity="0.25"
     inkscape:showpageshadow="2"
     inkscape:pageopacity="0.0"
     inkscape:pagecheckerboard="0"
     inkscape:deskcolor="#d1d1d1"
     inkscape:document-units="mm"
     inkscape:zoom="0.95119156"
     inkscape:cx="279.64924"
     inkscape:cy="444.17972"
     inkscape:current-layer="layer3" /><defs
     id="defs1" /><g
     inkscape:groupmode="layer"
     id="layer3"
     inkscape:label="WEB"><path
       d="m 0,110.99994 v 7.00009 h 21.633308 c 0.11414,-0.63352 0.39571,-1.22732 0.88883,-1.85415 0.29719,-0.37778 0.76959,-0.57558 1.15445,-0.86351 0.01,-0.006 0.0217,-0.008 0.0362,-0.006 v -5.1e-4 h 5.1e-4 c 0.26788,0.043 1.2972,1.4969 2.04691,2.72438 h 0.92087 c -0.0428,-0.24408 -0.0915,-0.48753 -0.13746,-0.73123 -0.006,-0.17223 -0.0116,-0.34452 -0.0176,-0.51677 0.24223,-0.012 0.48433,-0.0489 0.72657,-0.0362 2.01949,0.1061 3.95576,0.7268 5.89267,1.28416 h 6.59856 c 2.36725,-0.74223 4.82858,-1.66876 7.3303,-1.5937 0.0369,-0.0302 0.13119,0.0261 0.25735,0.13229 l 4.10776,-0.69143 3.88452,-1.67224 1.32756,-1.08159 0.16692,-2.09342 h -2.44688 c -0.39184,0.11814 -0.77525,0.26199 -1.16995,0.37052 -0.591,0.12586 -0.78829,0.17505 -1.04542,0.19275 -0.0566,0.064 -0.1059,0.13524 -0.1695,0.19224 -1.87508,1.67962 -4.608,2.57173 -7.01456,3.09076 -0.92836,0.20028 -1.87369,0.31074 -2.81068,0.46613 -1.84212,0.0781 -3.68299,0.22129 -5.52679,0.23409 -3.68826,0.0255 -8.54307,-0.72824 -11.87886,-2.36213 -0.73856,-0.36174 -1.40009,-0.86344 -2.10013,-1.29501 -0.28872,-0.29643 -0.57735,-0.59295 -0.8661,-0.88935 z m 65.370168,0 -0.0646,1.84692 3.29489,2.70474 0.01,0.003 c 0.41223,-0.46923 0.7709,-0.83662 0.85008,-0.77463 0.0673,-0.0482 0.13424,-0.096 0.20154,-0.14418 0.11533,-0.019 0.22934,-0.0567 0.34623,-0.0568 0.42011,-5.8e-4 0.49304,0.0826 0.8785,0.24753 0.0494,0.0211 0.0984,0.043 0.1478,0.0641 0.75053,-1.05506 1.81869,-2.33596 2.10478,-2.41071 l -0.11369,-0.0754 -1.96681,-0.63923 -1.17357,-0.76533 z m 38.606952,0 c 0.34205,0.65934 0.87339,1.23016 1.37407,1.76423 0.51287,0.46989 0.66692,0.63758 1.23869,1.0511 0.68547,0.49576 1.44476,0.86306 2.22002,1.19424 -0.0321,0.0416 -0.0483,0.0928 -0.0832,0.13282 -0.47818,0.54704 -1.41092,0.3471 -2.11098,0.54105 -0.43378,0.12018 -0.62561,0.18425 -0.82218,0.24805 0.5676,0.32325 1.12625,0.66295 1.69034,0.9927 -1.31379,0.3342 -2.94344,0.87513 -2.88664,1.06971 1.1e-4,0.004 -1.2e-4,0.002 0,0.006 h 17.40255 v -7.00009 z m -47.321662,4.98678 -0.004,0.008 -2.54299,0.21652 c 0.22635,0.24242 0.48002,0.53533 0.73432,0.84491 0.2543,0.30958 0.50923,0.63584 0.73897,0.94413 h 1.22628 l -0.15658,-1.95699 z m -4.65243,0.40928 -3.71554,1.18648 c 0.12031,0.14194 0.23714,0.28094 0.35399,0.41755 h 0.80098 c 0.30225,-0.16746 0.59969,-0.3437 0.91623,-0.48524 0.16208,-0.0544 0.31336,-0.12549 0.45733,-0.20774 0.14397,-0.0822 0.28085,-0.17545 0.41341,-0.27544 0.26512,-0.19996 0.51392,-0.42547 0.7736,-0.63561 z m 13.89269,1.41748 0.005,0.18655 h 5.2e-4 0.78341 z"
       id="path104"
       inkscape:label="bg7" /></g></svg>
