<?xml version="1.0" encoding="UTF-8" standalone="no"?>
<!-- Created with Inkscape (http://www.inkscape.org/) -->

<svg
   width="122mm"
   height="210mm"
   viewBox="0 0 122 210"
   version="1.1"
   id="svg1"
   xml:space="preserve"
   inkscape:version="1.3.1 (91b66b0783, 2023-11-16)"
   sodipodi:docname="redwood.svg"
   inkscape:export-filename="..\..\paularmer-com\src\media\redwood_outline.svg"
   inkscape:export-xdpi="100"
   inkscape:export-ydpi="100"
   xmlns:inkscape="http://www.inkscape.org/namespaces/inkscape"
   xmlns:sodipodi="http://sodipodi.sourceforge.net/DTD/sodipodi-0.dtd"
   xmlns="http://www.w3.org/2000/svg"
   xmlns:svg="http://www.w3.org/2000/svg"><sodipodi:namedview
     id="namedview1"
     pagecolor="#ffffff"
     bordercolor="#000000"
     borderopacity="0.25"
     inkscape:showpageshadow="2"
     inkscape:pageopacity="0.0"
     inkscape:pagecheckerboard="0"
     inkscape:deskcolor="#d1d1d1"
     inkscape:document-units="mm"
     inkscape:zoom="0.95119156"
     inkscape:cx="279.64924"
     inkscape:cy="444.17972"
     inkscape:current-layer="layer3" /><defs
     id="defs1" /><g
     inkscape:groupmode="layer"
     id="layer3"
     inkscape:label="WEB"><path
       id="path192"
       d="m 58.691798,52.045919 -1.40147,7.203694 0.34417,2.409673 0.88521,1.278474 2.85203,0.09819 1.42575,-0.541053 0.54105,-10.276892 -1.72082,0.295073 z m -0.68833,4.917529 1.08158,0.04909 -0.29507,0.93431 -1.0573,0.245463 z m 3.07681,14.212569 -3.12952,0.13901 0.077,4.751648 -0.24547,5.1139 -0.51366,6.07043 -2.0929,1.60042 -4.03179,2.31097 -4.03231,2.65565 -6.04821,1.27848 0.88521,1.13068 6.19549,-1.37666 0.0987,-0.24598 2.65514,-1.22939 -2.45877,3.34399 -5.85132,3.589445 v 1.52446 l 1.0325,-0.24598 6.44146,-4.425575 0.88522,-0.93431 1.37666,-2.1637 2.50786,-1.9668 2.16369,-1.18029 0.59014,1.27847 -0.68833,4.91753 -0.78703,0.73743 -3.04839,2.212775 -4.03231,1.86862 -4.86792,1.32757 -0.34417,0.39326 2.36007,0.73794 5.99911,-1.72135 2.31097,-1.76991 2.70475,-1.475365 -0.0987,2.310965 -0.93431,1.22939 -7.03162,4.62245 -2.65513,2.11409 -3.19619,3.98322 0.19689,1.17977 1.62264,-1.67173 1.67173,-1.47485 0.44235,-0.9834 1.96732,-2.06551 4.42506,-2.06499 3.78633,-2.75384 -0.73743,9.24441 -1.32756,1.08159 -3.88452,1.67225 -9.93273,1.67172 -3.49126,2.26188 0.8847,1.42575 1.37718,-0.93431 2.90112,-1.52394 2.9993,-0.49196 5.85183,-1.86862 4.62194,-0.39325 0.004,-0.008 -0.004,0.0568 0.19689,2.45876 -1.62264,3.54035 -2.36058,2.0159 -3.63853,1.67174 -3.93413,1.22938 -2.75332,1.62264 -0.13694,0.27388 0.92345,-0.32298 0.39378,0.54106 2.65513,-0.78704 2.36007,-1.32756 1.91771,-0.24598 0.83612,-0.54054 1.42576,-0.39326 3.63905,-1.81952 0.29507,-0.44235 0.14728,4.08088 -2.75384,0.0987 -3.58944,-0.54106 -0.49145,0.83561 0.63924,0.88522 -0.88521,0.54105 -5.06481,1.0325 -1.37666,0.54105 -1.32757,0.34416 -0.55604,-0.85524 -0.0832,0.16691 -2.0655,2.31097 0.14779,0.63924 2.40916,-0.93431 -0.0491,1.0325 2.1146,-1.22887 2.9993,-1.62264 3.63854,-0.59014 2.26188,-0.68833 1.72134,-0.29508 2.16369,-0.34468 -0.0496,2.45877 -4.67103,2.55695 h -1.52445 l -2.21279,2.75383 -1.37666,2.50786 0.24598,0.63924 1.8681,-0.83613 1.77044,-3.14709 4.86792,-2.06499 1.52445,-0.93431 -0.24598,8.80153 -6.39237,6.04821 -2.85202,2.01641 -2.65514,1.81901 0.59015,0.88522 2.9502,-1.18029 0.0982,2.21279 2.70474,-2.45825 1.27848,-0.78703 3.9827,0.0982 0.14779,10.17871 -0.9834,10.81794 -0.24598,7.1298 -2.26188,5.75365 -0.73742,3.39256 -2.1146,4.52376 -2.0159,3.098 -3.88503,1.1312 -2.80241,0.58962 -4.67155,-0.29507 -0.44235,0.34468 0.8847,0.49145 5.2126,0.9834 1.13068,0.59014 0.1478,0.63924 -3.98322,0.68833 -3.1471,1.08211 -5.9986,0.29455 -0.24598,0.34468 3.04839,1.08159 3.44217,-0.34416 3.04891,-0.59015 2.70423,0.14728 -4.0318,2.60656 5.75314,-0.19689 5.85132,-1.27847 3.0484,-1.72083 5.1635,1.22887 2.90112,-0.39326 -0.0982,-0.9834 5.1139,1.37666 2.60605,-0.63924 4.32686,0.83612 2.80293,1.32757 7.1298,1.32757 1.57355,-0.14728 -0.9834,-0.49196 -5.163,-1.72082 -2.01589,-0.93431 -0.29508,-0.78652 4.37596,1.0325 3.73724,0.73742 5.35988,0.73742 0.24598,-0.39326 -4.32738,-1.76991 -6.83473,-2.1146 -2.0655,-1.42576 -0.54054,-0.88521 1.81901,0.24598 3.73724,-0.24598 3.34398,-0.78704 -1.52445,-0.44235 -6.34328,-0.78651 -1.47537,-0.78703 -1.27847,-1.67174 -2.55695,-5.65495 -0.59015,-3.44217 -0.9834,-3.78633 -0.83561,-9.78493 -0.63923,-18.73477 8.55555,2.50785 0.98392,-0.88521 -2.90164,-0.78652 -4.72012,-2.26188 -1.77044,-1.18029 -1.32756,-3.93361 -0.63924,-3.63905 -0.19689,-6.78563 1.77044,0.78703 3.39307,3.19619 2.21227,1.47484 2.70474,1.37666 3.73724,1.42627 5.65444,-0.0982 0.19689,-1.47537 -4.47467,0.0491 -4.42557,-1.08159 -2.16369,-0.88522 -2.21278,-1.72082 -3.83543,-3.83543 -2.85202,-4.37648 -0.54054,-1.72082 3.0484,-0.34417 2.31148,-1.37717 5.40846,0.63923 h 3.39307 v -0.93431 h 0.78704 l 3.73672,0.49196 -0.59015,-1.0821 -4.22868,-0.8847 -3.73724,0.49144 -0.78651,0.54105 -4.08141,-1.32756 -3.49126,1.72082 -2.11408,-0.54105 -0.19689,-7.57215 4.57285,1.08159 0.14779,-1.18029 2.85203,0.68885 4.9661,1.52394 0.39378,-0.78652 -1.37718,-0.88522 -3.93361,-1.08159 -4.91701,-1.62264 -3.29489,-2.70474 0.14779,-4.22868 2.21279,0.93431 3.39255,2.21278 1.96681,0.63924 3.98322,2.65514 0.14728,-1.13068 -3.83543,-2.85203 -2.65513,-1.0821 -4.91702,-2.80241 -0.73794,-4.47518 2.85203,1.42627 4.47466,3.63853 0.59014,-2.06499 -8.01501,-5.1139 -0.63924,-3.048905 1.27848,-0.0491 3.49126,1.67173 5.01571,1.475365 2.11408,-0.19689 3.73724,2.80293 0.0982,-1.18029 -2.60604,-2.360055 0.73742,-0.49196 2.01641,0.49196 0.39326,-0.49196 -0.24598,-0.39326 -2.60604,-0.59015 -4.37648,-0.19637 -9.1953,-5.2126 -0.64544,-7.92406 0.27802,-4.76354 -0.0548,-0.93844 4.6023,2.02158 4.72013,0.93431 2.45876,1.96681 5.31079,1.62264 0.78652,-0.44235 -5.1139,-3.04891 -4.32687,-0.83561 -0.78703,-0.93431 -6.21926,-3.442168 -1.60145,-3.130041 -0.0873,0.894519 -0.20929,-3.568775 -1.5999,0.521416 z m -3.91294,73.658033 -0.12299,3.90933 -5.63014,0.41755 5.63014,-4.30258 z"
       inkscape:label="bark" /></g></svg>
