<?xml version="1.0" encoding="UTF-8" standalone="no"?>
<!-- Created with Inkscape (http://www.inkscape.org/) -->

<svg
   width="122mm"
   height="210mm"
   viewBox="0 0 122 210"
   version="1.1"
   id="svg1"
   xml:space="preserve"
   inkscape:version="1.3.1 (91b66b0783, 2023-11-16)"
   sodipodi:docname="redwood.svg"
   inkscape:export-filename="..\..\paularmer-com\src\media\redwood_bark.svg"
   inkscape:export-xdpi="100"
   inkscape:export-ydpi="100"
   xmlns:inkscape="http://www.inkscape.org/namespaces/inkscape"
   xmlns:sodipodi="http://sodipodi.sourceforge.net/DTD/sodipodi-0.dtd"
   xmlns="http://www.w3.org/2000/svg"
   xmlns:svg="http://www.w3.org/2000/svg"><sodipodi:namedview
     id="namedview1"
     pagecolor="#ffffff"
     bordercolor="#000000"
     borderopacity="0.25"
     inkscape:showpageshadow="2"
     inkscape:pageopacity="0.0"
     inkscape:pagecheckerboard="0"
     inkscape:deskcolor="#d1d1d1"
     inkscape:document-units="mm"
     inkscape:zoom="0.95119156"
     inkscape:cx="279.64924"
     inkscape:cy="444.17972"
     inkscape:current-layer="layer3" /><defs
     id="defs1" /><g
     inkscape:groupmode="layer"
     id="layer3"
     inkscape:label="WEB"><path
       id="path191"
       inkscape:label="greenery"
       d="m 62.227208,12.591479 v 5.17e-4 c -0.91546,0.0046 -4.3609,0.89546 -4.29173,1.174606 -0.0536,0.184125 -0.13493,0.362463 -0.16123,0.552421 -0.0322,0.232755 -0.0412,0.467151 -0.0346,0.701249 -0.44921,-0.136456 -0.94359,-0.280576 -1.19993,-0.381889 -0.30423,-0.120243 -0.59357,-0.274824 -0.89038,-0.412378 -0.006,-0.0039 -0.0135,-0.0071 -0.0212,-0.0083 h -5.2e-4 c -0.49883,-0.06574 -3.97115,5.532126 -3.56929,5.782076 0.081,0.02704 0.16168,0.05549 0.24237,0.08372 -1.23805,0.386069 -1.68285,0.549172 -3.11248,0.813387 -0.50257,0.09289 -1.03121,0.0599 -1.51825,0.214974 -0.21565,0.06866 0.86665,-0.07073 0.67696,0.05271 -0.27545,0.179246 -0.65042,0.0944 -0.97565,0.141593 -0.46085,-0.21348 -3.47979,6.303953 -3.01894,6.517432 0.24541,0.09835 0.48496,0.218199 0.72502,0.336413 -0.53163,0.870505 -0.88264,1.570693 -0.74982,1.661398 0.28387,0.141084 0.55648,0.312625 0.83457,0.469222 -0.0567,0.03625 -0.11449,0.06992 -0.17053,0.107487 -0.33439,0.224163 -0.62149,0.511979 -0.93224,0.767911 -0.41651,0.562597 -0.50917,0.645004 -0.56172,0.762228 -0.82485,-0.352407 -2.50753,-0.841008 -3.52124,-1.027328 0.89044,0.241778 2.46411,0.884583 3.41116,1.373043 -0.0288,0.10195 -0.0519,0.189121 -0.11317,0.377755 -0.10708,0.329599 -0.50339,0.679948 -0.33693,0.983919 0.22174,0.40492 0.41724,0.762036 0.59532,1.080037 -0.35523,0.450167 -0.8149,0.815782 -1.34876,1.12758 -0.46984,0.269134 -1.48338,0.922517 -2.06861,0.981852 -1.92007,0.194678 -3.42334,-0.158828 -5.10356,-0.962215 -0.26324,-0.140384 -0.44064,-0.234229 -0.62787,-0.334863 0.033,0.245075 0.10292,0.518937 0.20516,0.810286 0.74922,0.329683 1.49425,0.66889 2.22518,1.037663 0.2857,0.144137 0.65943,0.349949 1.00356,0.488342 0.0876,-0.06673 0.1516,-0.164769 0.24701,-0.220141 0.34299,-0.199043 0.4085,-0.153044 0.76946,-0.146244 0.0697,0.08524 0.13959,0.170558 0.20929,0.255798 0.0378,-0.08295 0.3754,-0.0015 0.84233,0.162781 -0.0433,-0.0013 -0.0825,-4.15e-4 -0.10852,0.0062 -0.10888,0.02772 0.009,0.10573 -0.13694,0.08733 -0.11714,-0.01474 -0.22944,-0.05588 -0.34417,-0.08372 -0.45171,-0.0056 -0.90327,-0.01098 -1.35495,-0.01654 -0.21186,0.115329 -0.42377,0.230902 -0.63562,0.346232 -0.12563,0.0904 0.5052,1.084289 1.15031,1.960087 -0.0769,0.06557 -0.17102,0.147596 -0.29352,0.251664 -0.11409,0.03454 -0.006,0.648635 0.18965,1.406633 -0.18066,-0.0016 -0.36122,-0.0036 -0.54157,-0.01395 -0.0723,-0.0042 -0.13649,-0.08072 -0.20722,-0.06511 -0.0456,0.01008 0.0712,0.0602 0.10956,0.08682 0.15573,0.107973 0.31631,0.202883 0.49971,0.254765 0.0741,0.0215 0.14982,0.04094 0.22582,0.05943 0.15676,0.566979 0.3486,1.17449 0.53072,1.670182 -0.8239,0.08013 -1.6563,0.05485 -2.48409,0.08423 -0.0211,-0.0012 -0.0419,-0.0044 -0.063,-0.0057 -1.04103,0.990933 -2.17327,2.224164 -2.02572,2.371948 0.10731,0.26674 0.17062,0.556005 0.32195,0.800468 0.0421,0.06809 0.0865,0.133063 0.13177,0.197404 -1.5561,-0.789761 -4.76217,-1.975667 -4.88187,-1.674316 -0.15171,0.672739 -0.40572,1.330633 -0.45527,2.018481 -0.1552,2.154361 0.89204,3.752628 2.39727,4.984709 -0.8787,0.281034 -1.55757,0.558061 -1.52032,0.695048 0.10578,0.433017 0.17159,0.877885 0.31729,1.299146 0.40313,1.165574 1.18674,2.152442 1.95285,3.093868 0.84798,0.903865 1.18284,1.32625 2.17662,2.107881 1.9,1.494447 4.1277,2.406984 6.48487,2.893881 0.26576,0.0177 0.51707,0.03827 0.77515,0.05788 -1.60807,0.495699 -3.28578,0.680483 -4.97024,0.732255 -2.38021,0.03187 -4.57515,-0.699848 -6.797,-1.456242 -0.38109,-0.260949 -4.07131,5.128386 -3.69022,5.389335 2.50908,1.352573 5.15173,2.481191 7.98039,2.914034 0.0399,0.118192 0.0744,0.238975 0.0863,0.370004 0.0205,0.226404 -0.0227,0.454041 -0.0341,0.681095 0.10874,-0.320889 -4.42948,-1.858774 -4.53823,-1.537891 -0.1067,0.459435 -0.30967,0.906657 -0.31987,1.378211 -0.0102,0.471709 0.0752,0.93772 0.23564,1.37666 0.01,0.0943 0.0196,0.188538 0.03,0.28267 -1.3625,0.09188 -0.69462,-0.03304 -2.15594,0.454236 -1.18729,0.864522 -1.79354,1.057738 -2.22157,2.777608 -0.0669,0.268782 -0.0919,0.529983 -0.0971,0.787032 0.50517,0.286091 0.99314,0.5767 1.45004,0.851111 1.07044,0.774587 1.46789,1.001119 2.39882,1.896521 0.26381,0.25376 0.53806,0.50568 0.74104,0.81029 0.0323,0.0485 0.60024,1.06197 0.10439,1.23507 -0.54423,0.18998 -1.12136,0.25246 -1.69757,0.31832 0.007,0.0168 0.0161,0.0328 0.0227,0.0496 0.22447,0.2594 0.43199,0.5357 0.6563,0.7953 -0.22078,-0.22473 -0.44006,-0.45196 -0.65681,-0.68109 -0.0448,-0.0503 -0.0911,-0.099 -0.13591,-0.14935 -0.19895,0.0234 -0.39895,0.0426 -0.59531,0.076 0.27231,-0.16145 2.55538,3.69 2.28306,3.85144 -0.90313,0.17174 -1.8033,0.35996 -2.70939,0.51522 -0.38824,0.0665 -0.77813,0.15065 -1.17203,0.14986 -1.96379,-0.004 -3.53571,-0.99732 -4.98522,-2.17816 0.35948,0.65537 0.76728,1.28544 1.20613,1.89032 0.15011,0.18721 0.30276,0.37223 0.4501,0.56172 -0.0852,0.21156 0.14818,0.70444 0.19792,0.83199 -0.22046,-0.30002 -4.73719,-0.0213 -4.71754,0.30541 0.0662,0.31697 0.113,0.63866 0.19895,0.95085 0.18804,0.68306 0.51076,1.3141 0.94878,1.86862 0.16401,0.17009 0.31544,0.35297 0.49196,0.51004 0.92626,0.82427 2.11151,1.2341 3.31504,1.44281 0.2673,0.42318 0.60959,0.80021 1.00563,1.11879 0.35259,0.26437 0.69546,0.48011 1.0511,0.66715 -0.24158,0.21299 -0.46901,0.43651 -0.6227,0.71468 -1.03994,1.882 -0.56925,4.09081 0.75757,5.679239 0.40043,0.4794 0.95439,0.80653 1.43144,1.20975 0.58941,0.28284 1.1571,0.61538 1.76785,0.84852 0.57649,0.22013 1.1669,0.39253 1.76268,0.54364 -0.25615,0.0188 -0.51095,0.043 -0.75189,0.12609 -0.26146,0.0901 -0.43713,0.33862 -0.65577,0.50798 -0.0602,0.0493 0.0919,0.32159 0.33899,0.67955 -0.80417,-0.0925 -1.60725,-0.19431 -2.4138,-0.27079 -0.44097,-0.006 -0.88196,-0.0113 -1.32292,-0.017 -0.0127,-0.0101 -0.0296,-0.0138 -0.0501,-0.0124 -0.63571,0.0446 -4.89436,5.44294 -4.50102,5.75468 0.48607,0.49907 0.97224,0.99801 1.45831,1.49707 0.70005,0.43157 1.36157,0.93327 2.10013,1.29501 3.33584,1.6339 8.19057,2.38765 11.87886,2.36213 1.84382,-0.0128 3.68463,-0.15598 5.52679,-0.23409 0.937,-0.15539 1.88229,-0.26585 2.81068,-0.46613 2.40658,-0.51906 5.13944,-1.41112 7.01456,-3.09076 0.0636,-0.057 0.1129,-0.12825 0.1695,-0.19224 0.25713,-0.0177 0.45442,-0.0669 1.04542,-0.19275 0.95279,-0.26198 1.90229,-0.53843 2.82411,-0.89452 0.32361,-0.19603 -2.44883,-4.77251 -2.77244,-4.57647 -0.57262,0.16709 -1.14908,0.0779 -1.73012,-0.015 -0.0466,-0.006 -0.11733,-0.0114 -0.19327,-0.016 -0.002,-0.009 -0.004,-0.0211 -0.006,-0.0305 0.21479,-0.0257 0.75756,-0.0344 0.56638,-0.0532 -0.19208,-0.0189 -0.38948,-0.0346 -0.58291,-0.0222 -0.26166,-1.30308 -0.95523,-3.53699 -1.17822,-3.4742 -0.0866,-0.0558 -0.17488,-0.10636 -0.26407,-0.15452 0.51997,-0.31097 1.0126,-0.66154 1.41593,-1.12293 0.13643,-0.15606 0.22901,-0.34561 0.34365,-0.51831 0.26346,-0.19886 -2.54877,-3.924729 -2.81223,-3.725869 -0.20352,0.006 -0.3997,0.0487 -0.59996,0.0713 0.11687,-0.10668 0.23314,-0.20978 0.3514,-0.31781 0.64133,-0.58719 1.46826,-0.53671 2.27169,-0.65836 0.30307,-0.0459 0.60219,-0.11472 0.90331,-0.17208 0.11879,-0.0798 -0.14968,-0.65567 -0.58653,-1.40405 0.18667,-0.73289 0.0851,-1.57277 -0.23048,-2.25309 0.4335,0.007 0.86889,9.6e-4 1.30793,-0.0253 2.74012,-0.16712 5.37033,-0.9805 7.80728,-2.22519 0.35422,-0.21228 0.71554,-0.4135 1.07073,-0.62425 0.537,1.74614 1.63571,3.35618 2.66186,4.80022 1.25007,1.59796 2.64725,3.08522 4.20387,4.3801 7.1e-4,0.12851 -0.003,0.25507 -0.0155,0.37827 0.0705,0.2197 0.1158,0.44961 0.21187,0.65939 0.84565,1.846499 3.38712,3.051279 5.04983,3.971339 0.29489,0.13179 0.58817,0.26804 0.88211,0.40204 -0.0907,0.1825 -0.17122,0.36923 -0.22841,0.56534 -0.11189,0.38365 -0.0159,0.79658 0.0553,1.19579 -0.10203,0.005 -0.20364,0.007 -0.30593,0.0145 -0.26874,-0.18947 -2.94816,3.61134 -2.67942,3.8008 0.12933,0.23219 0.22835,0.48418 0.38809,0.6966 0.71529,0.95122 1.64344,1.74751 2.67012,2.43861 -0.25929,-0.0149 -0.51854,-0.0295 -0.77876,-0.0279 -0.16896,-0.13182 -1.38166,1.32353 -2.1885,2.45773 -0.0494,-0.0211 -0.0984,-0.043 -0.1478,-0.0641 -0.38547,-0.16497 -0.4584,-0.24811 -0.87849,-0.24753 -0.11689,1.6e-4 -0.23091,0.0378 -0.34624,0.0568 -0.0673,0.0482 -0.13427,0.096 -0.20154,0.14418 -0.24395,-0.191 -2.94561,3.25943 -2.70164,3.45043 0.008,0.0886 0.0165,0.17702 0.0248,0.26562 0.0483,0.10075 0.0784,0.21273 0.14521,0.30231 0.24822,0.33295 0.40165,0.35218 0.77463,0.54312 0.40488,0.20728 0.80981,0.41604 1.17822,0.68574 1.31155,0.97218 2.67745,1.87354 4.30361,2.21744 0.72495,0.13969 1.6436,0.30027 2.54662,0.33383 -0.11799,0.40273 -0.1826,0.71318 -0.10801,0.74311 h 5.2e-4 c 0.13974,0.15745 0.26057,0.33379 0.4191,0.47232 0.59174,0.51712 1.30017,0.96308 2.05672,1.36477 -0.26965,-0.004 -0.5577,0.003 -0.89194,0.03 -0.43043,0.035 -0.85789,0.21798 -1.20613,0.47335 -1.65118,1.21088 -1.69717,2.42783 -1.2485,4.24419 0.16943,0.35088 0.30214,0.72213 0.5085,1.05265 1.20549,1.93079 3.32953,2.97815 5.30148,3.9858 0.62005,0.64384 1.2681,1.25152 1.87327,1.83555 -0.19529,0.11498 -0.38193,0.23957 -0.53175,0.40669 -0.19529,0.21785 -0.35144,0.4522 -0.47904,0.69608 -0.0846,-0.0267 -0.16785,-0.056 -0.25269,-0.0822 -0.82824,0.22172 -1.76789,0.19447 -2.48461,0.66507 -0.89378,0.58686 -0.55169,2.3616 -0.33589,3.22151 0.15805,1.50981 0.41286,2.98278 1.01802,4.39043 0.21929,0.51008 0.49055,0.99589 0.73587,1.49397 0.45334,0.78411 0.96231,1.53432 1.52032,2.2443 -0.61407,0.37703 -1.04051,0.83473 -1.28571,1.38131 -1.38976,-0.76258 -2.82184,-1.43633 -4.29482,-2.02571 -0.86144,-0.28011 -1.91866,-0.67881 -2.80293,-0.40411 -2.11026,0.65557 -1.9723,2.94573 -1.30535,4.49998 0.14776,0.24617 0.27471,0.5061 0.44338,0.73846 1.24652,1.71711 3.16401,2.83086 5.04259,3.7176 0.006,0.002 0.006,0.003 0.0119,0.005 0.61276,0.37457 1.25704,0.69875 1.88515,1.01337 0.74868,0.7443 1.50925,1.47631 2.31821,2.15904 0.50203,0.42373 1.02601,0.82096 1.53892,1.23145 2.63426,1.94374 5.61099,3.54437 8.94209,3.75326 0.52666,0.033 1.05525,-0.0199 1.58285,-0.0294 0.94356,-0.14762 1.91711,-0.16522 2.83083,-0.44287 0.42099,-0.12793 0.75821,-0.45624 1.08779,-0.74776 0.69995,-0.61912 1.19717,-1.41488 1.40664,-2.30322 0.73978,0.0492 1.482262,0.0559 2.227252,0.0134 0.90988,-0.0519 1.8296,-0.04 2.72697,-0.19895 0.6557,-0.1162 1.24803,-0.67703 1.74097,-1.06557 1.035,-1.18497 1.39466,-2.31675 0.76378,-3.78685 -0.0316,-0.39053 -0.10945,-0.85745 -0.22634,-1.45004 -0.0875,-0.44352 -1.12904,-1.0139 -1.52652,-1.22008 -0.67422,-0.30989 -1.3066,-0.69309 -1.92598,-1.09813 0.46353,-0.29977 0.89384,-0.64435 1.24643,-1.07332 0.38953,-0.47393 0.50568,-0.80983 0.71572,-1.32653 0.40586,-0.14396 0.81298,-0.29675 1.17874,-0.43098 1.2336,-0.62162 2.56534,-1.35365 3.25975,-2.61431 0.12051,-0.21877 0.22432,-0.44905 0.30489,-0.68523 -0.92881,-0.20008 -1.83004,-0.54236 -2.65307,-0.98754 -0.69805,-0.37758 -1.39272,-0.7887 -1.97869,-1.32395 -0.49879,-0.45561 -0.82169,-1.0729 -1.23248,-1.6092 -0.50905,-1.5182 -0.53944,-1.62987 -0.5302,-2.25206 -1.0318,-0.46532 -2.02363,-1.01226 -2.97398,-1.65726 -0.0264,-0.0148 -0.0532,-0.0281 -0.0796,-0.0429 -0.009,-0.04 -0.0162,-0.0802 -0.0269,-0.11989 -0.0559,-0.20781 -0.131682,-0.4126 -0.217562,-0.61546 1.495702,-0.0263 2.116802,0.0816 3.405482,-0.50436 0.89615,-0.40746 0.92249,-0.54856 1.6309,-1.22629 0.0568,-0.10646 0.0926,-0.16518 0.14418,-0.25734 0.85969,0.17761 1.7236,0.3225 2.60243,0.32091 0.82744,-0.002 1.65394,-0.0518 2.48098,-0.0775 1.20435,-0.26141 2.54525,-0.82157 3.01842,-2.08463 0.17831,-0.4759 0.22911,-0.9905 0.34365,-1.48569 0.009,-0.30595 -4.31763,-0.43669 -4.32687,-0.13074 0.11078,-0.39093 0.22083,-0.78284 0.33228,-1.17358 0.0368,-0.12912 0.12805,-0.25316 0.11266,-0.38654 -0.0394,-0.34107 -0.99733,-0.24523 -1.1064,-0.29507 0.25977,-0.003 0.52096,0.0179 0.77929,-0.009 0.24802,-0.0264 -0.49887,0.008 -0.74828,0.006 -1.05044,-0.009 -2.06453,-0.13664 -3.03547,-0.56947 -1.75258,-0.74662 -3.50539,-1.50148 -5.31699,-2.09031 -1.306892,-0.80552 -2.644092,-1.56351 -4.037482,-2.20245 0.32193,0.0364 0.7159,0.0654 1.05988,0.0873 2.12138,0.93668 4.302372,1.79213 6.588232,2.20917 0.42869,0.0782 0.86364,0.11563 1.29553,0.17363 1.38816,0.0278 3.47851,-0.0181 4.61057,-0.82062 0.3592,-0.25465 0.59179,-0.58945 0.73432,-0.96067 0.38108,0.0933 0.76393,0.17647 1.15342,0.21394 1.03342,0.0994 3.20761,-0.30034 3.99924,-0.41341 0.13732,-0.15175 0.27455,-0.30354 0.41186,-0.45527 -1.06946,-0.64023 -2.07229,-1.40063 -3.12849,-2.06292 -1.33822,-0.7457 -2.79249,-1.25043 -4.19044,-1.87069 -1.04677,-0.4665 -1.93747,-1.15926 -2.76676,-1.93786 -0.2341,-0.2198 -0.49459,-0.41661 -0.6935,-0.6687 -0.1678,-0.21267 -0.26321,-0.47375 -0.3948,-0.71055 -0.21783,-0.93766 -0.15512,-0.45739 -0.18242,-1.44125 -0.0568,-0.19458 1.57285,-0.73551 2.88664,-1.06971 -0.5641,-0.32976 -1.12273,-0.66945 -1.69033,-0.9927 0.19657,-0.0638 0.38839,-0.12787 0.82217,-0.24805 0.70007,-0.19395 1.63279,0.006 2.11098,-0.54105 0.0349,-0.04 0.0511,-0.0912 0.0832,-0.13281 -0.77527,-0.33119 -1.53454,-0.69847 -2.22002,-1.19424 -0.57178,-0.41354 -0.72581,-0.5812 -1.23868,-1.0511 -0.72909,-0.77771 -1.55346,-1.61879 -1.70584,-2.72541 -0.0784,-0.56966 0.0449,-0.99518 0.14108,-1.5596 0.008,-0.15126 1.04584,-0.17329 2.11356,-0.12609 -0.34832,-0.14519 -0.69474,-0.29538 -1.05006,-0.4222 -0.76235,-0.27208 -1.53498,-0.50799 -2.31201,-0.72708 -0.19709,-0.5209 -0.37172,-0.86784 -0.47025,-0.84026 0.22728,0.0228 0.45433,0.0459 0.68161,0.0687 -1.42249,-0.36252 -2.73449,-1.95763 -3.923282,-2.74195 -0.99232,-0.77768 -1.71964,-1.37215 -2.7776,-2.09032 -0.13242,-0.0899 -0.2705,-0.16955 -0.40411,-0.25734 -0.73086,-0.0171 -1.3924,-0.099 -2.24793,-0.27751 -2.02158,-0.5565 -3.4248,-1.732349 -4.93458,-3.099549 -0.39442,-0.35717 -0.8236,-0.66873 -1.25522,-0.97823 -0.2383,-0.21093 2.07199,-2.91224 3.17758,-3.87574 -0.0385,-0.0251 -0.0781,-0.0488 -0.11627,-0.0744 -0.0138,-0.12186 -0.0366,-0.26048 -0.0641,-0.40618 2.20326,0.10775 4.40694,10e-4 6.60373,-0.19068 0.65936,-0.0576 1.11022,-0.0875 1.4857,-0.10956 0.23795,0.0224 0.47647,0.0416 0.71572,0.0563 0.66518,0.0411 1.332932,0.008 1.999362,0.0124 1.17108,-0.0705 2.3424,-0.1408 3.51348,-0.21135 0.46764,-0.12755 -1.33638,-6.74109 -1.80402,-6.61355 0.26544,-0.0544 0.5309,-0.10886 0.79633,-0.1633 -2.41723,-0.67724 -4.761442,-1.56964 -7.097242,-2.48512 0.68972,-0.64781 1.15495,-1.19714 1.50688,-2.4474 0.19234,-0.68333 0.14787,-1.41218 0.2217,-2.118213 0.0162,-0.135121 -0.73526,-0.294935 -1.61644,-0.4377 0.12102,-0.179051 0.23655,-0.383839 0.40101,-0.642338 0.25123,-0.183196 -1.84227,-3.144361 -2.75022,-4.045231 0.63304,-0.322985 1.10608,-0.658839 2.04328,-1.265556 2.01984,-1.63278 3.35694,-3.794353 3.7605,-6.378422 0.157142,-1.006252 0.140402,-1.716622 0.0894,-2.475818 -0.284496,-0.04158 -0.570646,-0.07107 -0.854736,-0.114721 -1.89096,-0.270687 -3.7972,-0.66594 -5.4622,-1.648479 -0.27358,-0.161445 -0.52791,-0.353352 -0.79013,-0.532784 -0.0414,0.04916 -0.0934,0.09344 -0.10852,0.154513 -0.0754,0.304645 -0.0585,0.647418 -0.0186,0.986503 -1.32327,-0.385178 -2.8778,-0.72036 -2.92953,-0.52865 -5e-5,-0.212548 0.0992,-0.449753 0,-0.637687 -0.0695,-0.131479 -0.2704,-0.142663 -0.41858,-0.155029 -0.51085,-0.04263 -1.2202,0.159573 -1.70171,0.221692 -0.38768,0.05001 -0.79972,-0.02499 -1.1684,0.104903 -0.17579,0.06193 0.36527,0.07587 0.54777,0.113688 -1.22917,0.102767 -1.40712,0.145352 -2.6262,0.13901 -0.43063,-0.0022 -0.86164,-0.02432 -1.29294,-0.04703 -0.36715,-0.091 -0.73389,-0.183064 -1.09451,-0.296623 -1.48872,-0.468806 -2.91992,-1.087268 -4.32428,-1.7663 0.1437,-1.12e-4 0.33119,0.0013 0.46819,5.17e-4 2.58162,0.830655 5.29321,1.097794 7.99899,0.5302 0.45266,-0.09496 0.83741,-0.392003 1.25625,-0.588078 1.10944,-0.743788 1.99594,-1.590906 2.18592,-2.987415 0.026,-0.191116 0.0243,-0.384087 0.016,-0.577225 0.92574,-1.019757 1.35573,-2.2004 1.30741,-3.554305 -1.06728,-0.432514 -2.09209,-0.975916 -3.08457,-1.564246 -0.88364,-0.521907 -1.64331,-1.196585 -2.37659,-1.902209 -0.32564,0.478713 -0.66807,0.988635 -0.98082,1.520837 -1.29453,-0.09206 -1.66973,-0.114801 -1.88981,-0.129191 -0.0202,-0.0351 -0.0614,-0.06184 -0.13643,-0.07338 -0.20626,-0.03175 -0.59664,-0.0043 -0.90227,0.0026 -0.20466,-0.01362 -0.077,-0.0056 -0.39429,-0.02687 -0.0486,-0.02049 -0.05,-0.05388 0.0258,-0.109037 2.24496,-0.323136 1.39543,0.185097 2.70681,-1.217497 0.17197,-0.275903 0.23349,-0.542341 0.25218,-0.856795 0.0423,-0.2988 -4.18331,-0.896695 -4.22558,-0.597896 -0.0364,-0.110781 0.0344,-0.167954 0.10077,-0.270785 0.0681,-0.06791 0.13118,-0.143955 0.19275,-0.221692 l 5.2e-4,-5.16e-4 c 0.27734,-0.162817 0.54702,-0.311494 0.84078,-0.479041 0.0301,-0.01975 0.0169,-0.0962 0.005,-0.170015 0.52565,-0.06791 1.19507,0.214762 1.52136,-0.178284 0.30495,-0.367358 -0.95041,-0.09476 -1.42472,-0.149345 -0.098,-0.01128 -0.15291,-0.01963 -0.21394,-0.02842 -0.4617,-1.093293 -2.10159,-3.632145 -3.07165,-4.788855 0.28055,-0.235303 0.55259,-0.478709 0.78342,-0.761194 0.70463,-0.862383 1.16725,-2.040558 1.18442,-3.161564 0.009,-0.564999 -0.16886,-1.117131 -0.25322,-1.675867 -0.0297,-0.208831 -1.77757,-0.0444 -3.20083,0.196371 0.76983,-1.960452 1.49442,-4.294405 1.20974,-4.399732 -0.37576,-0.02757 -0.75783,-0.01029 -1.12758,-0.08268 -0.76216,-0.149247 -1.48318,-0.427554 -2.18901,-0.746724 0.008,-0.0043 0.0157,-0.0098 0.0238,-0.01395 0.27309,-0.209054 -2.2513,-3.581524 -3.13314,-4.318083 0.24794,-0.012 0.51842,-0.0431 0.72037,-0.06459 -0.68396,-0.396776 -1.20987,-0.927336 -1.78852,-1.471228 -0.006,-0.0058 -0.0124,-0.01173 -0.0186,-0.01757 0.88065,-1.450589 2.28408,-4.527831 1.9973,-4.666899 -0.1302,0.03977 -0.25471,0.112539 -0.39068,0.119373 -0.79741,0.04008 -1.69562,-0.943239 -2.36626,-1.28881 -0.7598,-0.423225 -1.57497,-0.848136 -2.43758,-0.98392 -0.32024,-0.565361 -0.70167,-1.095175 -1.1281,-1.589567 -1.03713,-1.149784 -2.12363,-2.291975 -3.44681,-3.116605 -0.01,-0.03988 -0.0889,-0.05752 -0.21963,-0.05685 z m 10.01851,13.055018 c -0.0226,-0.0029 -0.10906,0.0053 -0.21911,0.01705 0.0184,0.0107 0.0356,0.02258 0.0543,0.03307 0.14617,-0.03331 0.18746,-0.04726 0.16485,-0.05013 z m -10.99881,0.674894 c 0.11426,0.101629 0.23618,0.194965 0.35192,0.295072 -0.0979,0.172258 -0.20464,0.376383 -0.31523,0.599964 -0.0995,-0.0085 -0.19435,-0.03984 -0.29456,-0.04496 -0.12869,-0.105275 -0.19398,-0.1823 -0.32814,-0.287321 0.20044,-0.182346 0.39806,-0.368181 0.58601,-0.562755 z m -21.43073,5.318538 c 0.0231,0.01176 0.0457,0.02228 0.0677,0.02997 0.0323,0.0113 0.13539,-0.01394 0.10129,-0.01654 -0.0563,-0.0043 -0.11268,-0.0089 -0.16898,-0.01344 z m 29.37236,15.759245 c 1.32328,0.286617 2.65322,0.458846 3.98994,0.504879 -0.26868,0.324203 -0.60408,0.785481 -0.92604,1.264522 -1.52326,-0.148513 -2.99396,-0.330436 -4.37286,-0.717786 0.43213,-0.341186 0.894,-0.706356 1.04231,-0.823205 0.0899,-0.0735 0.17711,-0.153156 0.26665,-0.22841 z m -34.12608,0.192753 h 5.2e-4 c 0.005,0.0058 0.0101,0.01126 0.015,0.01705 -0.003,-0.0028 -0.007,-0.0055 -0.0103,-0.0083 -0.003,-0.0021 -0.002,-0.0048 -0.005,-0.0088 z m 19.27118,5.25446 c 0.24455,0.1533 0.49196,0.302283 0.74724,0.449585 -0.39005,0.232587 -0.78903,0.449947 -1.20871,0.626318 -0.92164,0.387313 -1.52284,0.497538 -2.50063,0.744657 -0.16215,0.03026 -0.32392,0.06252 -0.48576,0.09457 0.79993,-0.359378 1.58181,-0.759274 2.33888,-1.191658 0.36955,-0.241217 0.73965,-0.481798 1.10898,-0.72347 z m 6.79648,3.887101 c 0.10658,0.229987 0.20406,0.465132 0.34158,0.677478 0.47648,0.73575 1.11943,1.38618 1.7539,1.980758 -0.0481,0.07001 -0.0752,0.126935 -0.0553,0.152962 0.0642,0.277603 0.0972,0.563877 0.19223,0.832507 0.061,0.172375 0.14254,0.338513 0.21498,0.507463 -0.16327,0.0035 -0.32103,0.0043 -0.4868,0.0083 -0.58047,0.014 -1.66091,0.18044 -2.2412,0.305924 -0.277,0.0599 -0.54918,0.141586 -0.82269,0.216008 -0.51538,-0.591488 -0.97935,-1.074148 -1.07384,-0.998905 -0.31964,0.01955 -0.6424,0.0077 -0.9586,0.05839 -0.7607,0.121922 -1.49466,0.339627 -2.20813,0.61805 0.16952,-0.205933 0.33435,-0.415607 0.49506,-0.628385 0.27337,-0.137934 0.54547,-0.278666 0.80977,-0.433049 1.52162,-0.888788 2.90837,-1.980144 4.03903,-3.297473 z m -2.97088,11.150741 h 5.2e-4 c -0.0219,0.528573 -0.0907,1.061369 5.2e-4,1.580265 0.006,0.03442 0.0177,0.07081 0.0258,0.105937 -1.51061,0.444845 -2.98993,1.030714 -4.46122,1.552876 -0.54304,0.169504 -1.08182,0.354139 -1.62936,0.508496 -0.48139,0.135715 -0.96757,0.254961 -1.45572,0.363802 1.81755,-0.725722 3.58475,-1.569188 5.24774,-2.617411 0.71761,-0.455752 1.49898,-0.960617 2.27169,-1.493965 z m 25.49509,6.759277 c 0.80677,0.08487 1.61979,0.127432 2.43086,0.111104 -0.40138,0.63037 -0.72571,1.210762 -0.77773,1.451591 -0.16139,-0.01531 -0.32335,-0.02279 -0.48473,-0.03824 -0.31082,-0.553547 -0.70763,-1.060627 -1.1684,-1.524455 z m -21.44314,0.747241 c 0.14131,0.182755 0.28324,0.364894 0.42065,0.550354 2.06857,2.428755 4.61118,4.322334 7.40213,5.796024 -0.22877,0.31485 -0.40673,0.58537 -0.46922,0.7426 -1.05179,-0.69018 -2.06239,-1.46139 -3.23495,-1.93994 -0.0994,-0.16825 -1.55348,0.6028 -2.67942,1.31207 -0.56718,-0.532 -1.05581,-0.92231 -1.13946,-0.83975 -1.10187,0.24477 -2.17137,0.5954 -3.22616,0.99012 0.0805,-0.10656 0.15705,-0.21746 0.23151,-0.33072 1.14286,-0.92098 2.15064,-1.98523 2.73781,-3.348637 0.11943,-0.122734 -0.73746,-1.065528 -1.6092,-1.901176 0.54176,-0.317326 1.0707,-0.654858 1.56631,-1.030945 z m -30.64516,0.520382 c 0.10449,0.09217 0.21291,0.179804 0.3235,0.265617 -0.0897,-0.03748 -0.17887,-0.07602 -0.26872,-0.113172 -0.0177,-0.05058 -0.0365,-0.101366 -0.0548,-0.152445 z m -1.75079,7.513756 c 0.68454,0.57272 1.54199,0.99165 2.35282,1.3162 1.42726,0.57125 2.92247,0.94502 4.43126,1.23093 0.0678,0.29561 0.12488,0.59521 0.26355,0.86248 0.1274,0.24553 0.27457,0.46489 0.4377,0.66301 -0.67266,-0.1767 -1.34309,-0.36112 -2.01073,-0.55759 -2.17193,-0.64237 -3.89823,-1.98073 -5.4746,-3.51503 z m 9.31416,13.68547 c 0.0582,0.18112 0.11583,0.36448 0.17518,0.53381 -0.13482,-0.0408 -0.26877,-0.0848 -0.40359,-0.12557 0.0775,-0.11985 0.14701,-0.2746 0.22841,-0.40824 z m 63.619892,9.321905 c 0.009,0.002 0.0173,0.006 0.0263,0.008 0.13699,0.0332 0.2807,0.0248 0.42116,0.0372 -0.14921,-0.015 -0.2983,-0.03 -0.44751,-0.045 z m -79.036522,8.84339 v 5.1e-4 c -0.0145,-0.002 -0.0265,2.6e-4 -0.0362,0.006 -0.38487,0.28794 -0.85726,0.48574 -1.15445,0.86352 -0.9505,1.20821 -1.14558,2.28328 -0.78341,3.78633 0.14661,0.6085 0.54881,1.12518 0.8232,1.68775 0.38674,0.3675 0.72828,0.78953 1.16014,1.10278 0.70367,0.5104 1.50279,0.8647 2.34921,1.12448 -0.46951,1.41651 -0.78768,2.66255 -0.58291,2.73626 0.56488,0.25933 1.10759,0.57352 1.69447,0.77825 0.5108,0.17819 0.98363,0.31394 1.43764,0.42013 -0.27618,0.0376 -0.55186,0.0782 -0.82786,0.12351 -0.74545,0.12237 -2.61928,0.49497 -3.41633,0.90123 -0.26452,0.13482 -0.45108,0.38653 -0.67644,0.57981 1.04755,2.24908 0.73409,0.93109 0.14211,4.2137 -0.0552,-0.68366 -1.93416,-4.28618 -2.21175,-4.14342 -1.46921,3.7284 -1.73474,2.13615 -0.43047,4.824 0.23306,0.31675 0.40502,0.68933 0.69918,0.95033 0.43526,0.38618 1.02335,0.71321 1.63246,0.98702 -0.54038,0.0371 -1.08109,0.0695 -1.6216,0.1049 -0.24216,0.08 0.41964,2.31258 1.00459,3.82302 -0.35679,0.13858 -0.71736,0.26848 -1.08986,0.3576 -0.0193,-0.0137 -0.0386,-0.0271 -0.0579,-0.0408 -0.1609,0.0555 0.62407,2.33082 0.78497,2.27531 0.10929,-0.0261 0.21833,-0.052 0.32763,-0.078 0.41516,-0.10563 0.83546,-0.18856 1.26245,-0.22944 0.19465,-0.0346 0.38841,-0.0721 0.58188,-0.11111 -0.13614,0.44747 -0.27667,0.87267 -0.39429,1.34411 -0.0819,0.0257 -0.16495,0.0476 -0.24495,0.0796 -0.26915,0.10766 -0.43892,0.37902 -0.65836,0.56844 -0.0322,-0.0259 -0.10765,0.0106 -0.20567,0.0816 0.88834,1.46577 2.26532,4.45127 1.98282,4.5899 -0.32524,0.37823 -0.6504,0.75658 -0.97565,1.13481 -1.16471,0.19774 -4.43296,0.91892 -5.97483,0.71676 -0.82762,-0.10852 -1.62099,-0.4109 -2.40605,-0.69454 -2.00187,-0.72321 -3.83284,-1.82483 -5.477702,-3.16466 0.236422,1.91136 1.24788,3.70361 2.343012,5.24206 0.49276,0.69223 1.0801,1.31227 1.62005,1.96835 0.61803,0.56358 1.20067,1.16887 1.85415,1.69086 2.45909,1.96406 5.37806,3.2644 8.59276,2.92023 0.36341,-0.0389 0.64868,-0.33708 0.97307,-0.50539 0.10024,-0.0516 -0.0972,-0.59003 -0.39894,-1.25006 1.67229,1.32051 4.10843,1.66153 6.12572,1.98231 0.92716,0.0376 1.85405,0.11789 2.78174,0.11886 -0.33225,0.98976 -0.51697,1.75427 -0.36122,1.81642 l 1.20407,1.16376 c 0.74035,0.3533 1.44053,0.8074 2.22105,1.05988 2.54008,0.82164 4.04219,0.78603 6.7293,0.6258 2.47526,-0.1476 4.95757,-0.56776 7.26003,-1.50895 0.34751,0.12182 2.0704,-4.79261 1.72289,-4.91443 -0.34264,-0.29939 -0.65298,-0.64024 -1.02785,-0.89814 -1.369,-0.94188 -2.8795,-1.60557 -4.44365,-2.15387 -0.45988,-0.16121 -0.92135,-0.32378 -1.38596,-0.47439 0.25208,-0.0621 0.50048,-0.12977 0.74207,-0.20722 0.26921,-0.0863 0.51957,-0.22319 0.77928,-0.33487 0.31651,0.0923 1.62237,-4.38387 1.30586,-4.47621 -0.18913,-0.12917 -0.36407,-0.28218 -0.5674,-0.38757 -1.06715,-0.55311 -2.33882,-0.79317 -3.50005,-1.03921 -0.83092,-0.17605 -2.62215,-0.50237 -3.4246,-0.65113 -1.65191,-0.32731 -3.28686,-0.72743 -4.91856,-1.14101 0.68499,-0.32107 1.38752,-0.60817 2.04742,-0.97772 0.36252,-0.20302 0.71898,-0.44316 1.07487,-0.6811 8e-4,0.0726 0.005,0.14624 0.015,0.2217 0.014,0.10924 0.0627,0.21119 0.094,0.31677 0.0566,0.14547 2.11384,-0.65448 2.05724,-0.79995 0.0123,0.17736 0.0232,0.23809 -0.015,0.44959 -0.0225,0.12458 -0.10797,0.23339 -0.12247,0.35915 -0.002,0.018 0.0189,0.0307 0.0284,0.046 0.53046,-0.0323 1.02395,-0.31269 1.50275,-0.51521 0.30173,-0.15703 0.60182,-0.31973 0.90641,-0.47233 0.80077,-0.0223 1.57642,-0.29927 2.32388,-0.68109 0.25791,-0.15315 0.52337,-0.29403 0.7736,-0.45941 1.52884,-1.01047 2.78103,-2.37371 3.853,-3.84782 0.76435,-1.02345 1.55941,-2.06007 2.64531,-2.76418 0.48887,-0.27945 1.2141,-0.59079 1.62368,-0.95756 0.0556,-0.0498 0.0978,-0.11257 0.14676,-0.16898 0.13471,-0.0827 -1.03472,-1.988 -1.16944,-1.90531 -0.74658,-0.0741 -1.45934,0.17613 -2.13579,0.47025 -0.14522,-0.31152 -0.27773,-0.54691 -0.32763,-0.52658 -0.18972,-0.0502 -0.3831,-0.0647 -0.57671,-0.0584 -0.32267,0.0105 -0.64692,0.0785 -0.96169,0.13642 -0.12341,0.0209 -0.24573,0.0464 -0.36846,0.0698 -0.43533,-1.37286 -1.44293,-3.69671 -1.67638,-3.60237 -0.41199,-0.14302 -0.81655,-0.30989 -1.2361,-0.42891 -1.47093,-0.41727 -2.76145,-0.63912 -4.2938,-0.8444 -0.26721,-0.0358 -0.53471,-0.0674 -0.80201,-0.0992 0.57729,-0.079 1.15398,-0.16133 1.72651,-0.26872 1.83586,-0.34439 3.36113,-0.74642 5.09012,-1.41904 1.05904,-0.41198 2.12616,-0.92569 3.0422,-1.61178 0.26147,-0.19585 0.474,-0.4496 0.71106,-0.67438 0.0878,-0.0393 -0.0303,-0.45212 -0.22014,-0.9772 0.88545,-0.56086 1.58296,-1.25836 2.16731,-2.21434 0.1118,-0.22667 0.22919,-0.44641 0.31574,-0.68419 0.018,-0.0496 0.016,-0.18453 0.0543,-0.14832 0.0729,0.0688 0.0265,0.0649 -0.007,0.0558 0.0167,0.005 0.0378,0.012 0.10077,0.0367 0.56955,-0.0357 0.9768,-0.2315 1.46554,-0.51624 0.27531,-0.21929 -2.8258,-4.11259 -3.1011,-3.89331 -0.44893,0.17774 -0.85923,0.44471 -1.24644,0.72968 -0.55908,0.43719 -1.05352,0.96805 -1.74304,1.19941 -0.50759,0.22697 -0.9895,0.49997 -1.46916,0.77824 -0.78295,-0.9859 -1.67535,-2.00086 -1.81488,-1.8867 -2.56941,-0.0771 -5.0998,0.90248 -7.52564,1.65364 -0.20407,0.0616 -0.45455,0.13716 -0.69091,0.20929 -0.43443,-0.006 -0.8688,-0.0119 -1.30328,-0.017 -0.57873,0.0119 -1.95285,0.0316 -3.25458,0.0739 -2.32459,-0.60639 -4.62747,-1.48309 -7.04763,-1.61024 -0.24224,-0.0127 -0.48435,0.0242 -0.72658,0.0362 0.006,0.17224 0.0117,0.34453 0.0176,0.51677 0.065,0.34483 0.18113,0.68394 0.19482,1.03456 0.009,0.23679 -0.10664,0.86961 -0.17466,1.24747 -0.0909,-0.6614 -2.43338,-4.20819 -2.85047,-4.27519 z m 82.376882,10.57093 c 0.25675,0.11193 0.51198,0.22686 0.77101,0.33331 -0.42505,0.34876 -0.74482,0.64784 -0.76894,0.76895 -0.0434,-0.34184 -0.0555,-0.72741 -0.002,-1.10226 z m -74.787172,11.89436 c 1.35939,0.0659 2.72276,0.0856 4.07986,0.0744 -1.33419,0.38021 -1.61724,0.4011 -3.12643,0.68471 -0.55435,0.0544 -0.81523,0.0789 -1.15858,0.11317 0.0957,-0.34267 0.16848,-0.64684 0.20515,-0.8723 z m 11.61893,0.16847 c -0.007,0.0501 -0.014,0.10026 -0.0212,0.15038 -0.0184,-0.0133 -0.0407,-0.0274 -0.0594,-0.0408 0.0379,-0.044 0.0679,-0.0826 0.0806,-0.10956 z m -19.55746,13.99708 c 0.14843,0.052 0.29602,0.10646 0.4439,0.16019 -0.0335,0.0901 -0.0665,0.18039 -0.0982,0.27079 -0.11529,-0.14358 -0.23126,-0.28698 -0.34572,-0.43098 z m 3.07113,1.02526 c 0.35369,0.0957 0.7086,0.18673 1.06505,0.27027 -0.0456,0.38178 -0.0962,0.7636 -0.13177,1.14567 -0.0498,-0.21908 -0.44527,-0.79041 -0.93328,-1.41594 z" /></g></svg>
