<?xml version="1.0" encoding="UTF-8" standalone="no"?>
<!-- Created with Inkscape (http://www.inkscape.org/) -->

<svg
   width="122mm"
   height="210mm"
   viewBox="0 0 122 210"
   version="1.1"
   id="svg1"
   xml:space="preserve"
   inkscape:version="1.3.1 (91b66b0783, 2023-11-16)"
   sodipodi:docname="redwood.svg"
   inkscape:export-filename="..\..\paularmer-com\src\media\redwood_bg4.svg"
   inkscape:export-xdpi="100"
   inkscape:export-ydpi="100"
   xmlns:inkscape="http://www.inkscape.org/namespaces/inkscape"
   xmlns:sodipodi="http://sodipodi.sourceforge.net/DTD/sodipodi-0.dtd"
   xmlns="http://www.w3.org/2000/svg"
   xmlns:svg="http://www.w3.org/2000/svg"><sodipodi:namedview
     id="namedview1"
     pagecolor="#ffffff"
     bordercolor="#000000"
     borderopacity="0.25"
     inkscape:showpageshadow="2"
     inkscape:pageopacity="0.0"
     inkscape:pagecheckerboard="0"
     inkscape:deskcolor="#d1d1d1"
     inkscape:document-units="mm"
     inkscape:zoom="0.95119156"
     inkscape:cx="279.64924"
     inkscape:cy="444.17972"
     inkscape:current-layer="layer3" /><defs
     id="defs1" /><g
     inkscape:groupmode="layer"
     id="layer3"
     inkscape:label="WEB"><path
       d="m 0,85.999915 v 13.00024 h 24.543208 c -0.36671,-1.19728 -0.35705,-2.48446 0.29094,-3.65714 0.15368,-0.27816 0.38112,-0.5017 0.6227,-0.71468 -0.35564,-0.18704 -0.69852,-0.40278 -1.0511,-0.66715 -0.39604,-0.31855 -0.73833,-0.69562 -1.00563,-1.11879 -1.20348,-0.20871 -2.3888,-0.61855 -3.31504,-1.44281 -0.17652,-0.15706 -0.32795,-0.33996 -0.49196,-0.51004 -0.43801,-0.55451 -0.76074,-1.18558 -0.94878,-1.86862 -0.086,-0.31219 -0.13275,-0.63388 -0.19895,-0.95085 -0.0196,-0.3267 4.49708,-0.60542 4.71754,-0.30541 -0.0497,-0.12754 -0.28312,-0.62043 -0.19792,-0.83199 -0.14734,-0.18948 -0.3,-0.37451 -0.4501,-0.56172 -0.0861,-0.11872 -0.15307,-0.25038 -0.23668,-0.37104 z m 23.588738,0 c 0.82534,0.40216 1.71529,0.65686 2.70526,0.65888 0.3939,7.9e-4 0.78379,-0.0834 1.17203,-0.14986 0.89518,-0.1534 1.78466,-0.33896 2.67683,-0.50902 z m 9.57306,0 c 0.66774,0.37744 1.36253,0.71359 2.12804,0.94 0.66763,0.19646 1.33808,0.38089 2.01073,0.55759 -0.16313,-0.19812 -0.3103,-0.41749 -0.4377,-0.66301 -0.13417,-0.2586 -0.18974,-0.54834 -0.25477,-0.83458 z m 69.866542,0 c 0.67288,1.40077 1.88724,6.08071 1.49293,6.18826 -1.17107,0.0705 -2.34241,0.14085 -3.51348,0.21135 -0.66643,-0.004 -1.334192,0.0287 -1.999362,-0.0124 -0.23925,-0.0147 -0.47777,-0.0339 -0.71572,-0.0563 -0.37548,0.0221 -0.82634,0.052 -1.4857,0.10956 -2.19675,0.19168 -4.40048,0.29843 -6.60373,0.19068 0.0275,0.1457 0.0508,0.28432 0.0646,0.40618 0.0382,0.0256 0.0778,0.0493 0.11627,0.0744 -1.10558,0.9635 -3.41588,3.66481 -3.17758,3.87574 0.43159,0.30949 0.8608,0.62106 1.25522,0.97823 0.3998,0.36206 0.79333,0.7073 1.19165,1.03456 h 32.346352 v -13.00024 z m -45.983762,5.02295 c -0.22336,0.0753 -0.44247,0.1636 -0.66817,0.231 l -1.54461,0.84284 -2.50786,1.9668 -0.70538,1.10846 c 0.12461,0.27712 0.18396,0.47511 0.1204,0.5178 -0.17055,0.0325 -0.34125,0.0641 -0.51159,0.0977 l -0.28009,0.43977 -0.88522,0.93431 -0.46354,0.31832 c 0.37132,0.42823 0.79389,0.99609 1.17099,1.52032 h 3.75585 l 1.58491,-1.15031 0.78703,-0.73743 0.68833,-4.91753 z m -8.43876,5.46995 c -0.0133,0.0115 -0.0292,0.0154 -0.0424,0.0274 -0.11826,0.10803 -0.23454,0.21113 -0.3514,0.31781 0.0136,-0.002 0.0272,-0.003 0.0408,-0.005 l 0.18604,-0.1142 z m -9.47642,0.61754 c -0.0334,0.0548 -0.0648,0.113 -0.0956,0.17105 -0.0435,0.0822 -0.0878,0.16754 -0.13281,0.23719 0.0673,0.0203 0.13444,0.0414 0.20153,0.0625 0.0114,0.004 0.0227,0.007 0.0341,0.0109 0.0559,0.0176 0.1119,0.0352 0.16795,0.0522 -0.0593,-0.16932 -0.11698,-0.3527 -0.17518,-0.53381 z m 26.42216,0.3948 -1.27848,0.0491 h -5.2e-4 l 0.30335,1.4459 h 5.1e-4 3.47214 5.2e-4 c -0.005,-0.0194 -0.0127,-0.0381 -0.0186,-0.0574 -0.0175,-0.0568 -0.0356,-0.11324 -0.0543,-0.1695 -0.006,-0.0189 -0.012,-0.0379 -0.0181,-0.0568 0.002,-0.0189 6.8e-4,-0.0389 0.003,-0.0579 h -5.2e-4 z"
       id="path103"
       inkscape:label="bg5" /></g></svg>
