<?xml version="1.0" encoding="UTF-8" standalone="no"?>
<!-- Created with Inkscape (http://www.inkscape.org/) -->

<svg
   width="122mm"
   height="210mm"
   viewBox="0 0 122 210"
   version="1.1"
   id="svg1"
   xml:space="preserve"
   inkscape:version="1.3.1 (91b66b0783, 2023-11-16)"
   sodipodi:docname="redwood.svg"
   inkscape:export-filename="..\..\paularmer-com\src\media\redwood_bg8.svg"
   inkscape:export-xdpi="100"
   inkscape:export-ydpi="100"
   xmlns:inkscape="http://www.inkscape.org/namespaces/inkscape"
   xmlns:sodipodi="http://sodipodi.sourceforge.net/DTD/sodipodi-0.dtd"
   xmlns="http://www.w3.org/2000/svg"
   xmlns:svg="http://www.w3.org/2000/svg"><sodipodi:namedview
     id="namedview1"
     pagecolor="#ffffff"
     bordercolor="#000000"
     borderopacity="0.25"
     inkscape:showpageshadow="2"
     inkscape:pageopacity="0.0"
     inkscape:pagecheckerboard="0"
     inkscape:deskcolor="#d1d1d1"
     inkscape:document-units="mm"
     inkscape:zoom="0.95119156"
     inkscape:cx="279.64924"
     inkscape:cy="444.17972"
     inkscape:current-layer="layer3" /><defs
     id="defs1" /><g
     inkscape:groupmode="layer"
     id="layer3"
     inkscape:label="WEB"><path
       id="path107"
       d="m 0,124.00018 v 63.04266 h 52.787478 l 0.61856,-2.84685 2.26188,-5.75365 0.24598,-7.1298 0.9834,-10.81795 -0.14779,-10.17871 -3.9827,-0.0982 -1.27848,0.78702 -2.70474,2.45825 -0.0982,-2.21279 -0.14883,0.0594 c -0.23632,0.78791 -0.50014,1.54343 -0.68264,1.85209 -0.0622,0.10761 -0.11531,0.16616 -0.15348,0.15502 -0.25971,0.11169 -0.51007,0.24857 -0.77928,0.33487 -0.24159,0.0774 -0.48999,0.14512 -0.74207,0.20722 0.4646,0.15061 0.92608,0.31318 1.38596,0.47439 0.78206,0.27415 1.55067,0.57695 2.29495,0.92914 0.74427,0.3522 1.4642,0.75379 2.1487,1.22473 0.37487,0.2579 0.68521,0.59876 1.02785,0.89814 0.0434,0.0152 0.0543,0.10535 0.0398,0.25115 -0.0145,0.1458 -0.0547,0.347 -0.11369,0.58498 -0.3541,1.4277 -1.38833,4.16968 -1.64899,4.07831 -2.30246,0.94119 -4.78477,1.36134 -7.26003,1.50894 -1.34355,0.0801 -2.39102,0.12908 -3.41994,0.0553 -1.02893,-0.0738 -2.03932,-0.27027 -3.30936,-0.68109 -0.78052,-0.25248 -1.48071,-0.70658 -2.22105,-1.05988 l -1.20407,-1.16376 c -0.0779,-0.0311 -0.0709,-0.23786 -0.003,-0.56069 0.0683,-0.32261 0.19769,-0.76087 0.3638,-1.25573 -0.92769,-9.7e-4 -1.85458,-0.0813 -2.78174,-0.11886 -1.00864,-0.16039 -2.12182,-0.32608 -3.19205,-0.6165 -0.53512,-0.14521 -1.05987,-0.32147 -1.55495,-0.54415 -0.49507,-0.22268 -0.96065,-0.49153 -1.37872,-0.82166 0.15087,0.33002 0.27582,0.62962 0.35036,0.85318 0.0745,0.22356 0.0987,0.37108 0.0486,0.39688 -0.1622,0.0841 -0.31451,0.20082 -0.47181,0.30127 -0.15729,0.10045 -0.31956,0.18467 -0.50126,0.20412 -1.20551,0.12906 -2.36931,0.027 -3.48299,-0.25476 -0.74245,-0.18783 -1.46278,-0.45547 -2.15801,-0.78755 -0.34761,-0.16605 -0.68886,-0.34831 -1.02371,-0.54467 -0.66969,-0.39272 -1.31328,-0.84226 -1.92805,-1.33325 -0.65344,-0.52198 -1.23613,-1.12729 -1.85415,-1.69086 -0.53994,-0.65607 -1.1273,-1.27614 -1.62005,-1.96835 -1.095133,-1.53845 -2.10659,-3.3307 -2.343012,-5.24206 1.644862,1.33983 3.475832,2.44146 5.477702,3.16466 0.78506,0.28364 1.57844,0.58602 2.40605,0.69454 0.38547,0.0505 0.87865,0.0433 1.42007,0.001 1.62427,-0.12682 3.68123,-0.56948 4.55476,-0.71779 0.32525,-0.37823 0.65042,-0.75658 0.97565,-1.13481 0.14125,-0.0693 -0.13244,-0.85038 -0.55242,-1.79731 -0.41997,-0.94692 -0.98623,-2.05971 -1.4304,-2.79259 0.098,-0.071 0.17347,-0.10755 0.20567,-0.0816 0.21944,-0.18942 0.38921,-0.46078 0.65836,-0.56844 0.08,-0.032 0.16305,-0.0539 0.24495,-0.0796 0.11762,-0.47144 0.25815,-0.89664 0.39429,-1.34411 -0.19347,0.039 -0.38723,0.0765 -0.58188,0.11111 -0.42699,0.0409 -0.84729,0.12381 -1.26245,0.22944 -0.1093,0.026 -0.21834,0.0519 -0.32763,0.078 -0.1609,0.0555 -0.94587,-2.21981 -0.78497,-2.27531 0.0193,0.0137 0.0386,0.0271 0.0579,0.0408 0.3725,-0.0891 0.73307,-0.21902 1.08986,-0.3576 -0.26959,-0.6961 -0.51611,-1.44389 -0.72296,-2.17816 -0.0525,-0.18099 -0.1,-0.33393 -0.14159,-0.49609 -0.0551,-0.22003 -0.10581,-0.42217 -0.13488,-0.5886 -0.0113,-0.0622 -0.0235,-0.12337 -0.0305,-0.17621 -0.0266,-0.20943 -0.0294,-0.36587 0.0253,-0.38396 0.54051,-0.0354 1.08122,-0.0678 1.6216,-0.1049 -0.60911,-0.27381 -1.1972,-0.60084 -1.63246,-0.98702 -0.29416,-0.261 -0.46612,-0.63358 -0.69918,-0.95033 -1.30427,-2.68785 -1.03874,-1.0956 0.43047,-4.824 0.27759,-0.14276 2.15655,3.45976 2.21175,4.14342 0.29598,-1.64127 0.52222,-2.13245 0.54363,-2.49442 0.0107,-0.18098 -0.0298,-0.32961 -0.13849,-0.57361 -0.10867,-0.24401 -0.28537,-0.5834 -0.54725,-1.14567 0.22536,-0.19328 0.41192,-0.44499 0.67644,-0.57981 0.79705,-0.40626 2.67088,-0.77886 3.41633,-0.90123 0.276,-0.0453 0.55168,-0.0859 0.82786,-0.12351 -0.45401,-0.10619 -0.92684,-0.24194 -1.43764,-0.42013 -0.58687,-0.20473 -1.1296,-0.51892 -1.69447,-0.77825 -0.0496,-0.0179 -0.0671,-0.10738 -0.0594,-0.25063 0.0188,-0.41734 0.2703,-1.32738 0.5979,-2.33267 z m 52.494988,0 c -0.15444,0.14818 -0.3068,0.29883 -0.46561,0.44183 l 0.83561,-0.38394 0.0677,-0.0579 z m 3.97753,0 -3.55844,1.77922 -1.42575,0.39326 -0.83612,0.54053 -1.91771,0.24598 -2.36007,1.32757 -0.72553,0.21497 c 0.47671,0.10399 0.94757,0.20022 1.44952,0.34262 0.41955,0.11902 0.82411,0.28589 1.2361,0.42891 0.0482,-0.0195 0.14184,0.10581 0.24805,0.27389 0.0304,0.0468 0.052,0.0657 0.0858,0.12454 l 1.24643,-0.25373 0.88522,-0.54105 -0.63924,-0.88521 0.49145,-0.83561 3.58944,0.54105 2.75384,-0.0987 -0.12971,-3.59823 z m 9.58392,0 0.0362,1.38544 2.11408,0.54106 3.49126,-1.72083 4.08141,1.32757 0.78651,-0.54105 1.02061,-0.13436 c -0.45463,-0.26403 -0.88093,-0.54808 -1.26917,-0.85783 z m 45.455102,0 c 0.44175,0.1992 0.88917,0.38647 1.3131,0.6227 1.4e-4,8e-5 3.8e-4,-7e-5 5.2e-4,0 0.0154,0.01 0.0301,0.0208 0.0455,0.0305 1.0238,0.64567 2.00071,1.37762 3.03703,2.00247 0.0155,0.009 0.0299,0.0207 0.0455,0.03 1.2e-4,7e-5 3.9e-4,-7e-5 5.2e-4,0 -0.13731,0.15172 -0.27455,0.30352 -0.41186,0.45527 -1.1e-4,2e-5 -4.2e-4,-1e-5 -5.2e-4,0 -0.79152,0.11306 -2.96513,0.51266 -3.99872,0.41341 -0.38948,-0.0375 -0.77235,-0.12064 -1.15342,-0.21394 -0.0713,0.18572 -0.16532,0.36198 -0.28629,0.524 -0.12086,0.16193 -0.26895,0.30933 -0.44855,0.43666 -0.28294,0.2005 -0.6253,0.3541 -1.00201,0.47077 -1.13047,0.35026 -2.56682,0.37069 -3.60804,0.34985 -0.43188,-0.058 -0.86686,-0.0954 -1.29553,-0.17363 -1.7e-4,-3e-5 -3.5e-4,3e-5 -5.2e-4,0 -0.5713,-0.10423 -1.13608,-0.23622 -1.69499,-0.38964 -1.5e-4,-5e-5 -3.5e-4,5e-5 -5.1e-4,0 -0.55891,-0.15344 -1.11193,-0.32839 -1.65985,-0.51987 -1.5e-4,-4e-5 -3.6e-4,5e-5 -5.2e-4,0 -0.003,-10e-4 -0.006,-0.003 -0.009,-0.004 -1.089932,-0.3813 -2.159472,-0.82682 -3.214282,-1.29241 -0.003,-0.001 -0.006,-0.002 -0.009,-0.004 -1.7e-4,-1e-5 -3.5e-4,1e-5 -5.2e-4,0 -0.34381,-0.0219 -0.73752,-0.051 -1.05936,-0.0873 0.69655,0.31941 1.37882,0.66871 2.05052,1.03869 1.3e-4,8e-5 3.8e-4,-7e-5 5.1e-4,0 0.6717,0.36999 1.33261,0.76107 1.985932,1.16376 1.3e-4,7e-5 3.9e-4,-8e-5 5.2e-4,0 0.90564,0.29437 1.79636,0.6304 2.67994,0.98598 1.5e-4,6e-5 3.6e-4,-6e-5 5.1e-4,0 0.88358,0.35559 1.75987,0.73108 2.63602,1.10433 1.4e-4,6e-5 3.7e-4,-7e-5 5.1e-4,0 0.24259,0.10811 0.48801,0.19734 0.73588,0.27026 1.5e-4,5e-5 3.6e-4,-4e-5 5.1e-4,0 0.24787,0.0729 0.49793,0.1301 0.75086,0.17364 1.7e-4,3e-5 3.5e-4,-3e-5 5.2e-4,0 3.3e-4,6e-5 7e-4,-6e-5 0.001,0 0.50554,0.0869 1.02113,0.12106 1.54564,0.12557 3.5e-4,0 6.9e-4,0 10e-4,0 0.24958,0.002 0.99149,-0.0324 0.74672,-0.006 -0.25782,0.027 -0.51847,0.006 -0.77773,0.009 0.0549,0.0248 0.32097,0.0134 0.57878,0.0382 2.3e-4,2e-5 2.9e-4,-2e-5 5.1e-4,0 0.12884,0.0125 0.25552,0.0342 0.35244,0.0739 0.0973,0.0398 0.1648,0.0975 0.17466,0.18293 0.0154,0.13338 -0.0759,0.25743 -0.11265,0.38654 -0.11141,0.39057 -0.22155,0.7823 -0.33228,1.17306 5.3e-4,-0.0127 0.0483,-0.0198 0.0631,-0.031 0.16153,-0.12313 1.10766,-0.16202 2.09444,-0.13281 0.54535,0.0162 1.09023,0.0514 1.4981,0.10232 1.4e-4,2e-5 3.8e-4,-1e-5 5.2e-4,0 0.20197,0.0252 0.36996,0.0546 0.48731,0.0868 1.2e-4,3e-5 3.9e-4,-3e-5 5.1e-4,0 0.117,0.0322 0.18354,0.0678 0.18242,0.10594 0,8e-5 5.2e-4,-8e-5 5.2e-4,0 -0.11454,0.49517 -0.16535,1.00984 -0.34365,1.48569 -0.11834,0.31589 -0.29111,0.58738 -0.5023,0.82166 -0.21101,0.23409 -0.46041,0.43111 -0.73277,0.59635 -0.54499,0.33072 -1.18157,0.53589 -1.78387,0.66662 -0.82686,0.0257 -1.6532,0.0755 -2.48047,0.0775 -0.43957,0.001 -0.8755,-0.0347 -1.30896,-0.093 -0.43312,-0.0582 -0.86378,-0.13913 -1.29346,-0.22789 -0.0516,0.0922 -0.0874,0.15089 -0.14418,0.25734 -1.3e-4,1.3e-4 -3.9e-4,-1.2e-4 -5.2e-4,0 -0.33941,0.32472 -0.51722,0.51806 -0.71416,0.68472 -0.008,0.007 -0.022,0.0224 -0.0305,0.0294 -1.5e-4,1.2e-4 -3.7e-4,4e-4 -5.2e-4,5.2e-4 -4.5e-4,3.7e-4 -0.001,6.6e-4 -0.002,0.001 -0.20668,0.17021 -0.43696,0.30746 -0.88367,0.51057 -1.9e-4,9e-5 -3.2e-4,-9e-5 -5.1e-4,0 -1.2885,0.58587 -1.90974,0.4781 -3.404962,0.50436 0.0859,0.20285 0.16166,0.40766 0.217552,0.61546 0.0107,0.0397 0.0179,0.0799 0.0269,0.11989 0.0263,0.0147 0.0528,0.0282 0.0791,0.0429 1.3e-4,7e-5 3.8e-4,-8e-5 5.2e-4,0 0.47505,0.3224 0.96012,0.62061 1.45572,0.89606 1.3e-4,8e-5 3.9e-4,-7e-5 5.2e-4,0 0.4956,0.27544 1.00146,0.5286 1.51722,0.7612 1.4e-4,6e-5 3.8e-4,-6e-5 5.2e-4,0 -0.009,0.62217 0.0212,0.73391 0.5302,2.25206 0.41077,0.53628 0.73371,1.15361 1.23248,1.6092 0.2929,0.26751 0.61266,0.50408 0.94671,0.72089 1.2e-4,7e-5 4e-4,-8e-5 5.2e-4,0 0.33405,0.21679 0.68205,0.41434 1.03094,0.60306 1.3e-4,7e-5 3.9e-4,-7e-5 5.2e-4,0 0.41139,0.2225 0.84209,0.41932 1.28623,0.5855 1.4e-4,5e-5 3.6e-4,-6e-5 5.1e-4,0 0.44414,0.16614 0.90157,0.30203 1.36581,0.40204 1.6e-4,3e-5 3.6e-4,-4e-5 5.2e-4,0 -0.0806,0.23617 -0.18439,0.46647 -0.30489,0.68523 -0.17366,0.31527 -0.38753,0.59696 -0.62942,0.85266 -0.72533,0.76686 -1.70565,1.29543 -2.63085,1.76165 -0.36562,0.13417 -0.77252,0.28707 -1.17822,0.43098 -0.10502,0.25834 -0.18644,0.47122 -0.29042,0.67903 -1e-4,1.9e-4 -4.2e-4,3.2e-4 -5.2e-4,5.2e-4 -0.10393,0.2076 -0.2302,0.41025 -0.42478,0.64698 -0.17638,0.21459 -0.37216,0.40767 -0.58188,0.58498 -0.20948,0.17715 -0.43292,0.33852 -0.66456,0.48834 0.61924,0.40495 1.25147,0.78828 1.92547,1.09813 1.4e-4,6e-5 3.8e-4,-7e-5 5.1e-4,0 0.1988,0.10312 0.55815,0.29719 0.87902,0.5209 1.4e-4,9e-5 3.8e-4,-1e-4 5.2e-4,0 0.16037,0.11183 0.31077,0.23138 0.42684,0.35036 0.1163,0.11915 0.19826,0.23786 0.22015,0.34882 0.11688,0.59257 0.19474,1.05952 0.22634,1.45004 0.63086,1.47005 0.27119,2.60192 -0.76378,3.78685 -1e-4,7e-5 -4.2e-4,-8e-5 -5.2e-4,0 -0.19329,0.15235 -0.4129,0.33001 -0.63458,0.49816 -0.0608,0.0461 -0.11141,0.0927 -0.17415,0.13642 -2.1e-4,1.4e-4 -3.1e-4,3.8e-4 -5.2e-4,5.2e-4 -0.0586,0.0409 -0.12165,0.071 -0.1819,0.10852 -0.23939,0.14897 -0.48792,0.27553 -0.74982,0.32194 -0.89737,0.15895 -1.81709,0.14705 -2.72697,0.19895 -0.7448,0.0425 -1.487152,0.0358 -2.226742,-0.0134 -0.20946,0.88831 -0.7067,1.68413 -1.40663,2.30323 -1e-4,9e-5 -4.2e-4,-8e-5 -5.2e-4,0 -0.32958,0.29151 -0.6668,0.61983 -1.08779,0.74776 -0.4567,0.13873 -0.92814,0.21272 -1.40353,0.27027 -0.47571,0.0576 -0.95535,0.0988 -1.4273,0.1726 -0.52743,0.01 -1.05584,0.0624 -1.58233,0.0294 -0.41655,-0.0261 -0.82751,-0.074 -1.233,-0.14159 -0.81051,-0.13508 -1.59915,-0.34907 -2.36575,-0.62528 -1.5e-4,-6e-5 -3.7e-4,4e-5 -5.2e-4,0 -0.38322,-0.13811 -0.76094,-0.29219 -1.13326,-0.45941 -1.4e-4,-6e-5 -3.8e-4,7e-5 -5.2e-4,0 -0.002,-0.001 -0.004,-0.003 -0.007,-0.004 -0.73995,-0.3328 -1.45828,-0.7184 -2.15542,-1.14204 -0.002,-0.001 -0.004,-0.003 -0.007,-0.004 -1.2e-4,-7e-5 -3.9e-4,8e-5 -5.1e-4,0 -0.70144,-0.42659 -1.38122,-0.89133 -2.03967,-1.37718 -1.1e-4,-8e-5 -4.1e-4,9e-5 -5.2e-4,0 -0.5128,-0.4104 -1.03647,-0.80781 -1.53841,-1.23145 -1e-4,-8e-5 -4.2e-4,9e-5 -5.1e-4,0 -0.004,-0.004 -0.008,-0.008 -0.0124,-0.0114 -0.79963,-0.67581 -1.55223,-1.39972 -2.29288,-2.1358 -0.004,-0.004 -0.008,-0.008 -0.0124,-0.0119 -1.4e-4,-5e-5 -3.8e-4,7e-5 -5.2e-4,0 -0.62797,-0.31455 -1.272,-0.6389 -1.88464,-1.01337 -2.2e-4,-7e-5 -3.1e-4,7e-5 -5.1e-4,0 -0.006,-0.002 -0.006,-0.003 -0.0114,-0.005 -1.4e-4,-6e-5 -3.8e-4,7e-5 -5.2e-4,0 -0.46951,-0.22162 -0.94128,-0.4578 -1.40457,-0.71365 -1.2e-4,-7e-5 -3.8e-4,7e-5 -5.1e-4,0 -0.46329,-0.25586 -0.918,-0.53168 -1.35289,-0.83354 -1.1e-4,-8e-5 -4.1e-4,8e-5 -5.2e-4,0 -0.43489,-0.30188 -0.8497,-0.62997 -1.23403,-0.98961 -0.002,-0.002 -0.004,-0.004 -0.006,-0.006 -0.38018,-0.35639 -0.72982,-0.7444 -1.03869,-1.16891 -0.002,-0.002 -0.004,-0.004 -0.006,-0.006 -0.16867,-0.23236 -0.29562,-0.49229 -0.44338,-0.73846 -0.0938,-0.21861 -0.14223,-0.47149 -0.21032,-0.71262 l -2.43861,-0.71468 0.63923,18.73477 0.83561,9.78494 0.9834,3.78633 0.49661,2.89646 h 49.756142 v -63.04266 z m -5.42189,1.8464 c -0.0534,0.37467 -0.0413,0.76002 0.002,1.10174 0.0124,-0.0606 0.0985,-0.1655 0.23409,-0.29869 1.5e-4,-1.3e-4 -1.4e-4,-3.8e-4 0,-5.2e-4 0.13595,-0.13338 0.32208,-0.29506 0.53434,-0.46922 -0.12941,-0.0532 -0.25686,-0.11084 -0.38499,-0.16691 -0.12825,-0.056 -0.25717,-0.11044 -0.38551,-0.1664 z m -34.293002,0.42426 -2.31148,1.37718 -3.0484,0.34416 0.54054,1.72083 2.85202,4.37647 3.83543,3.83543 2.21278,1.72082 2.16369,0.88522 0.11576,0.0284 c -0.0304,-0.26472 -0.0387,-0.52041 -0.0248,-0.78237 0.006,-0.14479 0.0101,-0.29105 0.0357,-0.42529 0.008,-0.0435 0.0307,-0.077 0.0413,-0.11886 0.0298,-0.11171 0.0608,-0.21932 0.10956,-0.31678 0.0112,-0.023 0.0134,-0.0528 0.0258,-0.0749 0.006,-0.0113 0.0192,-0.0169 0.0258,-0.0279 0.0834,-0.13591 0.18257,-0.25847 0.31781,-0.34727 1.3e-4,-8e-5 3.9e-4,9e-5 5.2e-4,0 0.71667,-0.47033 1.656,-0.44339 2.48409,-0.66508 1.5e-4,5e-5 3.5e-4,-4e-5 5.1e-4,0 0.0847,0.0262 0.16774,0.0555 0.25218,0.0822 0.1276,-0.24388 0.28375,-0.47823 0.47904,-0.69608 10e-5,-1e-4 4.3e-4,1e-4 5.2e-4,0 0.14977,-0.16696 0.33606,-0.29177 0.53123,-0.40669 -0.60508,-0.58394 -1.25278,-1.19181 -1.87275,-1.83555 -1.3e-4,-7e-5 -3.8e-4,7e-5 -5.2e-4,0 -0.49285,-0.25184 -0.99521,-0.5062 -1.49035,-0.77618 -1.2e-4,-7e-5 -3.8e-4,7e-5 -5.1e-4,0 -0.49514,-0.26999 -0.98296,-0.55627 -1.44694,-0.87075 -1.2e-4,-8e-5 -4e-4,8e-5 -5.2e-4,0 -0.002,-0.001 -0.004,-0.003 -0.006,-0.005 -0.22979,-0.15596 -0.45377,-0.31865 -0.66973,-0.49041 -0.21597,-0.17176 -0.4241,-0.35236 -0.62218,-0.54311 -0.002,-0.002 -0.004,-0.003 -0.006,-0.005 -0.39958,-0.38553 -0.75844,-0.81271 -1.05988,-1.29553 -0.20636,-0.33052 -0.33907,-0.70177 -0.5085,-1.05265 -0.002,-0.009 -0.002,-0.0159 -0.005,-0.0248 -0.079,-0.32249 -0.14305,-0.62729 -0.18345,-0.91519 -0.008,-0.0543 -0.003,-0.1013 -0.009,-0.15451 -0.0134,-0.11697 -0.0142,-0.23208 -0.0191,-0.34416 -0.005,-0.11319 -0.0241,-0.23453 -0.0191,-0.34314 0.005,-0.11656 0.0411,-0.22244 0.0584,-0.33434 0.02,-0.13028 0.0302,-0.26623 0.0682,-0.39119 0.004,-0.0125 0.003,-0.0264 0.007,-0.0388 0.005,-0.0149 0.0166,-0.0285 0.0217,-0.0434 0.0779,-0.22842 0.18294,-0.45093 0.33228,-0.66662 z m -27.3823,1.20561 c -0.23359,0.0482 -0.44194,0.10992 -0.68523,0.15555 -0.57253,0.1074 -1.14922,0.18972 -1.72651,0.26872 0.2673,0.0318 0.5348,0.0634 0.80201,0.0992 0.20108,0.0269 0.37578,0.062 0.56948,0.0899 z m 12.43386,1.44953 -2.16369,0.34468 h -5.2e-4 l -1.72082,0.29508 h -5.2e-4 l -2.26136,0.68833 h -5.2e-4 l -1.60868,0.26096 c 0.16099,0.35485 0.28486,0.73276 0.43925,1.12655 0.1717,0.42686 0.34311,0.8278 0.46147,1.18804 0.004,0.0136 0.0138,0.0326 0.0181,0.046 0.12273,-0.0234 0.24505,-0.0489 0.36846,-0.0698 0.31477,-0.0579 0.63902,-0.12595 0.96169,-0.13642 0.19361,-0.006 0.38699,0.008 0.57671,0.0584 0.0499,-0.0203 0.18241,0.21506 0.32763,0.52658 0.6335,-0.27544 1.30008,-0.50162 1.99523,-0.46974 l 2.55695,-1.39991 h 5.2e-4 z m 0.44132,3.93412 -1.52394,0.93432 h -5.2e-4 l -0.50953,0.21601 c 0.19278,0.34244 0.34557,0.64803 0.29508,0.67903 -0.049,0.0564 -0.0911,0.11918 -0.14676,0.16898 -0.40958,0.36677 -1.13481,0.67811 -1.62368,0.95756 -1.0859,0.70411 -1.88097,1.74073 -2.64531,2.76418 -1.07197,1.47411 -2.32416,2.83735 -3.853,3.84782 -0.25023,0.16538 -0.51569,0.30626 -0.7736,0.45941 -0.74745,0.38182 -1.52312,0.65876 -2.32388,0.68109 -0.30459,0.1526 -0.60468,0.3153 -0.90641,0.47233 -0.4788,0.20252 -0.97229,0.48291 -1.50275,0.51521 -0.01,-0.0153 -0.0305,-0.028 -0.0284,-0.046 0.0145,-0.12576 0.1,-0.23457 0.12247,-0.35915 0.0382,-0.2115 0.0273,-0.27223 0.015,-0.44959 0.0566,0.14547 -2.00064,0.94542 -2.05724,0.79995 -0.0313,-0.10558 -0.08,-0.20753 -0.094,-0.31677 -0.01,-0.0755 -0.0142,-0.14908 -0.015,-0.2217 -0.15709,0.10503 -0.3166,0.19826 -0.47439,0.30076 -0.20135,0.12456 -0.39834,0.26685 -0.601,0.38034 -0.004,0.002 -0.007,0.004 -0.0108,0.006 -0.32653,0.1823 -0.6631,0.34484 -1.00304,0.50127 -0.34364,0.15811 -0.69059,0.31027 -1.03301,0.47077 1.63154,0.41354 3.26631,0.81372 4.91805,1.14101 1.6e-4,4e-5 3.5e-4,-3e-5 5.1e-4,0 0.80277,0.14882 2.59343,0.47513 3.42408,0.65113 1.3e-4,2e-5 4e-4,-3e-5 5.2e-4,0 0.58032,0.12294 1.18878,0.24481 1.78491,0.40462 1.6e-4,5e-5 3.5e-4,-4e-5 5.1e-4,0 0.29798,0.0799 0.59328,0.16933 0.88057,0.27337 1.5e-4,6e-5 3.6e-4,-5e-5 5.1e-4,0 0.28729,0.10406 0.56646,0.22305 0.83303,0.36122 1.4e-4,7e-5 3.8e-4,-7e-5 5.2e-4,0 0.20299,0.10537 0.37799,0.25857 0.56689,0.38757 1.1e-4,8e-5 4e-4,-8e-5 5.1e-4,0 0.005,0.001 0.002,0.0247 0.006,0.0284 l 1.63866,-1.1591 6.39238,-6.04821 h 5.2e-4 l 0.24598,-8.80153 z m 9.98285,2.0159 0.19689,6.78563 0.63924,3.63906 1.32756,3.93361 1.77044,1.18029 0.36845,0.17673 c 0.0413,-0.20217 0.10218,-0.39655 0.18759,-0.58033 2.2e-4,-4.9e-4 2.9e-4,-0.001 5.1e-4,-0.002 0.003,-0.006 0.008,-0.0114 0.0109,-0.0176 0.0829,-0.17417 0.18267,-0.33997 0.31109,-0.48989 0.002,-0.002 0.003,-0.005 0.005,-0.008 0.0411,-0.0481 0.10265,-0.0836 0.14882,-0.12868 0.10387,-0.10048 0.20187,-0.20471 0.33228,-0.28835 0.002,-0.002 0.004,-0.004 0.006,-0.005 0.17435,-0.11177 0.38121,-0.20168 0.60772,-0.2775 0.0217,-0.007 0.0357,-0.02 0.0579,-0.0269 0.44213,-0.13735 0.92773,-0.10655 1.41025,-0.006 1.7e-4,3e-5 3.4e-4,-4e-5 5.1e-4,0 0.48235,0.10036 0.96159,0.2703 1.39217,0.41031 1.4e-4,5e-5 3.7e-4,-5e-5 5.1e-4,0 0.73634,0.29464 1.46245,0.61038 2.17816,0.94774 1.5e-4,7e-5 3.8e-4,-6e-5 5.2e-4,0 0.71572,0.33738 1.4209,0.6968 2.11563,1.07797 7.6e-4,-0.002 0.002,-0.003 0.003,-0.005 0.0608,-0.13489 0.13242,-0.26443 0.21549,-0.3886 0.083,-0.12425 0.17763,-0.24331 0.28318,-0.35709 0.001,-0.001 0.002,-0.003 0.003,-0.004 0.21397,-0.22977 0.47392,-0.4384 0.78083,-0.62684 -0.55801,-0.70998 -1.06698,-1.46019 -1.52032,-2.2443 -0.24532,-0.49808 -0.51658,-0.98389 -0.73587,-1.49397 -0.0333,-0.0773 -0.0551,-0.15688 -0.0863,-0.23461 -0.0966,-0.24207 -0.19234,-0.48435 -0.26975,-0.73019 -0.002,-0.005 -0.002,-0.0107 -0.004,-0.016 -0.30848,-0.9681 -0.47154,-1.96687 -0.59222,-2.97966 l -1.06505,-0.4067 -2.70474,-1.37665 -2.21227,-1.47484 -3.39307,-3.19619 z m -35.9699,2.86494 c -0.0367,0.22546 -0.10945,0.52963 -0.20515,0.8723 0.34335,-0.0343 0.60423,-0.0588 1.15858,-0.11317 1.50919,-0.28361 1.79224,-0.3045 3.12643,-0.68471 -1.3571,0.0112 -2.72047,-0.009 -4.07986,-0.0744 z m 11.61893,0.16847 c -0.0127,0.0269 -0.0427,0.0656 -0.0806,0.10955 0.0187,0.0134 0.0411,0.0276 0.0594,0.0408 0.007,-0.0501 0.0141,-0.10026 0.0212,-0.15038 z m 14.24616,6.92464 -0.12299,0.0243 -5.63015,4.30258 5.63015,-0.41755 z m -33.80362,7.07244 c 0.11446,0.14396 0.23043,0.28739 0.34572,0.43098 0.0317,-0.0904 0.0647,-0.18068 0.0982,-0.27079 -0.14788,-0.0537 -0.29547,-0.10819 -0.4439,-0.16019 z m 3.07113,1.02526 c 0.24401,0.31276 0.46488,0.612 0.63097,0.86041 0.16609,0.24842 0.27741,0.44598 0.30231,0.55553 0.0356,-0.38207 0.0862,-0.76389 0.13177,-1.14567 -0.35645,-0.0835 -0.71136,-0.17457 -1.06505,-0.27027 z"
       inkscape:label="bg9" /></g></svg>
