<?xml version="1.0" encoding="UTF-8" standalone="no"?>
<!-- Created with Inkscape (http://www.inkscape.org/) -->

<svg
   width="122mm"
   height="210mm"
   viewBox="0 0 122 210"
   version="1.1"
   id="svg1"
   xml:space="preserve"
   inkscape:version="1.3.1 (91b66b0783, 2023-11-16)"
   sodipodi:docname="redwood.svg"
   inkscape:export-filename="..\..\paularmer-com\src\media\redwood_bg9.svg"
   inkscape:export-xdpi="100"
   inkscape:export-ydpi="100"
   xmlns:inkscape="http://www.inkscape.org/namespaces/inkscape"
   xmlns:sodipodi="http://sodipodi.sourceforge.net/DTD/sodipodi-0.dtd"
   xmlns="http://www.w3.org/2000/svg"
   xmlns:svg="http://www.w3.org/2000/svg"><sodipodi:namedview
     id="namedview1"
     pagecolor="#ffffff"
     bordercolor="#000000"
     borderopacity="0.25"
     inkscape:showpageshadow="2"
     inkscape:pageopacity="0.0"
     inkscape:pagecheckerboard="0"
     inkscape:deskcolor="#d1d1d1"
     inkscape:document-units="mm"
     inkscape:zoom="0.95119156"
     inkscape:cx="279.64924"
     inkscape:cy="444.17972"
     inkscape:current-layer="layer3" /><defs
     id="defs1" /><g
     inkscape:groupmode="layer"
     id="layer3"
     inkscape:label="WEB"><path
       id="rect111"
       d="m 0,25.000024 v 0.999939 h 44.850492 c 0.127549,-0.321686 0.260983,-0.645769 0.417029,-0.999939 z m 71.115556,0 c 0.28274,0.243075 0.577094,0.470089 0.910539,0.663526 -0.201375,0.02143 -0.470942,0.05252 -0.718303,0.0646 0.175237,0.0946 0.319316,0.166579 0.486275,0.271818 H 121.99927 V 48.000171 H 84.217598 c -0.03919,0.146922 -0.09737,0.289135 -0.187068,0.433048 -0.252402,0.269958 -0.378725,0.418954 -0.508496,0.566891 h 1.734778 c 0.116547,-0.175522 0.230263,-0.366132 0.344681,-0.534334 0.191988,0.184745 0.395372,0.356016 0.592729,0.534334 h 5.17e-4 35.805051 V 25.000024 Z m 1.130163,0.646473 c 0.02261,0.0029 -0.01868,0.01682 -0.164847,0.05013 -0.0187,-0.01049 -0.03586,-0.02237 -0.05426,-0.03307 0.11005,-0.01175 0.196508,-0.01995 0.219108,-0.01705 z m 1.383895,2.916101 c 0.03669,0.05269 0.06686,0.09916 0.101803,0.150378 -3.03e-4,-8.82e-4 -2.12e-4,-0.0022 -5.17e-4,-0.0031 -0.03389,-0.04923 -0.05701,-0.08847 -0.0925,-0.139009 -0.0029,-0.0032 -0.0058,-0.0053 -0.0088,-0.0083 z m 5.161959,11.367781 c -0.204341,0.250069 -0.447252,0.463553 -0.693498,0.673861 7.8e-4,0.0016 0.0018,0.0036 0.0026,0.0052 0.246797,-0.21064 0.48622,-0.42853 0.690914,-0.679029 z m -0.51418,1.115694 c -0.001,0.0065 -0.0028,0.01117 -0.0041,0.01705 0.444554,0.566065 0.951391,1.257267 1.44539,2.024165 -0.488501,-0.7583 -0.999473,-1.476675 -1.441255,-2.041219 z m 1.974556,5.860108 c -0.119231,0.01164 -0.189242,0.03515 -0.19482,0.07235 0.0053,-0.03735 0.07635,-0.06068 0.195854,-0.07235 -2.54e-4,2.4e-5 -7.81e-4,-2.5e-5 -0.001,0 z m -45.18949,0.685746 c 0.003,0.004 0.0022,0.0067 0.0052,0.0088 0.0033,0.0028 0.0073,0.0055 0.01033,0.0083 -0.0049,-0.0058 -0.01,-0.01125 -0.01499,-0.01705 z M 0,48.000171 v 0.999939 h 29.586825 c -0.05616,-0.318223 -0.07982,-0.652552 -0.07545,-0.999939 z m 69.327551,0 c 0.09345,0.229725 0.195945,0.422886 0.286804,0.47904 0.144591,0.08936 0.163069,-0.114002 0.110071,-0.47904 z m 2.024683,0 c 0.06023,0.0613 0.11955,0.107438 0.177767,0.184485 0.397048,0.52544 0.400244,0.525272 0.408244,-0.03772 7.59e-4,-0.05112 -0.02948,-0.09593 -0.03824,-0.146761 z m 1.107943,0.316776 c -0.15407,0 -0.206172,0.119067 -0.116272,0.264584 0.06425,0.103961 0.134622,0.145947 0.199987,0.189136 0.06087,-0.08607 0.115181,-0.157415 0.174667,-0.238746 -0.02764,-0.118664 -0.124753,-0.214974 -0.258382,-0.214974 z m -4.426604,0.01189 c -0.0641,0.05063 -0.09008,0.07149 -0.153995,0.121956 0.06148,0.01727 0.128329,0.02332 0.190169,0.03979 -0.01256,-0.05297 -0.02083,-0.111991 -0.03617,-0.161747 z m 2.378667,0.0052 c -0.037,0.0072 -0.04709,0.105388 -0.04909,0.298173 -9.68e-4,0.107291 0.02813,0.216783 0.06511,0.317293 0.120839,0.01674 0.245681,0.02848 0.36742,0.04393 -0.03622,-0.12232 -0.05714,-0.234791 -0.171566,-0.411861 -0.11052,-0.17101 -0.174873,-0.25473 -0.211873,-0.24753 z m 10.176123,11.334192 c 9.93e-4,0.0037 0.002,0.007 0.0031,0.01085 0.11618,0.021 0.232299,0.04144 0.348816,0.05994 -0.0088,-0.0089 -0.01706,-0.01719 -0.02584,-0.02584 -0.108417,-0.01741 -0.217954,-0.02538 -0.326078,-0.04496 z m -23.943759,1.13378 c -0.0063,0.0018 -0.01283,0.0028 -0.01912,0.0047 1.21e-4,5.13e-4 3.94e-4,0.001 5.17e-4,0.0016 0.0062,-0.0019 0.01236,-0.0043 0.0186,-0.0062 z m 36.320781,0.01757 c -0.04142,0.04916 -0.09342,0.09344 -0.108521,0.154513 -0.0754,0.30464 -0.0585,0.647424 -0.0186,0.986503 h 5.17e-4 c -0.0399,-0.339085 -0.0568,-0.681858 0.0186,-0.986503 0.01512,-0.06107 0.06712,-0.105353 0.108521,-0.154513 z M 0,67.999984 v 0.999939 H 29.902051 C 29.16016,68.695699 28.430828,68.360938 27.71252,67.999984 Z m 99.248206,0 c -0.147305,0.339286 -0.290119,0.681055 -0.473873,0.999939 h 23.225457 v -0.999939 z m -41.704432,0.288871 c -0.114,0.07625 -0.222089,0.145962 -0.33538,0.220658 0.04881,0.110941 0.116783,0.180351 0.191203,0.180351 0.114034,0 0.154078,-0.178904 0.144177,-0.401009 z m -27.41073,1.595251 c -0.106698,0.459428 -0.309677,0.906665 -0.319877,1.378211 -0.0102,0.471697 0.07522,0.93773 0.235645,1.37666 0.01,0.0943 0.02009,0.18854 0.03049,0.28267 -0.0104,-0.09413 -0.01997,-0.18837 -0.02997,-0.28267 -0.16044,-0.43894 -0.245845,-0.904953 -0.235645,-1.37666 0.0102,-0.471554 0.213177,-0.918776 0.319877,-1.378211 z m 4.486032,0.486792 c 0.0034,0.01022 0.0039,0.02178 0.0072,0.03204 l 5.17e-4,-5.17e-4 c -0.0033,-0.0101 -0.0038,-0.02146 -0.0072,-0.03152 z m -8.091496,4.073137 c -0.17674,0.185679 -0.329508,0.397798 -0.465088,0.671277 0.135579,-0.273479 0.288866,-0.485601 0.465605,-0.671277 z m 57.126745,0.199471 c 0.178079,0.01873 0.35727,0.0269 0.535885,0.04134 -0.0013,-0.0016 -0.0023,-0.0025 -0.0036,-0.0041 -0.0048,-0.0057 -0.0097,-0.0078 -0.01447,-0.01344 -0.172339,-0.01408 -0.345946,-0.0057 -0.517798,-0.02377 z m 1.415935,0.06459 c 0.01341,0.01082 0.02481,0.0267 0.03927,0.03256 0.04013,0.0014 0.08027,4.12e-4 0.120406,0.0016 0.01586,-0.0089 0.03899,-0.0089 0.04961,-0.02429 -0.06987,-0.0018 -0.139438,-0.0072 -0.209289,-0.0098 z m 0.715718,0.03307 c -0.0011,0.0031 -4.52e-4,0.0062 -0.0015,0.0093 0.04634,-1.17e-4 0.09268,0.002 0.139009,0.0015 -2.97e-4,-0.0016 -7.28e-4,-0.0031 -10e-4,-0.0047 -0.04553,4.78e-4 -0.09089,-0.0063 -0.136426,-0.0062 z M 64.36558,81.433272 c -0.08086,0.04711 -0.158268,0.09142 -0.238745,0.139527 4.75e-4,0.0021 4.86e-4,0.004 0.001,0.0062 0.08518,-0.05085 0.162507,-0.09191 0.248047,-0.141594 -0.0034,-0.0016 -0.0069,-0.0026 -0.01034,-0.0041 z m -34.550346,1.99161 c 0.17113,0.14317 0.353283,0.276646 0.542603,0.401526 0.18932,0.12489 0.385879,0.241409 0.586527,0.349849 -0.401282,-0.21689 -0.78686,-0.465015 -1.12913,-0.751375 z M 0,84.99998 v 0.999939 H 22.278227 C 22.052865,85.67469 21.843551,85.339335 21.640023,84.99998 Z m 21.999691,0 c 0.509518,0.376334 1.031679,0.727954 1.590084,0.999939 h 6.553088 c 0.01085,-0.0021 0.0217,-0.0041 0.03256,-0.0062 0.08322,-0.04934 -0.103118,-0.474981 -0.366903,-0.993737 z m 9.648506,0 c 0.481235,0.368235 0.98576,0.701579 1.513603,0.999939 h 3.445785 c -0.0022,-0.0095 -0.0061,-0.01837 -0.0083,-0.02791 C 35.360852,85.73733 34.141057,85.413684 32.95096,84.99998 Z m 70.589493,0 c 0.42669,0.133335 0.84544,0.290599 1.27641,0.411344 -0.26543,0.05444 -0.5309,0.108898 -0.79634,0.163298 0.0733,-0.02 0.18545,0.164807 0.31058,0.425297 h 18.97145 V 84.99998 Z m -65.393944,1.783353 c 0.0078,0.01648 0.01069,0.03491 0.01912,0.05116 -0.0079,-0.01521 -0.0076,-0.03368 -0.01499,-0.04909 -0.0017,-6.62e-4 -0.0025,-0.0014 -0.0041,-0.0021 z m -13.831714,0.584461 c -4.23e-4,2.83e-4 -6.12e-4,7.5e-4 -0.001,10e-4 0.0012,0.0038 0.0013,0.0076 0.0026,0.01137 -0.0015,-0.0046 -8.1e-5,-0.0078 -0.0015,-0.0124 z m 67.191248,5.263244 c 0.779512,0.03812 1.559056,0.04188 2.338358,0.03204 -0.0064,-0.008 -0.01103,-0.01182 -0.01757,-0.02015 -0.773424,0.0094 -1.547151,0.02595 -2.320788,-0.01189 z m 2.571936,0.01344 c 0.002,0.0042 0.0069,0.01087 0.0088,0.01499 0.238269,-0.0043 0.476481,-0.0034 0.714685,-0.01137 -0.241017,0.0081 -0.482387,-0.0079 -0.72347,-0.0036 z m -3.387907,1.449524 c -0.36834,0.392036 -0.753067,0.826586 -1.096057,1.237651 0.342991,-0.411065 0.728235,-0.845615 1.096574,-1.237651 z M 0,99.000159 v 0.999941 h 24.916309 c -0.172163,-0.322764 -0.322042,-0.654863 -0.426848,-0.999941 z m 50.777779,0 c 0.266691,0.375494 0.516904,0.733946 0.666109,0.999941 h 1.250053 c 0.393031,-0.241166 0.78239,-0.495846 1.213363,-0.810289 0.117887,-0.08601 0.158366,-0.104685 0.276469,-0.189652 z m 14.048238,0 c 0.08843,0.352598 0.230542,0.692312 0.397909,0.999941 h 2.854606 c -0.176098,-0.146081 -0.361598,-0.355135 -0.507979,-0.638206 -0.06254,-0.120951 -0.182167,-0.241126 -0.287838,-0.361735 z m 24.827425,0 c 0.44833,0.368348 0.914632,0.697056 1.397331,0.999941 h 30.949017 v -0.999941 z m -32.63315,0.912089 c -0.0047,0 -0.147062,0.08179 -0.162264,0.08785 h 0.173116 c -0.0058,-0.0077 -0.0048,-0.08785 -0.01085,-0.08785 z m -6.207373,4.006472 c 0.0014,0.005 0.0022,0.009 0.0036,0.0134 l 5.17e-4,-5.2e-4 c -0.0014,-0.004 -0.0027,-0.008 -0.0041,-0.0129 z m 0.19482,0.6351 c -0.0043,0.01 -0.01247,0.0209 -0.01654,0.0305 0.111564,0.41099 0.247732,0.83696 0.31626,1.17823 -0.07221,-0.35968 -0.181929,-0.78612 -0.299724,-1.20872 z m 22.615157,0.97101 c -0.004,-0.003 -0.01601,0.008 -0.02119,0.007 0.0019,8.6e-4 0.0018,6.9e-4 0.0036,0.002 0.0035,0.001 0.01467,-0.0108 0.01757,-0.009 z m -22.186242,0.3023 c -0.06033,0.004 -0.06992,0.006 -0.112655,0.0109 0.002,0.009 0.0037,0.0215 0.0057,0.0305 0.01746,10e-4 0.02776,0.002 0.04444,0.004 0.01858,-0.0126 0.04366,-0.0322 0.06253,-0.045 z m -30.042094,3.98012 c -0.03291,0.0603 -0.0858,0.1408 -0.110588,0.19275 H 0 v 0.99994 h 21.789368 c -0.197371,-0.2026 -0.394861,-0.40508 -0.592212,-0.60771 -0.067,-0.0531 0.03533,-0.28827 0.197404,-0.58498 z M 55.922168,110 c 0.100093,0.24775 0.159206,0.44211 0.103353,0.47594 -0.53994,0.20858 -1.100131,0.35698 -1.654163,0.524 h 2.127519 L 56.60223,110 Z m 9.911023,0 c -0.02006,0.36676 -0.02753,0.63394 -0.05374,0.99994 h 3.897954 C 69.103579,110.64085 68.524325,110.28178 67.993266,110 Z m 5.237923,0 c 0.148667,0.0698 0.289355,0.12856 0.387057,0.15865 -0.03824,-0.0485 -0.0895,-0.0871 -0.126608,-0.13643 -0.0051,-0.007 -0.0074,-0.0154 -0.0124,-0.0222 z m 32.574236,0 c 0.002,0.0139 -0.002,0.0246 0,0.0388 0.0479,0.34801 0.17444,0.66242 0.33487,0.96118 h 18.01957 V 110 Z m -32.040418,4.15892 c -0.195071,0.25179 -0.395963,0.48637 -0.570508,0.73174 0.172776,-0.24287 0.375262,-0.47608 0.571024,-0.72967 z m -44.104285,0.0873 c 0.353452,0.10799 0.719982,0.20136 1.085205,0.29559 0.0099,-0.0128 0.0078,-0.0171 0.01654,-0.0289 -0.364994,-0.0942 -0.748507,-0.15871 -1.101742,-0.26665 z m 2.076876,0.50281 c -0.01742,0.004 -0.03147,0.0121 -0.04754,0.0186 0.08194,0.0182 0.164267,0.0352 0.246497,0.0527 -0.0046,-0.0141 -0.01859,-0.0188 -0.02791,-0.03 -0.05792,-0.0124 -0.113278,-0.0286 -0.171049,-0.0413 z m 15.394409,0.0971 c -0.585308,0.12627 -1.179553,0.20541 -1.771985,0.29404 -3.08e-4,6.9e-4 -0.0023,0.0126 -0.0026,0.0134 0.594133,-0.0889 1.187608,-0.18084 1.774569,-0.30747 z m -14.782043,0.0512 c 0.0071,0.0107 0.03469,0.012 0.04806,0.0212 0.07675,0.0151 0.152029,0.034 0.228926,0.0486 0.0015,-4e-4 0.0027,-10e-4 0.0041,-0.002 -0.09595,-0.0182 -0.185406,-0.0492 -0.281119,-0.0682 z m 1.603519,0.25942 c -0.0042,0.009 -0.01453,0.018 -0.01809,0.0263 0.116497,0.0172 0.233022,0.0404 0.349333,0.0563 0.0067,-0.0108 0.0077,-0.0236 0.01395,-0.0351 -0.115454,-0.0158 -0.229555,-0.0305 -0.345199,-0.0475 z m 15.23938,1.25005 c -0.619916,-0.0159 -1.237466,0.0295 -1.851566,0.11782 0.610318,-0.0877 1.223922,-0.13022 1.839681,-0.11524 0.004,-8e-4 0.0079,-0.002 0.01188,-0.003 z m -6.766512,1.42627 c -0.173505,0.0556 -0.349923,0.11282 -0.522449,0.16691 0.169173,-0.053 0.346101,-0.10363 0.516248,-0.15813 0.0019,-0.003 0.0043,-0.005 0.0062,-0.009 z m -0.522449,0.16691 h -0.417545 c 0.05893,0.0316 0.113387,0.0546 0.166915,0.0765 0.01688,-0.005 0.03898,-0.0116 0.05529,-0.0165 0.06388,-0.0198 0.131316,-0.0399 0.195337,-0.06 z M 0,118.00003 v 0.99994 h 21.594031 c -0.02776,-0.34933 -0.01797,-0.68195 0.03927,-0.99994 z m 25.760185,0 c 0.246101,0.40295 0.413819,0.71072 0.553454,0.99994 h 0.326595 c 0.04271,-0.26586 0.102695,-0.56437 0.09767,-0.6966 -0.0028,-0.0715 -0.02979,-0.14019 -0.03979,-0.21084 -0.09041,-0.007 -0.196851,-0.015 -0.218075,-0.0925 z m 0.553454,0.99994 c 0.0973,0.20153 0.236244,0.45371 0.249597,0.55087 5.6e-5,-3e-4 -5.5e-5,-7.2e-4 0,-10e-4 -0.01381,-0.0976 -0.152482,-0.34866 -0.249597,-0.54984 z m 6.831625,-0.99994 c 0.02598,0.007 0.05205,0.0148 0.07803,0.0222 0.573849,0.0532 1.119844,0.0409 1.642794,-0.0222 z m 71.451966,0 c 0.0182,0.66698 0.0269,0.76915 0.0817,0.99994 h 17.32091 v -0.99994 z m -55.814161,0.16795 c 0.02016,0.0251 0.03834,0.0441 0.05839,0.0692 l 0.0677,-0.0692 z m -10.63656,0.0512 c -0.380062,-0.0275 -0.679114,-0.009 -0.877466,0.0398 0.06236,-10e-4 0.234529,-0.006 0.285254,-0.007 0.282187,0.003 0.564319,0.007 0.84646,0.0109 -0.09204,-0.0127 -0.153374,-0.0366 -0.254248,-0.0439 z M 0,123.00024 v 0.99994 h 26.026318 c -0.185001,0.56771 -0.329954,1.07359 -0.438216,1.50895 0.116269,-0.47399 0.274734,-1.03304 0.483175,-1.66191 -0.667453,-0.20485 -1.290319,-0.49438 -1.875338,-0.84698 z m 52.36838,0 c 0.09946,0.2787 0.165367,0.50125 0.198954,0.66766 0.427501,-0.20861 0.882714,-0.43016 1.203027,-0.66766 z m 14.000179,0 0.02325,0.99994 h 8.162809 c -0.04419,-0.15485 -0.146271,-0.30696 -0.291455,-0.36587 -0.257258,-0.10434 -0.250666,-0.19037 0.02842,-0.38602 0.133882,-0.0939 0.191064,-0.17393 0.194304,-0.24805 z m 42.857331,0 c 0.76659,0.32339 1.52768,0.65816 2.28565,0.99994 l 10.48618,-0.001 v 63.04266 H 72.615206 c 0.833119,2.56857 2.768785,6.85744 3.5264,7.51014 0.824638,0.71044 2.234356,1.04854 5.847188,1.40198 2.124576,0.20785 2.967212,0.40769 3.63492,0.863 l 0.869198,0.59273 -1.650545,0.16071 c -0.90771,0.0884 -2.649142,0.30259 -3.870048,0.47594 -1.220888,0.17334 -2.590129,0.23494 -3.042709,0.13694 l -0.822689,-0.17828 0.529167,0.59841 c 0.685528,0.77524 3.359474,1.97713 5.29115,2.37815 2.496104,0.51817 9.16064,3.175 7.964372,3.175 -0.12297,0 -0.0871,0.16492 0.0801,0.36639 0.2549,0.3071 0.1214,0.33237 -0.82734,0.15554 -0.622328,-0.11599 -2.202252,-0.34957 -3.51193,-0.51883 -1.309678,-0.16926 -3.095632,-0.52536 -3.96875,-0.79168 -0.873128,-0.26633 -2.182817,-0.57121 -2.910417,-0.67748 -0.727598,-0.10628 -1.590809,-0.29339 -1.918229,-0.41548 -0.358578,-0.13365 -0.595312,-0.12073 -0.595312,0.0326 0,0.31277 1.157856,0.80819 4.7625,2.03708 1.527956,0.52091 3.013017,1.10811 3.300057,1.30535 l -5.17e-4,0.002 c 0.45643,0.31373 0.464369,0.35863 0.06563,0.35863 -0.25066,0 -0.455786,-0.0963 -0.455786,-0.21394 0,-0.01 -0.04528,-0.0284 -0.05168,-0.0393 l -0.677995,0.0636 c 0.217065,0.0901 0.257826,0.15508 -0.02687,0.16588 -0.3428,0.013 -1.295339,-0.14389 -2.116667,-0.34882 -0.821368,-0.20493 -2.326894,-0.45308 -3.345532,-0.55138 -1.220248,-0.11776 -2.529082,-0.48009 -3.836458,-1.06195 -2.800894,-1.24655 -4.561341,-1.52541 -6.476607,-1.02526 -1.461788,0.38173 -1.615332,0.37083 -3.884518,-0.28009 -2.684754,-0.77011 -2.921526,-0.80196 -2.264978,-0.30386 0.41887,0.31778 0.287863,0.39136 -1.190625,0.66714 -1.369938,0.25553 -2.00109,0.23797 -3.597196,-0.10076 -2.800856,-0.59442 -3.978325,-0.52505 -5.928321,0.34984 -3.181984,1.42766 -5.448947,1.8257 -10.921297,1.9172 -1.164168,0.0195 -2.265496,0.1539 -2.447396,0.29869 -0.1819,0.14481 -0.330729,0.1932 -0.330729,0.108 0,-0.22254 3.015417,-2.2388 3.891235,-2.6019 0.71692,-0.29721 0.696093,-0.31196 -0.708483,-0.50488 -0.8318,-0.11437 -1.64751,-0.0917 -1.91823,0.0532 -0.259048,0.13872 -0.470772,0.19443 -0.470772,0.12403 0,-0.0704 -0.413145,0.0444 -0.917773,0.25528 -1.347368,0.56298 -4.186085,0.47971 -6.440951,-0.18862 -1.895306,-0.56176 -1.919756,-0.57983 -1.188558,-0.88728 1.075348,-0.45215 2.9461,-0.69023 5.373316,-0.68523 1.783086,0.004 2.393445,-0.11898 3.862813,-0.77825 0.959748,-0.43063 2.388148,-0.85845 3.173966,-0.95085 1.979396,-0.23264 1.79157,-0.62425 -0.299206,-0.62425 -1.228528,0 -2.165058,-0.18385 -3.241146,-0.63614 -0.832358,-0.34985 -2.108393,-0.7279 -2.836003,-0.84025 l -1.322916,-0.20464 1.190625,-0.31575 1.190625,-0.31626 -1.322917,-0.1328 c -0.727608,-0.073 0.224891,-0.0934 2.116667,-0.0455 1.891766,0.0479 3.657895,0.13045 3.924825,0.18345 0.26694,0.053 1.517107,-0.18986 2.778125,-0.5395 1.261018,-0.34964 2.755576,-0.76343 3.321244,-0.91984 0.454156,-0.12557 0.725738,-0.243 0.980302,-0.52452 l 0.468705,-0.72088 c 0.138589,-0.26365 0.289907,-0.57622 0.481625,-0.99116 0.496018,-1.07358 1.253231,-2.54827 1.683101,-3.27732 0.42987,-0.72906 0.781864,-1.65608 0.781864,-2.05982 0,-0.12204 0.0403,-0.31953 0.06201,-0.48317 H 0 v 22.95725 h 121.99979 v -86.99986 z m -52.529609,0.98857 c -4.81e-4,0 -0.01848,0.0113 -0.01912,0.0114 h 0.01912 c -4.69e-4,-9e-5 4.79e-4,-0.0114 0,-0.0114 z m 50.163859,2.19109 c -0.21226,0.17414 -0.39838,0.33584 -0.53433,0.46922 v 5.1e-4 c 0.13601,-0.13343 0.32195,-0.29547 0.53433,-0.46973 z m -81.431718,0.15296 c -0.0077,0.14325 0.0098,0.23273 0.05943,0.25063 h 5.17e-4 c -0.04948,-0.0178 -0.06631,-0.11 -0.05994,-0.25063 z m 70.672689,0.31884 c 0.14679,0.0673 0.286442,0.14924 0.432015,0.21911 v -5.2e-4 c -0.145484,-0.0699 -0.285299,-0.1513 -0.432015,-0.21859 z m 2.217436,0.55294 c 0.01125,0.0106 0.02499,0.0329 0.03566,0.0413 0.08669,0.0361 0.171989,0.075 0.258899,0.11059 0.0079,-0.006 0.01372,-0.0141 0.01602,-0.0269 -0.103349,-0.0423 -0.207546,-0.082 -0.310575,-0.12506 z m -23.641451,0.10232 c -0.0012,0.003 -0.004,0.006 -0.0052,0.01 -0.0051,0.0149 -0.0167,0.0285 -0.0217,0.0434 -0.004,0.0124 -0.0027,0.0263 -0.0067,0.0388 -8.54e-4,0.003 -7.24e-4,0.006 -0.0016,0.009 0.01021,-0.034 0.02352,-0.0672 0.03514,-0.10077 z m -0.09974,0.47025 c -6.39e-4,0.004 -0.0014,0.009 -0.0021,0.0129 -0.0173,0.1119 -0.05339,0.21779 -0.05839,0.33435 -0.005,0.10861 0.01412,0.22994 0.01912,0.34313 2.06e-4,0.005 8.4e-4,0.01 0.001,0.0145 -0.0116,-0.2457 0.0047,-0.47905 0.04031,-0.70487 z m 25.467704,0.12144 c 0.009,0.003 0.0255,0.0186 0.0341,0.0207 0.0701,0.0254 0.13902,0.0542 0.20929,0.0791 0.005,0.002 0.0107,0.003 0.016,0.005 -0.0879,-0.031 -0.17178,-0.0726 -0.25941,-0.10439 z m -25.490442,0.89969 c 4.86e-4,0.005 -5e-6,0.009 5.17e-4,0.0134 0.006,0.0532 7.85e-4,0.10021 0.0088,0.15451 0.01362,0.0971 0.04335,0.20757 0.06201,0.30851 0.0058,0.003 0.0097,0.004 0.0155,0.007 -0.02968,-0.16107 -0.06979,-0.3318 -0.08682,-0.48369 z m -26.220105,0.47491 c 0.02523,-0.0102 0.08759,0.1006 0.129191,0.14262 3.75e-4,-6e-5 0.0012,-4.5e-4 0.0016,-5.1e-4 0.0087,-0.001 0.01256,-0.004 0.02119,-0.005 -0.06318,-0.0862 -0.119645,-0.15 -0.151929,-0.13694 z m -24.635188,0.11317 c 0.14803,0.31783 0.212846,0.44908 0.309541,0.6475 -0.09649,-0.19839 -0.160185,-0.32795 -0.309025,-0.6475 z m -2.069642,0.0703 c -0.367301,0.9321 -0.659109,1.53169 -0.870231,1.94872 0.211122,-0.41703 0.503447,-1.01662 0.870748,-1.94872 z m 53.586394,1.4087 c 0.01723,0.0299 0.02664,0.0642 0.04496,0.0935 0.30144,0.48282 0.660304,0.91 1.059884,1.29553 h 5.17e-4 c -0.399462,-0.38545 -0.757996,-0.81283 -1.059367,-1.29553 -0.01811,-0.029 -0.02739,-0.0629 -0.04444,-0.0925 -4.61e-4,-2e-4 -0.0011,-8.3e-4 -0.0015,-0.001 z m 1.105359,1.38906 c 0.0019,0.002 0.0033,0.003 0.0052,0.005 0.19808,0.19075 0.406215,0.37136 0.622185,0.54312 0.214505,0.1706 0.436909,0.33231 0.665075,0.48731 -0.459692,-0.31236 -0.896402,-0.65294 -1.292427,-1.03508 z m 30.621904,-0.86661 c 0.50607,0.0871 1.02211,0.12158 1.5472,0.12609 0.18964,0.002 0.46013,-0.007 0.56895,-0.005 0.059,-0.002 0.11849,0.004 0.17725,-0.002 0.24477,-0.0264 -0.49714,0.008 -0.74672,0.006 h -0.001 c -0.52451,-0.005 -1.04011,-0.0387 -1.54565,-0.12557 z m 1.51619,0.12919 c 0.0818,0.0374 0.64109,-0.007 0.93224,0.11213 -4.8e-4,-2e-4 -5.4e-4,-8.3e-4 -10e-4,-0.001 -0.0969,-0.0397 -0.22359,-0.0614 -0.35243,-0.0739 h -5.2e-4 c -0.25182,-0.0242 -0.50225,-0.0146 -0.56534,-0.0372 -0.004,3e-5 -0.009,-5e-5 -0.0129,0 z m -88.035974,0.58187 c -0.194649,0.51214 0.04201,0.66987 0.775663,2.18178 0.23306,0.31675 0.405022,0.68933 0.699182,0.95033 h 5.17e-4 c -0.29416,-0.261 -0.466124,-0.63358 -0.699182,-0.95033 -0.733651,-1.51191 -0.970683,-1.66964 -0.77618,-2.18178 z m 3.615283,0.59583 c -0.08256,0.34128 -0.09009,0.30944 -0.197404,0.90434 1.6e-5,1.9e-4 5.01e-4,8.4e-4 5.17e-4,0.001 0.107623,-0.59678 0.114408,-0.56359 0.196887,-0.90537 z m 87.239121,0.51212 c -0.51141,-0.0151 -1.00563,-0.0108 -1.39164,0.0129 0.39773,-0.0221 0.89432,-0.0273 1.40456,-0.0119 -0.005,-1.4e-4 -0.008,-8.9e-4 -0.0129,-10e-4 z m 0.0129,10e-4 c 1.08078,0.0327 2.15915,0.14178 2.15646,0.29456 v -5.2e-4 h -5.2e-4 c 0.001,-0.0381 -0.0654,-0.0737 -0.18242,-0.10594 h -5.1e-4 c -0.11735,-0.0322 -0.28534,-0.0616 -0.48731,-0.0868 h -5.2e-4 c -0.40435,-0.0505 -0.94455,-0.0849 -1.48518,-0.10129 z m -2.1022,0.13022 c -8.5e-4,6.2e-4 -0.004,9.3e-4 -0.005,0.002 -0.0146,0.011 -0.06,0.0182 -0.062,0.0305 -1.9e-4,6.9e-4 -3.2e-4,0.001 -5.1e-4,0.002 4.1e-4,-0.0137 0.0507,-0.0221 0.0677,-0.0341 z m -87.279427,2.98484 c -0.0547,0.0181 -0.05192,0.17452 -0.02532,0.38395 1.23e-4,9.3e-4 3.9e-4,0.002 5.16e-4,0.003 -0.02852,-0.21305 -0.03066,-0.36856 0.02532,-0.38705 z m 0.0036,0.5519 c 5.35e-4,0.003 0.001,0.005 0.0016,0.008 0.02907,0.16643 0.07977,0.36856 0.134875,0.58859 0.0011,0.004 0.0025,0.009 0.0036,0.0134 -0.05862,-0.22735 -0.109222,-0.43915 -0.140043,-0.6103 z m 59.991687,0.31213 c -0.195288,0.21783 -0.35144,0.4522 -0.47904,0.69608 h 5.17e-4 c 0.127598,-0.24388 0.28375,-0.47825 0.47904,-0.69608 z m -59.713667,0.78083 c 0.206848,0.73427 0.453363,1.48206 0.722953,2.17816 h 5.17e-4 c -0.260268,-0.67206 -0.519364,-1.47356 -0.72347,-2.17816 z m 56.179516,0.84542 c -0.0066,0.011 -0.01984,0.0166 -0.02584,0.0279 -0.0124,0.0221 -0.01464,0.0519 -0.02584,0.0749 0.01701,-0.0345 0.0319,-0.0706 0.05168,-0.10284 z m -0.16123,0.41962 c -0.0106,0.0419 -0.03334,0.0753 -0.04134,0.11885 -0.0256,0.13424 -0.02966,0.28051 -0.03566,0.4253 0.01008,-0.19001 0.03159,-0.37417 0.077,-0.54415 z m 21.857061,0.31987 v 5.2e-4 c 0.0259,0.0145 0.0522,0.0274 0.078,0.0419 -0.026,-0.0145 -0.0521,-0.0279 -0.078,-0.0424 z m -78.300128,0.91002 c -0.06039,0.0208 0.01275,0.35405 0.135909,0.75965 -0.122781,-0.40488 -0.195467,-0.73777 -0.135392,-0.75913 v -5.2e-4 z m 2.956926,1.85674 c -0.13614,0.44747 -0.276673,0.87266 -0.394291,1.3441 h 5.16e-4 c 0.11762,-0.47144 0.258152,-0.89663 0.394292,-1.3441 z m -2.384868,0.0941 c 0.0937,0.20637 0.172682,0.3384 0.212907,0.32453 h 5.17e-4 c -0.04022,0.0139 -0.11972,-0.11816 -0.213424,-0.32453 z m 56.21414,0.60255 c 0.03415,0.22076 0.06205,0.44323 0.104387,0.66197 -0.04322,-0.21581 -0.06474,-0.4374 -0.09974,-0.65526 -0.0011,-0.001 -0.0035,-0.005 -0.0047,-0.007 z m -54.816292,0.98082 c -0.103516,0.10497 -0.200857,0.21999 -0.310575,0.3147 h 5.16e-4 c 0.109539,-0.0945 0.206734,-0.20987 0.310059,-0.3147 z m -0.516248,0.39635 c 0.0023,0.004 0.005,0.01 0.0072,0.0134 -0.0021,-0.004 -0.0046,-0.01 -0.0067,-0.0134 z m 15.420248,0.25218 c -0.658886,0.36866 -1.359995,0.65567 -2.043803,0.97617 0.342217,-0.16039 0.689062,-0.31224 1.032495,-0.47025 0.33994,-0.15643 0.676511,-0.31896 1.003039,-0.50126 0.0029,-0.002 0.0055,-0.003 0.0083,-0.005 z m 40.368078,0.44546 c 5.98e-4,0.002 9.52e-4,0.004 0.0016,0.006 0.002,0.005 0.0021,0.011 0.0041,0.016 0.07741,0.24584 0.173151,0.48812 0.269751,0.73019 0.0312,0.0777 0.053,0.15731 0.0863,0.23461 0.21929,0.51008 0.490553,0.99588 0.735873,1.49396 0.453338,0.78411 0.962312,1.53433 1.52032,2.24431 -0.279525,0.17163 -0.508708,0.36519 -0.711067,0.57103 0.19724,-0.20812 0.432743,-0.39899 0.712101,-0.57051 -0.55801,-0.70998 -1.066981,-1.4602 -1.520321,-2.24431 -0.245318,-0.49808 -0.516582,-0.9839 -0.735872,-1.49396 -0.139874,-0.32536 -0.257198,-0.65504 -0.362769,-0.98702 z m 1.906861,5.2958 c -0.01982,0.0202 -0.05067,0.0353 -0.06976,0.0558 -0.001,0.001 -0.0021,0.003 -0.0031,0.004 -0.10555,0.11378 -0.200187,0.23284 -0.283187,0.35709 -0.05799,0.0867 -0.103335,0.17939 -0.150378,0.2713 0.0088,-0.005 0.01477,-0.009 0.02377,-0.0134 0.126436,-0.24139 0.285417,-0.46677 0.482658,-0.67489 z m 25.945183,-3.94912 c 4e-4,2.7e-4 6.1e-4,8.1e-4 10e-4,0.001 0.41098,0.2223 0.84152,0.41837 1.28519,0.58446 -0.44414,-0.16618 -0.87484,-0.363 -1.28623,-0.5855 z m -96.491782,0.53795 c 0.05908,0.47768 0.167021,0.94801 0.312126,1.4087 -0.145132,-0.46068 -0.25249,-0.93051 -0.311609,-1.40818 v -5.2e-4 z m 97.778532,0.0476 c 0.44417,0.16625 0.9015,0.30245 1.36581,0.40256 v -5.2e-4 c -0.46424,-0.10001 -0.92167,-0.2359 -1.36581,-0.40204 z m -83.131364,1.08417 c 0.0066,0.0181 0.01747,0.0418 0.02377,0.0594 -0.0063,-0.0176 -0.01668,-0.0414 -0.02325,-0.0594 z m -14.335042,0.2775 c 0.435547,1.38254 1.209536,2.67901 2.030884,3.83284 0.492748,0.69221 1.080118,1.31229 1.620056,1.96836 h 5.17e-4 c -0.53995,-0.65608 -1.127298,-1.27613 -1.620056,-1.96836 -0.821258,-1.15371 -1.595827,-2.45047 -2.031401,-3.83284 z m 63.25247,0.28991 c -0.236981,-0.003 -0.469332,0.0238 -0.690397,0.0925 -0.0222,0.007 -0.03618,0.0199 -0.05788,0.0269 -0.22651,0.0758 -0.433365,0.16573 -0.607715,0.2775 -0.002,0.001 -0.0037,0.003 -0.0057,0.005 -8.64e-4,5.5e-4 -0.0012,0.002 -0.0021,0.002 0.19397,-0.12474 0.416303,-0.23092 0.674377,-0.3111 0.883922,-0.27459 1.940642,0.1235 2.801896,0.4036 -0.430578,-0.14001 -0.909813,-0.30995 -1.392163,-0.41031 h -5.16e-4 c -0.24126,-0.0503 -0.482872,-0.0832 -0.719853,-0.0863 z m -1.660881,0.66197 c -0.01022,0.01 -0.02278,0.0185 -0.03307,0.0284 -0.04617,0.0451 -0.107728,0.0806 -0.148828,0.12868 -0.002,0.003 -0.0032,0.006 -0.0052,0.008 -6.67e-4,7.8e-4 -8.86e-4,0.002 -0.0016,0.003 0.05287,-0.0619 0.127393,-0.11051 0.188619,-0.16743 z m -0.472839,0.61495 c -0.007,0.014 -0.01858,0.0256 -0.02532,0.0398 -0.0029,0.006 -0.0079,0.0116 -0.01085,0.0176 -2.2e-4,0.001 -2.97e-4,0.002 -5.17e-4,0.002 -2.98e-4,6.4e-4 -2.2e-4,0.001 -5.17e-4,0.002 0.01006,-0.0217 0.02649,-0.0401 0.03721,-0.0615 z m -23.410974,1.80299 c -0.08403,0.25945 -0.166552,0.52696 -0.24753,0.74104 0.08227,-0.2203 0.16499,-0.47383 0.25063,-0.74104 -0.0012,2.1e-4 -0.0019,-2.2e-4 -0.0031,0 z m 23.422343,1.08934 c 0.03729,0.14422 0.06941,0.29301 0.125057,0.42271 0.14776,0.24617 0.274714,0.5061 0.443384,0.73846 l 0.0062,0.006 c 0.308868,0.42451 0.658516,0.81254 1.038696,1.16893 l 0.0057,0.006 c 4.51e-4,4.2e-4 0.0011,6.1e-4 0.0016,0.001 -0.384409,-0.35974 -0.737919,-0.75153 -1.049549,-1.18081 -0.168668,-0.23236 -0.295625,-0.49228 -0.443383,-0.73845 -0.05572,-0.12984 -0.07773,-0.2845 -0.125057,-0.42323 -8.48e-4,-2.6e-4 -0.0017,-2.7e-4 -0.0026,-5.2e-4 z m -23.956161,0.31626 c -0.06236,0.10603 -0.115829,0.16771 -0.153995,0.15658 0.03817,0.0111 0.09128,-0.0474 0.153479,-0.15503 1.83e-4,-3.1e-4 3.33e-4,-0.001 5.16e-4,-0.002 z m -0.289388,1.17306 c 0.07645,0.0268 0.148096,0.0636 0.224276,0.0909 6.59e-4,-0.002 0.0014,-0.004 0.0021,-0.006 -0.07592,-0.0273 -0.150158,-0.058 -0.226343,-0.0847 z m 57.168606,0.32039 c 3.9e-4,2.7e-4 6e-4,8.3e-4 0.001,0.001 0.19838,0.1029 0.55743,0.29658 0.87798,0.51987 -0.32085,-0.22371 -0.68021,-0.41778 -0.87901,-0.5209 z m -56.287006,0.01 c -0.0071,0.006 -0.01427,0.0118 -0.02222,0.0176 0.109508,0.0424 0.217311,0.0883 0.326079,0.13229 0.0044,-0.01 0.01364,-0.0115 0.01757,-0.0217 9.4e-4,-0.002 1.01e-4,-0.002 0.001,-0.005 -0.106565,-0.0431 -0.215185,-0.0819 -0.322461,-0.1235 z m -30.332515,2.54661 c 0.334722,0.19627 0.675721,0.37869 1.023193,0.54467 0.162183,0.0775 0.338452,0.11371 0.503329,0.18397 -0.517962,-0.21965 -1.035925,-0.44094 -1.526522,-0.72864 z m 2.565735,1.10743 c 0.208099,0.0662 0.403699,0.17122 0.615466,0.22479 0.335097,0.0848 0.676149,0.14708 1.020093,0.19792 -0.560776,-0.0829 -1.098458,-0.25304 -1.635559,-0.42271 z m 13.481864,1.16634 -5.17e-4,5.1e-4 c -0.101578,0.32353 -0.206171,0.6527 -0.256315,0.88367 3.69e-4,-3.8e-4 6.65e-4,-6.5e-4 0.001,-0.001 0.05014,-0.23097 0.154306,-0.55972 0.255798,-0.88315 z m -0.30179,1.35495 -5.17e-4,5.2e-4 c 0.0075,0.0515 0.01247,0.10898 0.03979,0.11989 -0.02741,-0.0109 -0.0319,-0.0686 -0.03927,-0.12041 z"
       inkscape:label="negative space" /></g></svg>
