<?xml version="1.0" encoding="UTF-8" standalone="no"?>
<!-- Created with Inkscape (http://www.inkscape.org/) -->

<svg
   width="122mm"
   height="210mm"
   viewBox="0 0 122 210"
   version="1.1"
   id="svg1"
   xml:space="preserve"
   inkscape:version="1.3.1 (91b66b0783, 2023-11-16)"
   sodipodi:docname="redwood.svg"
   inkscape:export-filename="..\..\paularmer-com\src\media\redwood_bg3.svg"
   inkscape:export-xdpi="100"
   inkscape:export-ydpi="100"
   xmlns:inkscape="http://www.inkscape.org/namespaces/inkscape"
   xmlns:sodipodi="http://sodipodi.sourceforge.net/DTD/sodipodi-0.dtd"
   xmlns="http://www.w3.org/2000/svg"
   xmlns:svg="http://www.w3.org/2000/svg"><sodipodi:namedview
     id="namedview1"
     pagecolor="#ffffff"
     bordercolor="#000000"
     borderopacity="0.25"
     inkscape:showpageshadow="2"
     inkscape:pageopacity="0.0"
     inkscape:pagecheckerboard="0"
     inkscape:deskcolor="#d1d1d1"
     inkscape:document-units="mm"
     inkscape:zoom="0.95119156"
     inkscape:cx="279.64924"
     inkscape:cy="444.17972"
     inkscape:current-layer="layer3" /><defs
     id="defs1" /><g
     inkscape:groupmode="layer"
     id="layer3"
     inkscape:label="WEB"><path
       d="m 0,68.999923 v 16.000052 h 21.640018 c -0.10568,-0.17621 -0.23249,-0.33932 -0.33124,-0.51934 0.22454,0.18291 0.45898,0.34841 0.6904,0.51934 h 7.80934 c -0.59933,-1.17862 -1.72709,-2.96981 -1.91616,-2.8577 0.19635,-0.0334 0.39636,-0.0526 0.59531,-0.076 0.0448,0.0503 0.0911,0.0991 0.13591,0.14935 0.21674,0.22912 0.43603,0.45637 0.65681,0.68109 -0.22431,-0.25959 -0.43185,-0.5359 -0.6563,-0.7953 -0.007,-0.0168 -0.0157,-0.0328 -0.0227,-0.0496 0.5762,-0.0659 1.15335,-0.12835 1.69757,-0.31832 0.49584,-0.1731 -0.0721,-1.18657 -0.10439,-1.23507 -0.20298,-0.3046 -0.47723,-0.55653 -0.74104,-0.81029 -0.93091,-0.895373 -1.3284,-1.121949 -2.39882,-1.896521 -0.45689,-0.274406 -0.94488,-0.565025 -1.45004,-0.851111 0.005,-0.257042 0.0303,-0.518254 0.0971,-0.787032 0.42803,-1.719837 1.0343,-1.913103 2.22157,-2.777608 1.4613,-0.487268 0.79347,-0.362357 2.15594,-0.454236 -0.0104,-0.09413 -0.0205,-0.188372 -0.0305,-0.28267 -0.16043,-0.43893 -0.24584,-0.904961 -0.23564,-1.37666 0.0102,-0.471546 0.21318,-0.918783 0.31988,-1.378211 0.10874,-0.320875 4.64696,1.217008 4.53822,1.537891 0.0114,-0.22705 0.0546,-0.454697 0.0341,-0.681095 -0.0119,-0.131027 -0.0464,-0.251814 -0.0863,-0.370004 -1.63309,-0.249893 -3.19785,-0.748045 -4.71703,-1.370975 z m 56.463218,0 c -0.18869,0.121351 -0.39347,0.262882 -0.57516,0.378271 -1.66292,1.048208 -3.43019,1.891701 -5.24774,2.617411 0.48817,-0.108837 0.97434,-0.228088 1.45573,-0.363802 0.54753,-0.154353 1.08634,-0.338994 1.62935,-0.508496 1.47126,-0.522153 2.95062,-1.108039 4.46123,-1.552876 -0.008,-0.03513 -0.0198,-0.07152 -0.0258,-0.105937 -0.0269,-0.153246 -0.0209,-0.309368 -0.0253,-0.464571 z m 42.3106,0 c -0.64596,1.120976 -1.50025,2.120241 -2.55127,2.969844 -0.93719,0.606713 -1.41025,0.942573 -2.04328,1.265556 0.90794,0.900862 3.00144,3.862036 2.75022,4.045231 -0.16446,0.258497 -0.27999,0.463289 -0.40101,0.642338 0.88117,0.142764 1.63264,0.30258 1.61644,0.4377 -0.0738,0.706023 -0.0294,1.434893 -0.2217,2.118213 -0.35192,1.25025 -0.81717,1.79959 -1.50688,2.4474 1.91928,0.75223 3.854362,1.4593 5.820832,2.07377 h 19.76262 V 68.999923 Z m -15.11949,5.643583 c 0.23038,0.231911 0.44462,0.474695 0.64027,0.728638 0.19565,0.253942 0.37272,0.519046 0.52813,0.795817 0.16138,0.01545 0.32334,0.02293 0.48473,0.03824 0.026,-0.120413 0.1201,-0.325811 0.25786,-0.579809 0.13776,-0.253999 0.31918,-0.5566 0.51987,-0.871782 -0.40553,0.0082 -0.8115,0.0016 -1.21698,-0.01757 -0.40549,-0.01921 -0.8105,-0.0511 -1.21388,-0.09353 z m -52.0883,1.267623 c 0.0183,0.05108 0.0371,0.101866 0.0548,0.152445 0.0898,0.03715 0.17902,0.07569 0.26872,0.113172 -0.11059,-0.08581 -0.21901,-0.173449 -0.3235,-0.265617 z m 32.13706,3.296436 0.0548,0.93845 -0.0992,1.70119 c 0.42179,-0.26545 0.88877,-0.53926 1.3131,-0.76895 0.42432,-0.22969 0.80599,-0.41526 1.05678,-0.50436 0.0834,-0.0296 0.15274,-0.0484 0.20412,-0.0548 0.0514,-0.006 0.0848,-2.7e-4 0.0971,0.0207 0.29314,0.11964 0.57608,0.25735 0.85215,0.40773 0.27607,0.15038 0.54545,0.31321 0.8108,0.48266 0.53069,0.33889 1.04611,0.70446 1.572,1.04955 0.0625,-0.15723 0.24045,-0.42775 0.46922,-0.7426 -0.14805,-0.0782 -0.28695,-0.17106 -0.43357,-0.25166 l -1.29501,-0.25631 z m -33.88785,4.21732 c 0.29077,0.28302 0.58966,0.55493 0.89555,0.817 0.30589,0.26207 0.6188,0.51431 0.93741,0.75809 h 1.30276 c -0.0497,-0.0173 -0.0997,-0.0337 -0.14986,-0.0496 -0.21183,-0.0674 -0.42627,-0.12655 -0.63304,-0.20929 -0.40539,-0.16228 -0.8224,-0.34794 -1.22369,-0.56483 -0.20065,-0.10844 -0.39721,-0.22496 -0.58653,-0.34985 -0.18932,-0.12488 -0.37147,-0.25835 -0.5426,-0.40152 z"
       id="path105"
       inkscape:label="bg4" /></g></svg>
