<?xml version="1.0" encoding="UTF-8" standalone="no"?>
<!-- Created with Inkscape (http://www.inkscape.org/) -->

<svg
   width="122mm"
   height="210mm"
   viewBox="0 0 122 210"
   version="1.1"
   id="svg1"
   xml:space="preserve"
   inkscape:version="1.3.1 (91b66b0783, 2023-11-16)"
   sodipodi:docname="redwood.svg"
   inkscape:export-filename="..\..\paularmer-com\src\media\redwood_bg1.svg"
   inkscape:export-xdpi="100"
   inkscape:export-ydpi="100"
   xmlns:inkscape="http://www.inkscape.org/namespaces/inkscape"
   xmlns:sodipodi="http://sodipodi.sourceforge.net/DTD/sodipodi-0.dtd"
   xmlns="http://www.w3.org/2000/svg"
   xmlns:svg="http://www.w3.org/2000/svg"><sodipodi:namedview
     id="namedview1"
     pagecolor="#ffffff"
     bordercolor="#000000"
     borderopacity="0.25"
     inkscape:showpageshadow="2"
     inkscape:pageopacity="0.0"
     inkscape:pagecheckerboard="0"
     inkscape:deskcolor="#d1d1d1"
     inkscape:document-units="mm"
     inkscape:zoom="0.95119156"
     inkscape:cx="279.64924"
     inkscape:cy="444.17972"
     inkscape:current-layer="layer3" /><defs
     id="defs1" /><g
     inkscape:groupmode="layer"
     id="layer3"
     inkscape:label="WEB"><path
       d="m 0,25.999963 v 22.000208 h 29.535148 c 0.001,-0.117793 -0.031,-0.21978 -0.0222,-0.341065 0.0495,-0.687842 0.30356,-1.345747 0.45527,-2.018481 0.1197,-0.301349 3.32578,0.884561 4.88187,1.674316 -0.0453,-0.06434 -0.0897,-0.129314 -0.13177,-0.197404 -0.15133,-0.244459 -0.21464,-0.533731 -0.32195,-0.800468 -0.14755,-0.147783 0.98469,-1.381022 2.02572,-2.371948 0.0211,0.0013 0.0419,0.0045 0.063,0.0057 0.82779,-0.02938 1.66019,-0.0041 2.48409,-0.08423 -0.18212,-0.495687 -0.37396,-1.103208 -0.53072,-1.670182 -0.076,-0.01849 -0.15172,-0.03793 -0.22582,-0.05943 -0.1834,-0.05188 -0.34399,-0.146792 -0.49971,-0.254765 -0.0384,-0.02662 -0.15516,-0.07674 -0.10956,-0.08682 0.0707,-0.01561 0.13492,0.06091 0.20722,0.06511 0.18035,0.01035 0.36091,0.01235 0.54157,0.01395 -0.19565,-0.757995 -0.30374,-1.372093 -0.18965,-1.406633 0.1225,-0.104067 0.21662,-0.186094 0.29352,-0.251664 -0.6451,-0.875792 -1.27594,-1.869688 -1.15031,-1.960087 0.21184,-0.11533 0.42376,-0.230904 0.63562,-0.346232 0.45167,0.0056 0.90324,0.01094 1.35495,0.01654 0.11473,0.02784 0.22703,0.06898 0.34417,0.08372 0.14594,0.0184 0.0281,-0.05961 0.13694,-0.08733 0.026,-0.0066 0.0652,-0.0075 0.10852,-0.0062 -0.46693,-0.164281 -0.80453,-0.245731 -0.84233,-0.162781 -0.0697,-0.08524 -0.13959,-0.170561 -0.20929,-0.255798 -0.36095,-0.0068 -0.42647,-0.0528 -0.76946,0.146244 -0.0954,0.05537 -0.15941,0.153416 -0.24701,0.220141 -0.34413,-0.13839 -0.71786,-0.344206 -1.00356,-0.488342 -0.73092,-0.368769 -1.47599,-0.707981 -2.22518,-1.037663 -0.10224,-0.291345 -0.17216,-0.565212 -0.20516,-0.810286 0.18723,0.100633 0.36463,0.19448 0.62787,0.334863 1.68021,0.803381 3.18352,1.156892 5.10356,0.962215 0.58523,-0.05933 1.59877,-0.712719 2.06861,-0.981852 0.53386,-0.311794 0.99353,-0.677415 1.34876,-1.12758 -0.17808,-0.317997 -0.37358,-0.675119 -0.59532,-1.080037 -0.16646,-0.303969 0.22985,-0.654324 0.33693,-0.983919 0.0613,-0.188633 0.0844,-0.275805 0.11317,-0.377755 -0.94702,-0.488456 -2.52072,-1.131266 -3.41116,-1.373043 1.01371,0.186319 2.69639,0.674922 3.52124,1.027328 0.0525,-0.117224 0.14521,-0.199633 0.56172,-0.762228 0.31075,-0.255928 0.59785,-0.543752 0.93224,-0.767911 0.056,-0.03757 0.11383,-0.07124 0.17053,-0.107487 -0.27809,-0.156597 -0.5507,-0.328141 -0.83457,-0.469222 -0.13282,-0.0907 0.2182,-0.790899 0.74982,-1.661398 -0.24005,-0.118213 -0.47961,-0.238064 -0.72502,-0.336413 -0.14983,-0.06941 0.11987,-0.869546 0.49816,-1.823662 z m 71.561528,0 c 1.01517,1.005006 3.13102,3.852068 2.87734,4.046265 -0.008,0.0042 -0.0158,0.0097 -0.0238,0.01395 0.70582,0.319165 1.42636,0.597478 2.18849,0.746724 0.36975,0.07239 0.75185,0.05511 1.12758,0.08268 0.28468,0.105327 -0.4394,2.439298 -1.20922,4.399732 1.42325,-0.240769 3.17062,-0.405198 3.20032,-0.196371 0.0844,0.558732 0.26221,1.110874 0.25321,1.675867 -0.0172,1.120996 -0.4793,2.299189 -1.1839,3.161564 -0.23083,0.282483 -0.50339,0.525893 -0.78394,0.761194 0.97006,1.1567 2.61047,3.695572 3.07217,4.788855 0.061,0.0088 0.11594,0.01714 0.21394,0.02842 0.4743,0.05459 1.72967,-0.21801 1.42472,0.149345 -0.32629,0.393043 -0.99623,0.110374 -1.52187,0.178284 0.0117,0.07382 0.025,0.150265 -0.005,0.170015 -0.29376,0.167546 -0.56344,0.316225 -0.84078,0.479041 l -5.1e-4,5.16e-4 c -0.0616,0.07774 -0.12466,0.153783 -0.19276,0.221692 -0.0664,0.102831 -0.13717,0.160005 -0.10077,0.270785 0.0423,-0.298797 4.26789,0.299098 4.22559,0.597896 -0.009,0.150431 -0.0297,0.289001 -0.0656,0.423747 H 121.99944 V 25.999963 Z m -10.31462,0.321428 c -0.18795,0.194573 -0.38557,0.380411 -0.58601,0.562756 0.13416,0.10502 0.19946,0.182047 0.32814,0.287321 0.10021,0.0051 0.19506,0.03646 0.29456,0.04496 0.11059,-0.22358 0.21733,-0.427707 0.31523,-0.599964 -0.11574,-0.100106 -0.23766,-0.193444 -0.35192,-0.295073 z m -21.43073,5.318538 c 0.0563,0.0045 0.11268,0.0091 0.16898,0.01344 0.0341,0.0026 -0.069,0.02784 -0.10129,0.01654 -0.022,-0.0077 -0.0446,-0.01821 -0.0677,-0.02997 z m 29.37236,15.759245 c -0.0895,0.07525 -0.17675,0.15491 -0.26665,0.22841 -0.0671,0.05289 -0.30802,0.243199 -0.4718,0.372587 h 4.65811 c 0.0212,-0.02616 0.0499,-0.07149 0.0703,-0.09612 -1.33671,-0.04603 -2.66666,-0.218263 -3.98994,-0.504879 z"
       id="path99"
       inkscape:label="bg2" /></g></svg>
